<svg id="Layer_1" xmlns="http://www.w3.org/2000/svg" viewBox="0 0 157 153.7"><style>.st0{fill:#fff}</style><path class="st0" d="M60.3 121.8l-1.2-.4-4.5 12.5 1.2.4c1.3.5 3.1 1 5.1.4 1.5-.5 3.3-1.7 4.2-4.1.8-2.3.4-4.5-.5-5.9-1.2-1.6-3-2.4-4.3-2.9zm41.2-100.2c1.5.8 2.8 0 3.4-1 .6-1 .5-2.6-1-3.4-1.5-.8-2.8 0-3.4 1s-.4 2.6 1 3.4zm-18.1 6.5c.8.1 1.9-.1 2.9-1.4 1.3-1.6 1.8-4.1 2-5.8.2-1.8.2-4.3-.8-6.1-.7-1.4-1.7-1.8-2.5-1.9-.8-.1-1.9.1-2.9 1.4-1.3 1.6-1.8 4-2 5.8-.2 1.7-.2 4.3.8 6.1.7 1.4 1.7 1.8 2.5 1.9zM24.8 87.6c4.1-.3 6.9-3.3 6.6-7.3s-3.3-6.7-7.5-6.4c-4.1.3-6.9 3.3-6.6 7.3.3 4.1 3.4 6.7 7.5 6.4zm39.5-59.4c1.1 1.1 2.2 1.2 3 1 .8-.2 1.7-.7 2.3-2.2.7-1.9.4-4.5 0-6.2-.4-1.7-1.2-4.1-2.7-5.5-1.1-1.1-2.2-1.2-3-1-.8.2-1.7.7-2.3 2.2-.7 1.9-.4 4.4 0 6.1.4 1.7 1.3 4.2 2.7 5.6zm62.7 80.9l2.9-4.8-6.9-.9zm-17.2-76.3c-1.5-.8-2.8 0-3.4 1-.6 1-.5 2.6 1 3.4 1.5.8 2.8 0 3.4-1s.5-2.6-1-3.4z"/><path class="st0" d="M157 76.8c0-5.9-4.6-11.1-5.9-16.6-1.3-5.7.6-12.4-1.9-17.5-2.5-5.2-8.9-7.9-12.5-12.4-3.6-4.5-4.8-11.3-9.3-14.9-4.4-3.6-11.4-3.3-16.6-5.8-5.1-2.5-9.2-8.1-14.9-9.4-5.5-1.2-11.6 2-17.5 2S66.5-1 61 .3c-5.7 1.3-9.8 6.9-14.9 9.4S34 11.9 29.6 15.5c-4.5 3.6-5.7 10.5-9.3 14.9-3.5 4.5-10 7.2-12.5 12.4-2.5 5.1-.6 11.8-1.9 17.5C4.6 65.7 0 71 0 76.8c0 5.8 4.6 11.1 5.9 16.6 1.3 5.7-.6 12.4 1.9 17.5 2.5 5.2 8.9 7.9 12.5 12.4 3.6 4.5 4.8 11.3 9.3 14.9 4.5 3.6 11.4 3.3 16.6 5.8 5.1 2.5 9.2 8.1 14.9 9.4 5.5 1.3 11.6-2 17.5-2s12 3.3 17.5 2c5.6-1.3 9.8-6.9 14.9-9.4 5.2-2.5 12.2-2.2 16.6-5.8 4.5-3.6 5.7-10.5 9.3-14.9 3.6-4.5 10-7.2 12.5-12.4 2.5-5.1.6-11.8 1.9-17.5 1.1-5.5 5.7-10.7 5.7-16.6zm-25.6-21l7.5-2.9 1 2.7-7.5 2.9-7 8.6 1.5-.1.4 4.3 15.9-1.6.3 2.8-15.8 1.5.4 4.3-2.7.3-1.1-11.4h.1l-.9-2.2 5.4-6.7-8.5-1.3-1.2-3 12.2 1.8zM98.5 17c1.2-2.2 4.2-3.1 6.5-1.8s3.2 4.2 2 6.5c-1.2 2.2-4.2 3.1-6.5 1.8s-3.2-4.2-2-6.5zm16.6 3.5l.8 1.4-19.6 12-.8-1.4 19.6-12zm-2.3 16.9c-1.2 2.2-4.2 3.1-6.5 1.8s-3.2-4.2-2-6.4c1.2-2.2 4.2-3.1 6.5-1.8s3.3 4.1 2 6.4zm-1.4 39.4c0 18.2-14.7 32.9-32.9 32.9S45.6 95 45.6 76.8s14.7-32.9 32.9-32.9 32.9 14.7 32.9 32.9zm-34.3-57c.3-2.5 1.1-5.7 3.4-7.9 1.4-1.3 3-1.9 4.7-1.7 1.8.2 3.2 1 4.3 2.6 1.8 2.6 2 5.9 1.7 8.4-.3 2.6-1.1 5.7-3.4 7.9-1.4 1.3-3 1.9-4.7 1.7-1.8-.2-3.2-1-4.3-2.6-1.8-2.6-1.9-5.8-1.7-8.4zm-17.8-5c.9-1.7 2.2-2.7 3.9-3.1s3.3 0 4.9 1.1c2.6 1.9 3.8 4.9 4.4 7.4.6 2.5.8 5.7-.6 8.5-.9 1.7-2.2 2.7-3.9 3.1-1.7.4-3.3 0-4.9-1.1-2.6-1.9-3.8-4.8-4.3-7.4-.7-2.4-1-5.7.5-8.5zm-16.2 5.5l4.2-2.4 9.9 17.4-2.7 1.5L46 21.9l-3 1.7.1-3.3zm-26.3 40c1-3.3 3.1-4.8 4.4-5.6 2.6-1.5 5.1-1.6 7.6-.8 3.3 1 5.1 3.1 6.1 5 1.2 2.4 1.1 4.7.3 7.2-.5 1.6-1.3 3.1-2.8 4.4l-3.2-1c2.4-1.5 3.2-3.2 3.5-4.2 1.2-3.9-.9-7.4-4.8-8.6-3.8-1.2-7.5.7-8.7 4.5-.7 2.1-.1 4.2.6 5.5l-3.2-1c-.5-2.2-.2-4.1.2-5.4zm-2.1 21.1c-.4-5.6 3.6-10 9-10.3 5.5-.4 9.9 3.5 10.3 9.1.4 5.6-3.6 10-9 10.3s-9.9-3.5-10.3-9.1zm10.1 33l6.5-18.5-11.6 5.9-1.3-2.5L36 90.2l-6.5 18.5 11.5-5.9 1.3 2.5-17.5 9.1zm8.4 7.8l-2-2L44.3 107l6.6 6.6-1.9 1.9-4.6-4.6-3.3 3.4 4.5 4.4-1.9 1.9-4.5-4.4-6 6zm11.5 9.4l-2.4-1.6 10.4-15.5 2.4 1.6-10.4 15.5zm23.1 0c-1.1 2.9-3.2 5-6.1 5.8-2.6.7-4.6.2-7-.6l-3.6-1.3 6.3-17.6 3.7 1.3c2.4.9 4.5 1.9 5.9 4.1 1.5 2.4 1.9 5.4.8 8.3zm15-5.7l-7.4-.3-.2 4.7 7.2.3-.1 2.7-7.3-.3-.3 5.9 7.4.3-.1 2.7-10.3-.5.8-18.7 10.3.5v2.7zm6 2.1l3.7 12.5-2.7.8-5.7-19.1 17 9.7-3.7-12.4 2.7-.8 5.7 19-17-9.7zm25.8 3.2l-9-13.2-3.5 2.4-1.5-2.2 9.4-6.5 1.5 2.2-3.5 2.4 9 13.2-2.4 1.7zm9.3-7.4l-13.2-13.2 2-2 13.2 13.2-2 2zm13.7-18.5l-4.9-.6-4.1 6.8 2.8 4.1-1.6 2.6-12.2-18.1 21.5 2.6-1.5 2.6zm3.2-8.4l-18.1-4.7.7-2.8 15.5 4 1.4-5.3 2.6.7-2.1 8.1zm2.6-12.6l-18.6-1.6.3-2.8 18.6 1.6-.3 2.8z"/></svg>