<svg id="Layer_1" xmlns="http://www.w3.org/2000/svg" viewBox="0 0 117.6 45.5"><style>.st0{fill-rule:evenodd;clip-rule:evenodd}.st0,.st1{fill:#fff}</style><path class="st0" d="M45.3 10.6h4.2l5.6 10.7V10.6h3.3v17h-3.7l-6.1-12.1v12.1h-3.3v-17zm50.8 4.1c3.6 0 6.5 2.9 6.5 6.5s-2.9 6.5-6.5 6.5-6.5-2.9-6.5-6.5c-.1-3.6 2.9-6.5 6.5-6.5zm0 3.3c1.8 0 3.2 1.5 3.2 3.2 0 1.8-1.5 3.2-3.2 3.2s-3.2-1.5-3.2-3.2c-.1-1.7 1.4-3.2 3.2-3.2zM66 14.7c3.6 0 6.5 2.9 6.5 6.5s-2.9 6.5-6.5 6.5-6.5-2.9-6.5-6.5c-.1-3.6 2.9-6.5 6.5-6.5zm0 3.3c1.8 0 3.2 1.5 3.2 3.2 0 1.8-1.5 3.2-3.2 3.2-1.8 0-3.2-1.5-3.2-3.2-.1-1.7 1.4-3.2 3.2-3.2zm7.6-2.9v12.5h3.7v-5.9c0-.5.1-.8.2-1.3.3-1 .9-1.9 1.9-2.4.5-.3.6-.3 1.1-.3h2.3v6.8c.1 3.7 3.9 3.8 6.7 3.1-.2-.8-.3-1.7-.5-2.5-1.6.4-2.7.5-2.7-1.5v-5.8H89v-2.6h-2.6v-3.5h-3c-.3 1.2-.6 2.4-.8 3.5h-2.1c-.9 0-1.7.2-2.4.8-.6.4-1.1 1.1-1.4 2-.4-.9-.7-1.7-1.1-2.6-.6-.3-1.3-.3-2-.3zm29.9-.1v12.6h3.5v-8.4c0-1.2 2.8-2.2 4-.8.3.4.3.5.3.9v8.1h3.6v-8.7c0-1-.5-2-1.1-2.7-.9-1.1-2.2-1.6-4-1.3-1.2.2-2.2.9-3.4 2.1-.2-.6-.5-1.3-.7-1.9-.7.1-1.4.1-2.2.1z"/><path class="st1" d="M115.6 15.3h.4V15h-1.1v.3h.4v1.4h.3v-1.4zm2-.3h-.4l-.3 1.3-.3-1.3h-.4v1.7h.3v-1.4l.3 1.4h.3l.3-1.4v1.4h.3V15h-.1zM19.7 45.5C8.8 45.5 0 36.6 0 25.8 0 14.9 8.8 6.1 19.7 6.1c10.9 0 19.7 8.8 19.7 19.7 0 10.8-8.9 19.7-19.7 19.7zm0-33.2c-3.6 0-7 1.4-9.5 3.9s-3.9 5.9-3.9 9.5c0 3.6 1.4 7 3.9 9.5s5.9 3.9 9.5 3.9c3.6 0 7-1.4 9.5-3.9s3.9-5.9 3.9-9.5c0-3.6-1.4-7-3.9-9.5s-5.9-3.9-9.5-3.9zm23-9.2h-1.6v1.5h1.6V3.1zm0-3.1h-1.6v1.5h1.6V0zm-4.4 4.6h-1.5v1.5h1.5V4.6zm-2.9 2.9H34V9h1.4V7.5zm4.5-1.4h-1.6v1.4h1.6V6.1zm-7.4 1.4H34V6.2h-1.5v1.3zm5.8 0h-1.5V9h1.5V7.5zm2.8-6h-1.5v1.6h1.5V1.5zm-1.5 1.6h-2.8v1.5h2.8V3.1z"/><path class="st1" d="M35.4 7.5h1.4V4.6h-1.4v2.9zm0 1.5v1.4H34V9h-2.4v1h-1.3v1.3h1.4v1.4h-1.4v-1.4h-1.5v2.2h-1.4V15h-1v1.4h-1.1c-1.2 1.8-4.1 7.2-5 9.5-3.2-4.5-5.7-6.3-7.7-6.9-1.1-.3-2.4.8-.6 2.7 4.1 4.5 5.3 8.2 6.6 11.1.7 1.6 3.6 1.8 4.2.2 1.3-3.4 3.1-7.1 5.2-10.2v-1.6h1.1v-1.4h1.2V18h1.4v-1.6h-1.5v-1.5h1.5v1.5h1.4v-1.5h1.1v-1.8h1.3V12h1.2V9h-1.3zm26.2 30.2l-.4.6c.3.2.7.5 1.3.7.5.2 1 .3 1.7.3 1 0 1.8-.2 2.3-.7.5-.4.8-1.1.8-1.8 0-.8-.3-1.4-.8-1.8-.5-.4-1.2-.7-2-1-.7-.3-1.2-.5-1.5-.8-.3-.3-.5-.6-.5-1.1 0-.5.1-.8.4-1.1.3-.3.8-.4 1.5-.4.6 0 1 .1 1.4.2.3.1.6.2.8.3l.3-.7c-.3-.2-.6-.3-1-.4-.4-.1-.9-.2-1.6-.2-.9 0-1.6.2-2.1.6-.5.4-.7 1-.7 1.7 0 .8.3 1.3.7 1.7.5.4 1.1.7 1.8 1 .7.3 1.2.5 1.6.8.4.3.6.7.6 1.3 0 .5-.2.9-.6 1.2-.4.3-.9.4-1.5.4s-1.1-.1-1.6-.3c-.3-.1-.6-.3-.9-.5zm6.3-5.1h1l1.8 5.8 1.7-5.8h1L71 41.5c-.4 1.2-1 1.8-2.2 1.8-.2 0-.5-.1-.7-.1l.1-.7c.1 0 .3.1.5.1.8 0 1.3-.5 1.5-1.3l-2.3-7.2zm13.7-.1c1.3 0 1.7 1.1 1.7 2.2v4.7h-1v-4.7c0-.7-.1-1.4-1-1.4-.6 0-1.2.4-1.9 1v5h-1v-4.7c0-.7-.1-1.4-1-1.4-.6 0-1.3.4-1.9 1v5h-1v-6.8h.6l.3 1.1c.6-.7 1.4-1.2 2.3-1.2.9 0 1.3.5 1.5 1.2.7-.5 1.5-1 2.4-1zm7.2 3.3c-1.5.3-2.5.6-2.8 1.1-.2.2-.2.4-.2.7 0 .7.3 1.1 1.1 1.1s1.4-.4 1.9-.8v-2.1zm0-1c0-1-.3-1.5-1.4-1.5-.7 0-1.3.3-1.9.6l-.4-.7c.6-.4 1.4-.8 2.4-.8 1.6 0 2.3.9 2.3 2.4v4.5h-.6l-.3-.8c-.5.5-1.2.9-2.1.9-1.2 0-2-.7-2-1.9 0-.7.3-1.3.9-1.7.6-.4 1.7-.6 3.1-.8v-.2zm3.2-2.2h.6l.3 1.2c.6-.7 1.4-1.3 2.4-1.3 1.4 0 1.8 1.1 1.8 2.2v4.7h-1v-4.7c0-.7-.2-1.4-1.1-1.4-.7 0-1.4.4-2 1.1v5h-1v-6.8zm6.4.7v-.7h1l.3-1.9h.7v1.9h1.5v.7h-1.5v4.4c0 .6.1 1 .8 1 .3 0 .5-.1.8-.1l.1.7c-.3.1-.6.2-1 .2-1.2 0-1.7-.6-1.7-1.7v-4.5h-1zm8.9 2.3c-.1-1.5-.6-2.3-1.6-2.3-.9 0-1.6.7-1.6 2.3h3.2zm-1.5 3.1c.8 0 1.3-.3 1.9-.7l.4.6c-.6.6-1.2.9-2.4.9-1.7 0-2.8-1.4-2.8-3.5s1.1-3.5 2.7-3.5c1.7 0 2.6 1.2 2.6 3.6v.2H104c.1 1.6.6 2.4 1.8 2.4zm3.6-2.6c0-1.7.7-3.6 2.7-3.6.9 0 1.5.2 2.1.7l-.4.7c-.4-.3-1-.6-1.7-.6-1.5 0-1.7 1.6-1.7 2.8 0 1.1.2 2.6 1.8 2.6.7 0 1.2-.3 1.7-.7l.5.6c-.5.5-1.2.9-2.2.9-2 0-2.8-1.8-2.8-3.4zm-57.7-3.5h1l1.8 5.8 1.7-5.8h1l-2.3 7.4c-.4 1.2-1 1.8-2.2 1.8-.2 0-.5-.1-.7-.1l.1-.7c.1 0 .3.1.5.1.8 0 1.3-.5 1.5-1.3l-2.4-7.2zm-1.8 2.7v1.6c0 .1 0 .2-.1.2 0 .1 0 .1-.1.2 0 .1-.1.1-.1.2s-.1.1-.1.2-.1.1-.1.2-.1.1-.1.2l-.1.1s-.1.1-.2.1-.1.1-.2.1-.1.1-.2.1-.1 0-.2.1h-.9s-.1 0-.1-.1c0 0-.1 0-.1-.1 0 0-.1 0-.1-.1 0 0-.1 0-.1-.1 0 0-.1 0-.1-.1 0 0-.1 0-.1-.1 0 0-.1 0-.1-.1l-.1-.1-.1-.1-.1-.1v-3.6l.2-.2c.1 0 .1-.1.2-.1s.1-.1.2-.1.1-.1.2-.1.1-.1.2-.1.1 0 .2-.1h1.2c.1 0 .1 0 .2.1.1 0 .1.1.2.1l.1.1.1.1.1.1c0 .1.1.1.1.2s.1.1.1.2.1.1.1.2 0 .2.1.3c-.2.3-.2.4-.1.6zm.9 1.5v-2.1c0-.1 0-.2-.1-.2 0-.1 0-.1-.1-.2 0-.1-.1-.1-.1-.2s-.1-.1-.1-.2-.1-.1-.1-.2-.1-.1-.1-.1l-.1-.1-.1-.1-.1-.1-.1-.1-.1-.1-.1-.1s-.1 0-.1-.1c0 0-.1 0-.1-.1h-1.2c-.1 0-.2 0-.2.1-.1 0-.2.1-.2.1-.1 0-.1.1-.2.1s-.1.1-.2.1-.1.1-.2.1l-.2.2v-3.5h-.9v9.3h.7l.2-.7v.1l.1.1.1.1.1.1s.1 0 .1.1c0 0 .1 0 .1.1 0 0 .1 0 .1.1 0 0 .1 0 .1.1 0 0 .1 0 .1.1h1.5c.1 0 .2 0 .2-.1.1 0 .2-.1.2-.1.1 0 .2-.1.2-.1.1 0 .2-.1.2-.1l.2-.2.2-.2.2-.2c.1-.1.1-.2.2-.2.1-.1.1-.2.1-.3 0-.1.1-.2.1-.3 0-.1.1-.2.1-.3-.4-.3-.4-.4-.4-.6z"/></svg>