<svg id="Layer_1" xmlns="http://www.w3.org/2000/svg" viewBox="0 0 100 70"><style>.st0{fill:none}.st1,.st2{fill:none;stroke:#505979;stroke-width:4;stroke-linejoin:bevel;stroke-miterlimit:10}.st2{fill:#ef7171}.st3{fill:#f7ba82}.st4{fill:#ffd886}.st5{fill:none;stroke:#505979;stroke-linecap:round;stroke-linejoin:round}.st5,.st6,.st7,.st8{stroke-width:4;stroke-miterlimit:10}.st6{fill:none;stroke-linecap:round;stroke-linejoin:round;stroke:#ef7171}.st7,.st8{stroke:#505979}.st7{stroke-linecap:round;stroke-linejoin:round;fill:#505979}.st8{fill:#ef7171}.st9{fill:#b3655f}.st10{fill:#ef7171}.st11{fill:#b3655f;stroke:#505979;stroke-width:4;stroke-linecap:round;stroke-linejoin:round;stroke-miterlimit:10}.st12{fill:#fff}.st13{fill:none;stroke:#505979;stroke-width:4;stroke-linecap:round;stroke-miterlimit:10}.st14{fill:#2e75af}.st15{fill:#3892e7}.st16{fill:#505979}.st17{fill:#c7c8ca}.st18{fill:none}.st18,.st19,.st20,.st21{stroke:#505979;stroke-width:4;stroke-miterlimit:10}.st19{fill:#505979}.st20,.st21{fill:#eee;stroke-linecap:round;stroke-linejoin:round}.st21{fill:#fff}.st22{fill:#ff8282}.st23{fill:#00c349;stroke-width:4;stroke-linecap:round;stroke-linejoin:round;stroke-miterlimit:10}.st23,.st24{stroke:#028e30}.st24,.st25,.st26,.st27{stroke-width:4;stroke-linecap:round;stroke-linejoin:round;stroke-miterlimit:10}.st24{fill:#71db8a}.st25{fill:#ffd886}.st25,.st26,.st27{stroke:#505979}.st26{fill:#ef7171}.st27{fill:#3892e7}.st28{fill:#d9ebfb}.st29,.st30,.st31{stroke-miterlimit:10}.st29{fill:none;stroke:#505979;stroke-linecap:round;stroke-linejoin:round;stroke-width:2}.st30,.st31{stroke-width:4}.st30{stroke-linecap:round;stroke-linejoin:round;fill:#f7ba82;stroke:#505979}.st31{fill:#ef7171;stroke:#b3655f}.st32{fill:#fad2a1}.st33{fill:#eee}.st34,.st35{fill:#3892e7;stroke:#2e75af;stroke-width:4;stroke-linecap:round;stroke-linejoin:round;stroke-miterlimit:10}.st35{fill:#c7c8ca}</style><path class="st16" d="M28.6 20.5l-3 7.1-3.3-7.1h-4.1v10l-4.3-10h-3.7L5.7 31h2.7l1-2.3h5.2l1 2.3h5.1v-8.2l3.6 8.2h2.2l3.6-8.2V31h2.6V20.5h-4.1zm-18.4 6l1.7-4.2 1.8 4.2h-3.5zm39.9 12.1h-8L38.9 42l-3.1-3.4H25.7v10.5h9.9l3.2-3.5 3.1 3.5h4.9v-3.5h3.7c.5 0 .9-.1 1.2-.2.3-.1.6-.2 1-.4s.7-.4.9-.6c.2-.3.4-.6.5-1 .1-.4.2-.8.2-1.4 0-2.3-1.4-3.4-4.2-3.4zm-15.8 8.3h-6.2v-2.1h5.5v-2.1h-5.5v-1.9h6.3l2.7 3.1-2.8 3zm10 1.2l-3.8-4.3 3.8-4.1v8.4zm5.7-4.7h-3.2v-2.7h3.3c1 0 1.5.4 1.5 1.3 0 1-.5 1.4-1.6 1.4zm-7-14.6V31h-8.4V20.5H43v2.2h-5.9v1.9h5.8v2.1h-5.8v2.1zm10.1-2.7c.5-.2 1-.6 1.3-1.1.3-.5.5-1.1.5-1.7 0-1.1-.4-1.9-1.1-2.2-.7-.4-1.8-.6-3-.6h-5.9V31h2.5v-3.8H50c.5 0 .8 0 1.1.1.3.1.5.2.7.3.1.1.3.3.3.6.1.3.1.5.1.7v2h2.5v-2.1c0-.8-.1-1.4-.3-1.8-.2-.3-.7-.6-1.3-.9zM50.4 25h-3.1v-2.3h3.2c1.1 0 1.6.4 1.6 1.1 0 .8-.6 1.2-1.7 1.2zm13.4 19.2c.6-.2 1-.6 1.3-1.1.3-.5.5-1.1.5-1.7 0-1.1-.4-1.9-1.1-2.3-.7-.4-1.7-.6-3-.6h-6V49H58v-3.8h2.7c.9 0 1.5.1 1.8.4.3.3.5.8.5 1.7v1.8h2.5V47c0-.8-.1-1.3-.3-1.8-.3-.4-.8-.8-1.4-1zm-2.6-1.1H58v-2.4h3.2c1.1 0 1.6.4 1.6 1.1 0 .9-.5 1.3-1.6 1.3zm-4.9-22.6h2.6V31h-2.6zm29.7 0v7.3l-4.4-7.3h-3.8v9.9l-4.2-9.9h-3.8l-3.6 8.3h-1.1c-.9 0-1.6-.3-1.9-.8-.4-.5-.5-1.3-.5-2.3 0-.5 0-.9.1-1.3s.2-.7.5-.9c.2-.2.4-.4.6-.5.2-.1.4-.2.8-.3.4 0 .7-.1.9-.1h2.2v-2.3h-2.5c-3.4 0-5.1 1.8-5.1 5.4 0 3.4 1.7 5.2 5 5.2H68l1-2.3h5.2l1 2.3h5.1V23l4.7 8h3.6V20.5H86zm-16.1 6l1.7-4.2 1.7 4.2h-3.4zm5.5 20.4v2.2H67V38.6h8.4v2.2h-5.9v1.9h5.7v2.1h-5.7v2.1zm10.3-1.1c0 2.2-1.3 3.3-4 3.3h-4.9v-2.2h4.9c.9 0 1.3-.3 1.3-1 0-.4-.2-.7-.7-.8-.4-.1-1-.2-1.6-.2s-1.3 0-1.9-.1c-.6-.1-1.2-.4-1.6-.9-.4-.5-.7-1.2-.7-2.1 0-1 .3-1.8 1-2.3.7-.5 1.5-.8 2.6-.8h5v2.2h-4.6c-.9 0-1.4.3-1.4 1 0 .4.2.7.7.8.5.1 1 .2 1.6.2.6 0 1.3 0 1.9.1.6.1 1.2.4 1.6.8.6.3.8 1 .8 2zm9.3-2v3.9c-.6.9-1.8 1.4-3.4 1.4h-4.8v-2.2h4.8c.9 0 1.3-.3 1.3-1 0-.3-.2-.6-.5-.7-.3-.2-.7-.2-1.2-.2s-1 0-1.6-.1c-.6-.1-1.1-.2-1.6-.3-.5-.1-.9-.5-1.2-.9-.3-.5-.5-1.1-.5-1.9 0-1 .3-1.8 1-2.3.7-.5 1.5-.8 2.6-.8h5v2.2h-4.6c-.9 0-1.4.3-1.4 1 0 .5.4.8 1.1.9.8.1 1.6.1 2.7.2 1.1-.1 1.8.2 2.3.8z"/><path class="st5" d="M95 10v49.6c0 1.3-.5 2.5-1.5 3.5s-2.1 1.5-3.5 1.5H10.6c-1.3 0-2.5-.5-3.5-1.5S5.6 61 5.6 59.6V10c0-1.3.5-2.5 1.5-3.5S9.2 5 10.6 5H90c1.3 0 2.5.5 3.5 1.5S95 8.6 95 10z"/></svg>