<svg id="Layer_1" xmlns="http://www.w3.org/2000/svg" viewBox="0 0 150 150"><style>.st0{fill:none}.st1,.st2{fill:none;stroke:#505979;stroke-width:4;stroke-linejoin:bevel;stroke-miterlimit:10}.st2{fill:#ef7171}.st3{fill:#f7ba82}.st4{fill:#ffd886}.st5{fill:none;stroke:#505979;stroke-linecap:round;stroke-linejoin:round}.st5,.st6,.st7,.st8{stroke-width:4;stroke-miterlimit:10}.st6{fill:none;stroke-linecap:round;stroke-linejoin:round;stroke:#ef7171}.st7,.st8{stroke:#505979}.st7{stroke-linecap:round;stroke-linejoin:round;fill:#505979}.st8{fill:#ef7171}.st9{fill:#b3655f}.st10{fill:#ef7171}.st11{fill:#b3655f;stroke:#505979;stroke-width:4;stroke-linecap:round;stroke-linejoin:round;stroke-miterlimit:10}.st12{fill:#fff}.st13{fill:none;stroke:#505979;stroke-width:4;stroke-linecap:round;stroke-miterlimit:10}.st14{fill:#2e75af}.st15{fill:#3892e7}.st16{fill:#505979}.st17{fill:#c7c8ca}.st18{fill:none}.st18,.st19,.st20,.st21{stroke:#505979;stroke-width:4;stroke-miterlimit:10}.st19{fill:#505979}.st20,.st21{fill:#eee;stroke-linecap:round;stroke-linejoin:round}.st21{fill:#fff}.st22{fill:#ff8282}.st23{fill:#00c349;stroke-width:4;stroke-linecap:round;stroke-linejoin:round;stroke-miterlimit:10}.st23,.st24{stroke:#028e30}.st24,.st25,.st26,.st27{stroke-width:4;stroke-linecap:round;stroke-linejoin:round;stroke-miterlimit:10}.st24{fill:#71db8a}.st25{fill:#ffd886}.st25,.st26,.st27{stroke:#505979}.st26{fill:#ef7171}.st27{fill:#3892e7}.st28{fill:#d9ebfb}.st29,.st30,.st31{stroke-miterlimit:10}.st29{fill:none;stroke:#505979;stroke-linecap:round;stroke-linejoin:round;stroke-width:2}.st30,.st31{stroke-width:4}.st30{stroke-linecap:round;stroke-linejoin:round;fill:#f7ba82;stroke:#505979}.st31{fill:#ef7171;stroke:#b3655f}.st32{fill:#fad2a1}.st33{fill:#eee}.st34,.st35{fill:#3892e7;stroke:#2e75af;stroke-width:4;stroke-linecap:round;stroke-linejoin:round;stroke-miterlimit:10}.st35{fill:#c7c8ca}</style><circle class="st3" cx="75" cy="80" r="45"/><path class="st4" d="M75 120c-23.2 0-42-18.8-42-42s18.8-42 42-42 42 18.8 42 42-18.8 42-42 42z"/><circle class="st5" cx="75" cy="80" r="45"/><path class="st14" d="M85 30H65c-13.8 0-25 11.2-25 25h70c0-13.8-11.2-25-25-25z"/><path class="st15" d="M40.1 51C41.1 39.3 51 30 63 30h20c12 0 21.9 9.3 22.9 21H40.1z"/><path class="st5" d="M85 30H65c-13.8 0-25 11.2-25 25h70c0-13.8-11.2-25-25-25z"/><path class="st14" d="M106.3 55.7c-3.6 3.6-8.9 5.1-13.9 3.7C88 58.2 82 57.1 75 57.1c-7.1 0-13.3 1.2-17.7 2.4-4.8 1.3-9.9-.1-13.5-3.6L40 52.1s16-5 35-5 35 5 35 5l-3.7 3.6z"/><path class="st15" d="M51.7 56c-3.1 0-6.2-1.3-8.4-3.5l-1.4-1.4c5.6-1.4 17.7-4 31.2-4s25.6 2.6 31.2 4l-1.2 1.2c-2.3 2.3-5.4 3.6-8.7 3.6-1.1 0-2.2-.1-3.2-.4-5.9-1.6-12-2.4-18-2.4-6.1 0-12.2.8-18.2 2.5-1.2.3-2.3.4-3.3.4z"/><path class="st5" d="M106.3 55.7c-3.6 3.6-8.9 5.1-13.9 3.7C88 58.2 82 57.1 75 57.1c-7.1 0-13.3 1.2-17.7 2.4-4.8 1.3-9.9-.1-13.5-3.6L40 52.1s16-5 35-5 35 5 35 5l-3.7 3.6zM85 80s3 5 10 5 10-5 10-5m-60 0s3.3 5 10 5 10-5 10-5"/><path class="st13" d="M65.6 97.5s2.5 6 10 6 10-6 10-6"/><circle class="st16" cx="95" cy="69" r="10"/><path class="st12" d="M100 66.5c0 1.4-1.1 2.5-2.5 2.5-.4 0-.7-.1-1-.2-.9-.4-1.5-1.3-1.5-2.3 0-1.4 1.1-2.5 2.5-2.5 1 0 1.9.6 2.3 1.5.1.3.2.6.2 1z"/><circle class="st16" cx="55" cy="69" r="10"/><path class="st12" d="M60 66.5c0 1.4-1.1 2.5-2.5 2.5-.4 0-.7-.1-1-.2-.9-.4-1.5-1.3-1.5-2.3 0-1.4 1.1-2.5 2.5-2.5 1 0 1.9.6 2.3 1.5.1.3.2.6.2 1z"/></svg>