<svg id="Layer_1" xmlns="http://www.w3.org/2000/svg" viewBox="0 0 150 150"><style>.st0{fill:none}.st1,.st2{fill:none;stroke:#505979;stroke-width:4;stroke-linejoin:bevel;stroke-miterlimit:10}.st2{fill:#ef7171}.st3{fill:#f7ba82}.st4{fill:#ffd886}.st5{fill:none;stroke:#505979;stroke-linecap:round;stroke-linejoin:round}.st5,.st6,.st7,.st8{stroke-width:4;stroke-miterlimit:10}.st6{fill:none;stroke-linecap:round;stroke-linejoin:round;stroke:#ef7171}.st7,.st8{stroke:#505979}.st7{stroke-linecap:round;stroke-linejoin:round;fill:#505979}.st8{fill:#ef7171}.st9{fill:#b3655f}.st10{fill:#ef7171}.st11{fill:#b3655f;stroke:#505979;stroke-width:4;stroke-linecap:round;stroke-linejoin:round;stroke-miterlimit:10}.st12{fill:#fff}.st13{fill:none;stroke:#505979;stroke-width:4;stroke-linecap:round;stroke-miterlimit:10}.st14{fill:#2e75af}.st15{fill:#3892e7}.st16{fill:#505979}.st17{fill:#c7c8ca}.st18{fill:none}.st18,.st19,.st20,.st21{stroke:#505979;stroke-width:4;stroke-miterlimit:10}.st19{fill:#505979}.st20,.st21{fill:#eee;stroke-linecap:round;stroke-linejoin:round}.st21{fill:#fff}.st22{fill:#ff8282}.st23{fill:#00c349;stroke-width:4;stroke-linecap:round;stroke-linejoin:round;stroke-miterlimit:10}.st23,.st24{stroke:#028e30}.st24,.st25,.st26,.st27{stroke-width:4;stroke-linecap:round;stroke-linejoin:round;stroke-miterlimit:10}.st24{fill:#71db8a}.st25{fill:#ffd886}.st25,.st26,.st27{stroke:#505979}.st26{fill:#ef7171}.st27{fill:#3892e7}.st28{fill:#d9ebfb}.st29,.st30,.st31{stroke-miterlimit:10}.st29{fill:none;stroke:#505979;stroke-linecap:round;stroke-linejoin:round;stroke-width:2}.st30,.st31{stroke-width:4}.st30{stroke-linecap:round;stroke-linejoin:round;fill:#f7ba82;stroke:#505979}.st31{fill:#ef7171;stroke:#b3655f}.st32{fill:#fad2a1}.st33{fill:#eee}.st34,.st35{fill:#3892e7;stroke:#2e75af;stroke-width:4;stroke-linecap:round;stroke-linejoin:round;stroke-miterlimit:10}.st35{fill:#c7c8ca}</style><path class="st9" d="M132.5 35v50c0 5.5-4.5 10-10 10h-90c-5.5 0-10-4.5-10-10V35c0-5.5 4.5-10 10-10h90c5.5 0 10 4.5 10 10z"/><path class="st10" d="M32.5 91c-4.4 0-8-3.6-8-8V33c0-4.4 3.6-8 8-8h90c4.4 0 8 3.6 8 8v50c0 4.4-3.6 8-8 8h-90z"/><path class="st12" d="M62.5 35h70v10h-70zm-40 20h110v10h-110zm0 20h110v10h-110z"/><path class="st14" d="M22.5 65h30c5.5 0 10-4.5 10-10V25h-30c-5.5 0-10 4.5-10 10v30z"/><path class="st15" d="M22.5 63h30c5.5 0 10-4.5 10-10V23h-30c-5.5 0-10 4.5-10 10v30z"/><path class="st18" d="M132.5 35v50c0 5.5-4.5 10-10 10h-90c-5.5 0-10-4.5-10-10V35c0-5.5 4.5-10 10-10h90c5.5 0 10 4.5 10 10z"/><path class="st19" d="M22.5 135h-5V17.5c0-1.4 1.1-2.5 2.5-2.5s2.5 1.1 2.5 2.5V135z"/><circle class="st16" cx="42.5" cy="44" r="10"/><path class="st12" d="M47.5 41.5c0 1.4-1.1 2.5-2.5 2.5-.4 0-.7-.1-1-.2-.9-.4-1.5-1.3-1.5-2.3 0-1.4 1.1-2.5 2.5-2.5 1 0 1.9.6 2.3 1.5.1.3.2.6.2 1z"/><path class="st5" d="M37.5 55s-.2-1 5-1 5 1 5 1"/><circle class="st16" cx="112.5" cy="44" r="10"/><path class="st12" d="M117.5 41.5c0 1.4-1.1 2.5-2.5 2.5-.4 0-.7-.1-1-.2-.9-.4-1.5-1.3-1.5-2.3 0-1.4 1.1-2.5 2.5-2.5 1 0 1.9.6 2.3 1.5.1.3.2.6.2 1z"/><path class="st5" d="M107.5 55s-.2-1 5-1 5 1 5 1"/><path class="st13" d="M67.5 65s2.5 6 10 6 10-6 10-6"/></svg>