<svg id="Layer_1" xmlns="http://www.w3.org/2000/svg" viewBox="0 0 240 95"><style>.st0{fill:none}.st1,.st2{fill:none;stroke:#505979;stroke-width:4;stroke-linejoin:bevel;stroke-miterlimit:10}.st2{fill:#ef7171}.st3{fill:#f7ba82}.st4{fill:#ffd886}.st5{fill:none;stroke:#505979;stroke-linecap:round;stroke-linejoin:round}.st5,.st6,.st7,.st8{stroke-width:4;stroke-miterlimit:10}.st6{fill:none;stroke-linecap:round;stroke-linejoin:round;stroke:#ef7171}.st7,.st8{stroke:#505979}.st7{stroke-linecap:round;stroke-linejoin:round;fill:#505979}.st8{fill:#ef7171}.st9{fill:#b3655f}.st10{fill:#ef7171}.st11{fill:#b3655f;stroke:#505979;stroke-width:4;stroke-linecap:round;stroke-linejoin:round;stroke-miterlimit:10}.st12{fill:#fff}.st13{fill:none;stroke:#505979;stroke-width:4;stroke-linecap:round;stroke-miterlimit:10}.st14{fill:#2e75af}.st15{fill:#3892e7}.st16{fill:#505979}.st17{fill:#c7c8ca}.st18{fill:none}.st18,.st19,.st20,.st21{stroke:#505979;stroke-width:4;stroke-miterlimit:10}.st19{fill:#505979}.st20,.st21{fill:#eee;stroke-linecap:round;stroke-linejoin:round}.st21{fill:#fff}.st22{fill:#ff8282}.st23{fill:#00c349;stroke-width:4;stroke-linecap:round;stroke-linejoin:round;stroke-miterlimit:10}.st23,.st24{stroke:#028e30}.st24,.st25,.st26,.st27{stroke-width:4;stroke-linecap:round;stroke-linejoin:round;stroke-miterlimit:10}.st24{fill:#71db8a}.st25{fill:#ffd886}.st25,.st26,.st27{stroke:#505979}.st26{fill:#ef7171}.st27{fill:#3892e7}.st28{fill:#d9ebfb}.st29,.st30,.st31{stroke-miterlimit:10}.st29{fill:none;stroke:#505979;stroke-linecap:round;stroke-linejoin:round;stroke-width:2}.st30,.st31{stroke-width:4}.st30{stroke-linecap:round;stroke-linejoin:round;fill:#f7ba82;stroke:#505979}.st31{fill:#ef7171;stroke:#b3655f}.st32{fill:#fad2a1}.st33{fill:#eee}.st34,.st35{fill:#3892e7;stroke:#2e75af;stroke-width:4;stroke-linecap:round;stroke-linejoin:round;stroke-miterlimit:10}.st35{fill:#c7c8ca}.st36{fill:#2e3345}</style><path class="st36" d="M62.7 72c0 1.5-2.7 3.8-8.7 5.6-5.4 1.5-12.2 2.4-19.3 2.4-7.1 0-14-.9-19.3-2.4-6-1.8-8.7-4.1-8.7-5.6v-.4c0-.1 0-.1.1-.2 0-.1 0-.1.1-.2 0-.1.1-.2.2-.3l.1-.1c0-.1.1-.1.2-.2.5-.7 1.4-1.3 2.6-2 .3-.2.6-.3 1-.5.2-.1.4-.2.5-.2.2-.1.4-.2.6-.2.4-.2.8-.3 1.2-.5.2-.1.4-.2.7-.2 1.9-.7 4.2-1.2 6.8-1.7.2-.1.5-.1.7-.1.1 0 .3-.1.4-.1.3 0 .5-.1.8-.1h.2v2c0 2 .8 3.8 2.3 5.2 1.3 1.2 3 1.8 4.7 1.8h.6c3.6-.3 6.4-3.5 6.4-7.2v-2.7h.1c.4 0 .9 0 1.3.1h1.2c.3 0 .7 0 1 .1h.6c.5 0 .9.1 1.4.1 1.4.1 2.6.3 3.9.5.7.1 1.5.2 2.2.4 1.7.3 3.3.7 4.8 1.1.7.2 1.3.4 1.9.6.2.1.4.1.6.2.3.1.5.2.8.3.2.1.4.2.7.3.4.2.8.3 1.2.5.2.1.5.2.7.3.2.1.4.2.5.3.4.2.8.5 1.2.7l.3.3c.2.1.4.3.5.4.1.1.2.1.2.2.4.4.7 1 .7 1.5z"/><path class="st36" d="M60.7 70c0 1.5-2.7 3.8-8.7 5.6-5.4 1.5-12.2 2.4-19.3 2.4-7.1 0-14-.9-19.3-2.4-2.9-.9-5.1-1.8-6.5-2.8-.1-.2-.2-.3-.2-.5v-.7c0-.1 0-.1.1-.2 0-.1 0-.1.1-.2 0-.1.1-.2.2-.3l.1-.1c0-.1.1-.1.2-.2.5-.7 1.4-1.3 2.6-2 .3-.2.6-.3 1-.5.2-.1.4-.2.5-.2.2-.1.4-.2.6-.2.4-.2.8-.3 1.2-.5.2-.1.4-.2.7-.2 1.9-.7 4.2-1.2 6.8-1.7.2-.1.5-.1.7-.1.1 0 .3-.1.4-.1.3 0 .5-.1.8-.1h.2v2c0 2 .8 3.8 2.3 5.2 1.3 1.2 3 1.8 4.7 1.8h.6c3.6-.3 6.4-3.5 6.4-7.2v-2.7c.5 0 1 0 1.5.1.7 0 1.4.1 2.1.1h.7c.5 0 .9.1 1.4.1.4 0 .9.1 1.3.1s.7.1 1.1.1c1.2.1 2.3.3 3.4.5.3 0 .6.1.9.2.6.1 1.1.2 1.7.4.3.1.5.1.8.2.3 0 .5.1.8.2.3.1.5.1.8.2.5.1 1 .3 1.4.4 1.4.4 2.6.9 3.6 1.4.5.2 1 .5 1.4.7.1.1.3.2.4.3.1.1.3.2.4.3 0 .1.1.4.1.6zm2 8.1V82c0 3.3-10.9 8-28 8s-28-4.7-28-8v-3.9c1.2.8 2.6 1.5 4.3 2.2l.9.3c.4.1.8.3 1.3.4.4.1.8.2 1.2.4C20 83.1 27.3 84 34.8 84c7.5 0 14.8-.9 20.4-2.6.4-.1.8-.2 1.2-.4l.9-.3c.2-.1.4-.2.6-.2 1.8-.7 3.4-1.5 4.8-2.4z"/><path class="st36" d="M62.7 17v19.8c0 1.6-1.3 3.2-2.8 3.3-1.5.1-2.8-1-3.1-2.4-.2-1-1.1-1.7-2.1-1.6-1.8.2-1.8 1.4-1.9 3.8l-.1 1.9c0 1.6-1.3 3.2-2.8 3.3-1.5.1-2.8-1-3.1-2.4-.2-1-1.1-1.7-2.1-1.6-1.8.2-1.8 1.4-1.9 3.8l-.1 1.9c0 1.6-1.3 3.2-2.8 3.3-1.5.1-2.8-1-3.1-2.4-.2-1-1.1-1.7-2.1-1.6-1.8.2-1.8 1.9-1.8 2.8l-.1 18c0 1.7-1.2 3.1-2.7 3.3-.8.1-1.7-.2-2.3-.8-.6-.6-1-1.4-1-2.2V33.5c0-1.9-1.1-3.6-2.9-4.4-.6-.3-1.3-.4-1.9-.4-1.2 0-2.4.5-3.3 1.3l-9.5 9.1c-1.1 1.1-3.1 1.1-4.2 0-1.2-1.2-1.2-3.1 0-4.3.1-.1 9.5-9.8 16.2-16.5 4.9-5 8.1-10.7 9.5-13.6.1-.4.6-.7 1.2-.7h20.4c1.3 0 2.6.4 3.6 1.2 2.5 1.9 6.8 5.9 6.8 11.8z"/><path class="st36" d="M60.7 16v19.8c0 1.1-.9 2.2-1.9 2.3h-.1c-.9 0-1.8-.6-2-1.6-.7-3.9-5-1.6-5-1.6-.9.9-.9.9-1.1 5.9 0 1.1-.9 2.3-1.9 2.3h-.1c-.9 0-1.9-.8-2-1.6-.1-3.6-5-1.6-5-1.6-.9.9-.9.9-1.1 5.9 0 1.1-.9 2.3-1.9 2.3h-.1c-.9 0-1.9-.9-2-1.6-.5-4.3-5.1-1.6-5.1-1.6-.9.9-.9.9-.9 11.5l-.1 9.4c0 1.2-.8 2.2-1.8 2.3h-.2c-.5 0-1-.2-1.4-.6-.4-.4-.6-.9-.6-1.4V32.5c0-3.2-2.6-5.8-5.8-5.8-1.5 0-2.9.6-4 1.6l-9.5 9.1c-.1.4-.6.6-1.1.6-.5 0-1-.2-1.4-.6-.3-.3-.5-.6-.5-1 .1-.6.4-1.1.8-1.6.1-.1 9.5-9.8 16.2-16.5 4.9-5 8.1-10.7 9.5-13.6.2-.4.7-.7 1.3-.7h19.4c1.1 0 2.1.3 3 1 2.4 1.8 6.4 5.6 6.4 11z"/><path class="st12" d="M101.2 36.2c.2.2.2.4.2.6v19.4c0 .2-.1.4-.2.6s-.3.2-.6.2h-2.4c-.2 0-.4-.1-.6-.2-.2-.2-.2-.3-.2-.6v-7.9h-9.1v7.9c0 .2-.1.4-.2.6-.1.1-.3.2-.5.2h-2.4c-.2 0-.4-.1-.6-.2-.2-.2-.2-.3-.2-.6V36.8c0-.2.1-.4.2-.6s.3-.2.6-.2h2.4c.2 0 .4.1.6.2.2.2.2.4.2.6v7.7h9.1v-7.7c0-.2.1-.4.2-.6.2-.2.3-.2.6-.2h2.4c.2 0 .4.1.5.2zm18.9 13c0 .5 0 1-.1 1.5-.1 1.2-.5 2.3-1.1 3.3-.6 1-1.5 1.8-2.6 2.4-1.1.6-2.4.9-3.8.9s-2.7-.3-3.8-.9c-1.1-.6-2-1.4-2.6-2.4-.6-1-1-2.1-1.1-3.3v-3c.1-1.2.5-2.4 1.1-3.4.6-1 1.5-1.8 2.6-2.4 1.1-.6 2.4-.9 3.8-.9s2.7.3 3.8.9c1.1.6 2 1.4 2.6 2.4.6 1 1 2.1 1.1 3.4.1.5.1 1 .1 1.5zm-10-3.8c-.7.5-1.1 1.3-1.2 2.4v2.7c.1 1.1.5 2 1.2 2.4.7.5 1.5.7 2.4.7s1.8-.2 2.4-.7c.7-.5 1.1-1.3 1.2-2.4 0-.4.1-.8.1-1.3s0-1-.1-1.4c-.1-1.1-.5-2-1.2-2.4s-1.5-.7-2.4-.7-1.7.2-2.4.7zm18.9-3.8c.7-.3 1.4-.5 2.1-.5 2.3 0 4 .9 5 2.5.5-.8 1.2-1.4 2.1-1.9.9-.5 1.8-.7 2.7-.7 2.1 0 3.6.6 4.6 1.9s1.4 3 1.4 5.1v8.1c0 .2-.1.4-.2.6s-.4.2-.6.2h-2.3c-.2 0-.4-.1-.6-.2-.2-.2-.2-.3-.2-.6v-7.9c0-1.3-.3-2.2-.8-2.8-.5-.6-1.2-.9-2.2-.9-.9 0-1.6.3-2.1.8-.6.6-.8 1.5-.9 2.7v8.1c0 .2-.1.4-.2.6-.2.2-.4.2-.6.2H134c-.2 0-.4-.1-.6-.2-.2-.2-.2-.3-.2-.6v-7.9c0-1.3-.3-2.2-.8-2.8-.5-.6-1.2-.9-2.2-.9-.9 0-1.6.3-2.1.9s-.8 1.5-.8 2.8v7.9c0 .2-.1.4-.2.6-.2.2-.4.2-.6.2h-2.3c-.2 0-.4-.1-.6-.2s-.2-.3-.2-.6v-14c0-.2.1-.4.2-.6s.4-.2.6-.2h2.3c.2 0 .4.1.6.2.2.2.2.4.2.6v.7c.4-.5 1-.9 1.7-1.2zm32.1.5c1.1.7 2 1.6 2.6 2.8.6 1.2.9 2.4.9 3.8V50c0 .2-.1.4-.2.6-.2.2-.4.2-.6.2h-10c0 .9.3 1.5 1 2.1.7.5 1.5.8 2.4.8 1.1 0 2-.2 2.6-.7.2-.2.4-.3.5-.3.1-.1.3-.1.6-.1h2.4c.2 0 .4.1.6.2.2.2.2.3.2.5 0 .4-.3 1-.8 1.6-.5.6-1.3 1.2-2.4 1.7-1 .5-2.3.7-3.7.7-1.5 0-2.8-.3-3.9-1s-2-1.6-2.6-2.8c-.6-1.2-.9-2.6-.9-4.2 0-1.5.3-2.9.9-4.1.6-1.2 1.5-2.2 2.6-2.9 1.1-.7 2.4-1.1 3.9-1.1s2.8.2 3.9.9zm-.6 5.4c-.2-1.8-1.3-2.8-3.3-2.8-1 0-1.9.3-2.4.8-.6.6-.9 1.2-1 1.9h6.7zm24.7-5.4c.1-.2.2-.4.3-.5.1-.1.3-.2.5-.2h2.3c.2 0 .4.1.6.2.2.2.2.4.2.6v.2l-4.5 13.8c-.2.5-.5.8-.9.8h-2.3c-.2 0-.4-.1-.5-.2-.1-.1-.2-.3-.3-.6l-2.9-8-2.9 8-.3.6c-.1.1-.3.2-.5.2h-2.3c-.4 0-.7-.3-.9-.8l-4.5-13.8v-.2c0-.2.1-.4.2-.6.2-.2.3-.2.6-.2h2.3c.2 0 .4.1.5.2s.2.3.3.5l2.7 8.6 2.9-8.6c.1-.2.2-.3.3-.5.1-.1.3-.2.5-.2h2.3c.2 0 .4.1.5.2.1.1.3.3.3.5l2.9 8.6 2.6-8.6zm20.7 7.1c0 .5 0 1-.1 1.5-.1 1.2-.5 2.3-1.1 3.3-.6 1-1.5 1.8-2.6 2.4-1.1.6-2.4.9-3.8.9s-2.7-.3-3.8-.9c-1.1-.6-2-1.4-2.6-2.4-.6-1-1-2.1-1.1-3.3v-3c.1-1.2.5-2.4 1.1-3.4.6-1 1.5-1.8 2.6-2.4 1.1-.6 2.4-.9 3.8-.9s2.7.3 3.8.9c1.1.6 2 1.4 2.6 2.4.6 1 1 2.1 1.1 3.4.1.5.1 1 .1 1.5zm-10-3.8c-.7.5-1.1 1.3-1.2 2.4v2.7c.1 1.1.5 2 1.2 2.4.7.5 1.5.7 2.4.7s1.8-.2 2.4-.7c.7-.5 1.1-1.3 1.2-2.4 0-.4.1-.8.1-1.3s0-1-.1-1.4c-.1-1.1-.5-2-1.2-2.4s-1.5-.7-2.4-.7-1.7.2-2.4.7zm17.9.4c-.5.5-.8 1.4-.8 2.6v7.8c0 .2-.1.4-.2.6-.2.2-.4.2-.6.2h-2.3c-.2 0-.4-.1-.6-.2s-.2-.3-.2-.6v-14c0-.2.1-.4.2-.6s.4-.2.6-.2h2.3c.2 0 .4.1.6.2.2.2.2.4.2.6v.7c.5-.5 1.1-.9 1.7-1.1.6-.2 1.4-.4 2.3-.4h1.3c.2 0 .4.1.6.2s.2.4.2.6v2c0 .2-.1.4-.2.6-.2.2-.3.2-.6.2h-1.9c-1.2 0-2.1.3-2.6.8zm11.7 10.4c0 .2-.1.4-.2.6-.2.2-.4.2-.6.2h-2.3c-.2 0-.4-.1-.6-.2s-.2-.3-.2-.6V36.5c0-.2.1-.4.2-.6.2-.2.4-.2.6-.2h2.3c.2 0 .4.1.6.2.2.2.2.4.2.6V46l5-4c.2-.2.4-.3.6-.4.2-.1.4-.1.6-.1h3.1c.2 0 .4.1.5.2.1.1.2.3.2.5s-.1.4-.3.6l-7 5.6 7.6 7.4c.2.2.3.4.3.6 0 .2-.1.4-.2.5s-.3.2-.5.2h-2.9c-.4 0-.8-.2-1.2-.5l-5.7-5.5v5.1zM101.6 16.5c0 1 0 1.7-.1 2.2-.2 2.6-1 4.7-2.4 6.1S95.5 27 92.7 27h-7.6c-.2 0-.4-.1-.6-.2-.2-.2-.2-.3-.2-.6V6.8c0-.2.1-.4.2-.6s.4-.2.6-.2h7.4c2.9 0 5 .7 6.5 2.2 1.5 1.5 2.3 3.5 2.5 6.1.1.5.1 1.2.1 2.2zM88.4 9.8v13.5h4.2c1.6 0 2.8-.4 3.6-1.2.8-.8 1.3-1.9 1.3-3.3 0-.5.1-1.2.1-2.2 0-1 0-1.7-.1-2.2-.1-1.4-.5-2.5-1.4-3.3-.8-.8-2.1-1.2-3.7-1.2h-4zm31.1 9.4c0 .5 0 1-.1 1.5-.1 1.2-.5 2.3-1.1 3.3-.6 1-1.5 1.8-2.6 2.4-1.1.6-2.4.9-3.8.9s-2.7-.3-3.8-.9c-1.1-.6-2-1.4-2.6-2.4-.6-1-1-2.1-1.1-3.3v-3c.1-1.2.5-2.4 1.1-3.4.6-1 1.5-1.8 2.6-2.4 1.1-.6 2.4-.9 3.8-.9s2.7.3 3.8.9c1.1.6 2 1.4 2.6 2.4.6 1 1 2.1 1.1 3.4 0 .5.1 1 .1 1.5zm-10.1-3.8c-.7.5-1.1 1.3-1.2 2.4v2.7c.1 1.1.5 2 1.2 2.4.7.5 1.5.7 2.4.7s1.8-.2 2.4-.7 1.1-1.3 1.2-2.4c0-.4.1-.8.1-1.3s0-.9-.1-1.4c-.1-1.1-.5-2-1.2-2.4s-1.5-.7-2.4-.7-1.7.2-2.4.7zm36.1-8.6c.2-.2.4-.4.5-.6.2-.1.4-.2.8-.2h2c.2 0 .4.1.6.2.2.2.2.4.2.6v19.4c0 .2-.1.4-.2.6-.2.2-.4.2-.6.2h-2.4c-.2 0-.4-.1-.6-.2-.2-.2-.2-.3-.2-.6V14.5l-3.9 6.8c-.3.5-.7.8-1.1.8H139c-.4 0-.8-.3-1.1-.8l-3.9-6.8v11.7c0 .2-.1.4-.2.6-.2.2-.4.2-.6.2h-2.4c-.2 0-.4-.1-.6-.2-.2-.2-.2-.3-.2-.6V6.8c0-.2.1-.4.2-.6s.3-.2.6-.2h2c.3 0 .6.1.8.2s.3.3.5.6l5.7 9.9 5.7-9.9zm7 5.6v-.2c0-.2.1-.4.2-.6s.3-.2.6-.2h2.3c.2 0 .4.1.6.2s.3.3.4.5l4 9.3 4-9.3c.1-.2.2-.3.4-.5.2-.1.4-.2.6-.2h2.3c.2 0 .4.1.6.2s.2.4.2.6v.2L160.1 32c-.1.2-.2.3-.4.5-.2.1-.4.2-.6.2h-2.3c-.2 0-.4-.1-.6-.2-.2-.2-.2-.4-.2-.6v-.2l2.4-5.5-5.9-13.8zM82.6 72.3c0-.3.1-.5.3-.6l6.5-5.1c.2-.1.3-.2.5-.3s.4-.2.5-.2h2.3c.2 0 .4.1.6.2s.2.3.2.6v19.4c0 .2-.1.4-.2.6s-.3.1-.5.1h-2.4c-.2 0-.4-.1-.6-.2s-.2-.3-.2-.6V71.4l-4.3 3.3c-.1.1-.3.2-.5.2-.3 0-.5-.1-.7-.3l-1.4-1.8c-.1-.2-.1-.3-.1-.5zm15 7.3c-.2-.2-.2-.3-.2-.6v-2c0-.2.1-.4.2-.6.2-.2.3-.2.6-.2h17.5c.2 0 .4.1.6.2.2.2.2.4.2.6v2c0 .2-.1.4-.2.6-.2.2-.4.2-.6.2H98.2c-.2 0-.4-.1-.6-.2zm31.6-7.2c0-.9-.3-1.6-.8-2.1s-1.3-.8-2.4-.8c-1 0-1.8.3-2.3.8s-.9 1.2-1.2 2.1l-.3.6c-.2.1-.4.2-.6.2h-2.4c-.2 0-.4-.1-.6-.2-.2-.2-.2-.3-.2-.6.1-1.2.5-2.3 1.1-3.3.7-1 1.6-1.8 2.7-2.4 1.1-.6 2.4-.9 3.7-.9 1.6 0 2.9.3 4 1s1.9 1.5 2.5 2.5c.5 1 .8 2.1.8 3.2 0 .8-.1 1.4-.2 2-.1.6-.4 1.1-.9 1.8-.5.6-1.1 1.3-2 2l-5.5 5.1h8.3c.2 0 .4.1.6.2.2.2.2.3.2.6v2.1c0 .2-.1.4-.2.6-.2.2-.4.2-.6.2h-14c-.2 0-.4-.1-.6-.2s-.2-.3-.2-.6v-1.8c0-.5.3-1 .8-1.4l8.9-7.7c1-.9 1.4-1.9 1.4-3zm7 7.2c-.2-.2-.2-.3-.2-.6v-2c0-.2.1-.4.2-.6.2-.2.3-.2.6-.2h17.5c.2 0 .4.1.6.2.2.2.2.4.2.6v2c0 .2-.1.4-.2.6-.2.2-.4.2-.6.2h-17.5c-.3 0-.5-.1-.6-.2zm36.5-13.4c.2.2.2.3.2.6v2.1c0 .2-.1.4-.2.6s-.3.4-.5.6l-4.4 4.6c1.8.2 3.3.9 4.3 1.9 1.1 1.1 1.6 2.4 1.6 4.1 0 1.3-.4 2.5-1 3.5-.7 1-1.7 1.8-2.9 2.3-1.2.5-2.6.8-4.2.8-1.8 0-3.3-.3-4.5-.8-1.2-.5-2.2-1.2-2.8-2.1-.7-.8-1-1.7-1.1-2.6 0-.2 0-.4.2-.6.2-.1.4-.2.6-.2h2.4c.2 0 .3.1.5.2.1.1.3.3.4.6.3.6.8 1 1.4 1.3.6.3 1.6.5 2.9.5 1.2 0 2.2-.2 3-.8.7-.5 1.1-1.2 1.1-2.1 0-.9-.4-1.5-1.1-1.9-.7-.4-1.7-.6-3-.6h-2.5c-.2 0-.4-.1-.6-.2s-.2-.4-.2-.6v-2.1c0-.2.1-.4.2-.6s.3-.4.5-.6l4.2-4.4H159c-.2 0-.4-.1-.6-.2-.2-.2-.2-.3-.2-.6v-2.1c0-.2.1-.4.2-.6.2-.2.3-.2.6-.2h13.1c.3 0 .5.1.6.2zM40 54c3.1-.2 5.8-2.7 6.5-5.8 1.1.5 2.3.8 3.5.8 3.1-.2 5.8-2.7 6.5-5.8 1.1.5 2.3.8 3.5.8 3.6-.2 6.6-3.5 6.6-7.2V17c0-7.6-5.3-12.7-8.4-15-1.7-1.3-3.8-2-6-2H31.9c-2.1 0-4 1.2-4.9 3-1.3 2.7-4.2 8-8.8 12.5C11.6 22.3 2.1 32 2 32.1-.7 34.8-.7 39.3 2 42c1.3 1.3 3.1 2 4.9 2s3.6-.7 4.9-2l9.5-9.1c.3-.3.6-.2.8-.1.2.1.5.3.5.7v27.4c-11 1.5-19.8 5.2-20 11v10.2c0 7.9 16.1 12 32 12 15.9 0 32-4.1 32-12V71.8c-.3-7.4-14.9-11.5-30-11.8v-6.7c1.1.5 2.3.7 3.4.7zm22.7 28c0 3.3-10.9 8-28 8s-28-4.7-28-8v-3.9c1.2.8 2.6 1.5 4.3 2.2l.9.3c.4.1.8.3 1.3.4.4.1.8.2 1.2.4C20 83.1 27.3 84 34.8 84c7.5 0 14.8-.9 20.4-2.6.4-.1.8-.2 1.2-.4l.9-.3c.2-.1.4-.2.6-.2 2-.7 3.6-1.5 4.9-2.4V82zm0-10c0 1.5-2.7 3.8-8.7 5.6-5.4 1.5-12.2 2.4-19.3 2.4-7.1 0-14-.9-19.3-2.4-6-1.8-8.7-4.1-8.7-5.6 0-2.4 6-5.6 16-7.2V67c0 2 .8 3.8 2.3 5.2 1.3 1.2 3 1.8 4.7 1.8h.6c3.6-.3 6.4-3.5 6.4-7.2v-2.7c15.9.3 26 4.8 26 7.9zM34.6 46c-1.8.2-1.8 1.9-1.8 2.8L32.7 60v6.7c0 1.7-1.2 3.1-2.7 3.3-.8.1-1.7-.2-2.3-.8-.6-.6-1-1.4-1-2.2V33.5c0-1.9-1.1-3.6-2.9-4.4-.6-.3-1.3-.4-1.9-.4-1.2 0-2.4.5-3.3 1.3l-9.5 9.1c-1.1 1.1-3.1 1.1-4.2 0-1.2-1.2-1.2-3.1 0-4.3.1-.1 9.5-9.8 16.2-16.5 4.9-5 8.1-10.7 9.5-13.6.2-.4.7-.7 1.3-.7h20.4c1.3 0 2.6.4 3.6 1.2 2.5 1.9 6.8 6 6.8 11.8v19.8c0 1.6-1.3 3.2-2.8 3.3-1.5.1-2.8-1-3.1-2.4-.2-1-1.1-1.7-2.1-1.6-1.8.2-1.8 1.4-1.9 3.8l-.1 1.9c0 1.6-1.3 3.2-2.8 3.3-1.5.1-2.8-1-3.1-2.4-.2-1-1.1-1.7-2.1-1.6-1.8.2-1.8 1.4-1.9 3.8l-.1 1.9c0 1.6-1.3 3.2-2.8 3.3-1.5.1-2.8-1-3.1-2.4-.3-1.1-1.2-1.8-2.2-1.7z"/></svg>