<svg id="Layer_1" xmlns="http://www.w3.org/2000/svg" viewBox="0 0 100 70"><style>.st0{fill:none}.st1,.st2{fill:none;stroke:#505979;stroke-width:4;stroke-linejoin:bevel;stroke-miterlimit:10}.st2{fill:#ef7171}.st3{fill:#f7ba82}.st4{fill:#ffd886}.st5{fill:none;stroke:#505979;stroke-linecap:round;stroke-linejoin:round}.st5,.st6,.st7,.st8{stroke-width:4;stroke-miterlimit:10}.st6{fill:none;stroke-linecap:round;stroke-linejoin:round;stroke:#ef7171}.st7,.st8{stroke:#505979}.st7{stroke-linecap:round;stroke-linejoin:round;fill:#505979}.st8{fill:#ef7171}.st9{fill:#b3655f}.st10{fill:#ef7171}.st11{fill:#b3655f;stroke:#505979;stroke-width:4;stroke-linecap:round;stroke-linejoin:round;stroke-miterlimit:10}.st12{fill:#fff}.st13{fill:none;stroke:#505979;stroke-width:4;stroke-linecap:round;stroke-miterlimit:10}.st14{fill:#2e75af}.st15{fill:#3892e7}.st16{fill:#505979}.st17{fill:#c7c8ca}.st18{fill:none}.st18,.st19,.st20,.st21{stroke:#505979;stroke-width:4;stroke-miterlimit:10}.st19{fill:#505979}.st20,.st21{fill:#eee;stroke-linecap:round;stroke-linejoin:round}.st21{fill:#fff}.st22{fill:#ff8282}.st23{fill:#00c349;stroke-width:4;stroke-linecap:round;stroke-linejoin:round;stroke-miterlimit:10}.st23,.st24{stroke:#028e30}.st24,.st25,.st26,.st27{stroke-width:4;stroke-linecap:round;stroke-linejoin:round;stroke-miterlimit:10}.st24{fill:#71db8a}.st25{fill:#ffd886}.st25,.st26,.st27{stroke:#505979}.st26{fill:#ef7171}.st27{fill:#3892e7}.st28{fill:#d9ebfb}.st29,.st30,.st31{stroke-miterlimit:10}.st29{fill:none;stroke:#505979;stroke-linecap:round;stroke-linejoin:round;stroke-width:2}.st30,.st31{stroke-width:4}.st30{stroke-linecap:round;stroke-linejoin:round;fill:#f7ba82;stroke:#505979}.st31{fill:#ef7171;stroke:#b3655f}.st32{fill:#fad2a1}.st33{fill:#eee}.st34,.st35{fill:#3892e7;stroke:#2e75af;stroke-width:4;stroke-linecap:round;stroke-linejoin:round;stroke-miterlimit:10}.st35{fill:#c7c8ca}</style><path class="st16" d="M49.4 34.6c0-.1 0-.2-.1-.3 0-.1-.1-.2-.2-.3-.1-.1-.2-.1-.3-.2-.1 0-.3-.1-.5-.1-.7 0-1.2.5-1.4 1.5h2.4v-.4c.1 0 .1-.1.1-.2zm0 0c0-.1 0-.2-.1-.3 0-.1-.1-.2-.2-.3-.1-.1-.2-.1-.3-.2-.1 0-.3-.1-.5-.1-.7 0-1.2.5-1.4 1.5h2.4v-.4c.1 0 .1-.1.1-.2zm0 0c0-.1 0-.2-.1-.3 0-.1-.1-.2-.2-.3-.1-.1-.2-.1-.3-.2-.1 0-.3-.1-.5-.1-.7 0-1.2.5-1.4 1.5h2.4v-.4c.1 0 .1-.1.1-.2zm0 0c0-.1 0-.2-.1-.3 0-.1-.1-.2-.2-.3-.1-.1-.2-.1-.3-.2-.1 0-.3-.1-.5-.1-.7 0-1.2.5-1.4 1.5h2.4v-.4c.1 0 .1-.1.1-.2zm-18.2 2.1c-1.2 0-1.8.4-1.8 1.2 0 .6.3.9.8.9.4 0 .8-.2 1.1-.6.3-.4.4-.9.5-1.5h-.6zm18.2-2.1c0-.1 0-.2-.1-.3 0-.1-.1-.2-.2-.3-.1-.1-.2-.1-.3-.2-.1 0-.3-.1-.5-.1-.7 0-1.2.5-1.4 1.5h2.4v-.4c.1 0 .1-.1.1-.2zm0 0c0-.1 0-.2-.1-.3 0-.1-.1-.2-.2-.3-.1-.1-.2-.1-.3-.2-.1 0-.3-.1-.5-.1-.7 0-1.2.5-1.4 1.5h2.4v-.4c.1 0 .1-.1.1-.2zm-18.2 2.1c-1.2 0-1.8.4-1.8 1.2 0 .6.3.9.8.9.4 0 .8-.2 1.1-.6.3-.4.4-.9.5-1.5h-.6zm0 0c-1.2 0-1.8.4-1.8 1.2 0 .6.3.9.8.9.4 0 .8-.2 1.1-.6.3-.4.4-.9.5-1.5h-.6zm18.2-2.1c0-.1 0-.2-.1-.3 0-.1-.1-.2-.2-.3-.1-.1-.2-.1-.3-.2-.1 0-.3-.1-.5-.1-.7 0-1.2.5-1.4 1.5h2.4v-.4c.1 0 .1-.1.1-.2zm18.1 2.1c-1.2 0-1.9.4-1.9 1.2 0 .6.3.9.8.9.4 0 .8-.2 1.1-.6.3-.4.4-.9.5-1.5h-.5zm0 0c-1.2 0-1.9.4-1.9 1.2 0 .6.3.9.8.9.4 0 .8-.2 1.1-.6.3-.4.4-.9.5-1.5h-.5zm-18.1-2.1c0-.1 0-.2-.1-.3 0-.1-.1-.2-.2-.3-.1-.1-.2-.1-.3-.2-.1 0-.3-.1-.5-.1-.7 0-1.2.5-1.4 1.5h2.4v-.4c.1 0 .1-.1.1-.2zm-18.2 2.1c-1.2 0-1.8.4-1.8 1.2 0 .6.3.9.8.9.4 0 .8-.2 1.1-.6.3-.4.4-.9.5-1.5h-.6zm51.6-12.1c-1.9-3.2-4.4-5.8-7.7-7.7-3.3-1.9-6.8-2.8-10.6-2.8-4.7 0-8.9 1.4-12.7 4.3 3.3 3 5.5 6.7 6.6 11h-1.9c-1.1-3.9-3.2-7.1-6.1-9.8-3 2.7-5 5.9-6.1 9.8h-1.9c1.1-4.3 3.3-8 6.6-11-3.8-2.8-8-4.3-12.7-4.3-3.8 0-7.4.9-10.6 2.8-3.3 1.9-5.8 4.4-7.7 7.7-1.9 3.2-2.8 6.8-2.8 10.6s.9 7.4 2.8 10.6 4.4 5.8 7.7 7.7c3.2 1.9 6.8 2.8 10.6 2.8 4.7 0 8.9-1.4 12.7-4.3-3.1-2.9-5.2-6.3-6.4-10.2h1.9c1.2 3.6 3.2 6.6 5.9 9 2.7-2.5 4.7-5.5 5.9-9h1.9c-1.2 4-3.3 7.4-6.4 10.2 3.8 2.8 8 4.3 12.7 4.3 3.8 0 7.4-1 10.6-2.8 3.2-1.9 5.8-4.5 7.7-7.7 1.9-3.2 2.8-6.8 2.8-10.6s-1-7.3-2.8-10.6zm-59 15.7l1.2-7.8-2.8 7.8h-1.5l-.2-7.8-1.3 7.8h-2.1l1.7-10.2h3.1l.1 6.3 2.1-6.3h3.4l-1.7 10.2h-2zM33.9 36c-.4 2.6-.6 4.1-.7 4.4h-1.8v-.8c-.5.7-1.3 1-2.3 1-.6 0-1.1-.2-1.5-.6-.4-.4-.6-1-.6-1.6 0-1 .3-1.8 1-2.4.7-.6 1.6-.8 2.8-.8h.9v-.5c0-.5-.5-.8-1.4-.8-.8 0-1.5.1-2.3.4 0-.1.1-.7.3-1.9 1-.3 1.9-.4 2.6-.4 1.9 0 2.9.8 2.9 2.4.3.1.2.6.1 1.6zm5.9-2c-.6-.1-1.1-.1-1.6-.1-.7 0-1.1.2-1.1.7 0 .2.1.4.2.5.1.1.4.2.8.4 1 .5 1.5 1.3 1.5 2.3 0 1.9-1.1 2.8-3.4 2.8-.9 0-1.6-.1-2.3-.2 0-.1.1-.7.3-1.9.8.2 1.4.3 2 .3.8 0 1.2-.2 1.2-.7 0-.2-.1-.3-.2-.5-.1-.1-.4-.3-.8-.5-1.1-.5-1.7-1.3-1.7-2.3 0-1.9 1.1-2.8 3.3-2.8.8 0 1.4 0 1.9.2l-.1 1.8zm4.6.1h-1.1c-.1.4-.1 1-.3 1.6-.1.6-.2 1.1-.3 1.5-.1.4-.1.6-.1.7 0 .4.3.6.7.6.2 0 .4 0 .6-.1l-.3 1.8c-.6.2-1.1.3-1.6.3-1.1 0-1.7-.6-1.8-1.8 0-.3.1-1 .3-2.2.1-.5.4-2.4 1-5.7h2.1l-.2 1.2h1.1l-.1 2.1zm6.7 2.8h-4.3c-.1.6 0 1 .4 1.3.3.3.8.4 1.5.4.8 0 1.5-.2 2.3-.5l-.3 2.1c-.8.2-1.5.3-2.2.3-2.5 0-3.7-1.2-3.7-3.7 0-1.4.3-2.6 1.1-3.5s1.6-1.4 2.7-1.4c.9 0 1.6.3 2.1.8s.8 1.3.8 2.2c-.1.6-.2 1.3-.4 2zm4.8-2.5c-.6-.1-1 .3-1.2.9-.2.7-.6 2.3-1 5h-2.2l.1-.5c.6-3.4 1-5.9 1.1-7.7h2l-.1 1.3c.4-.5.7-.9 1-1.1.3-.2.7-.3 1.1-.2-.2.5-.5 1.3-.8 2.3zm6.6 5.8c-.7.2-1.4.3-1.9.3-1.2 0-2.1-.4-2.8-1.2-.7-.8-1-1.9-1-3.2 0-1.8.5-3.3 1.4-4.4s2.1-1.7 3.5-1.7c.7 0 1.5.2 2.4.5l-.3 2.2c-.7-.4-1.4-.5-1.9-.5-.8 0-1.5.4-2 1.1-.5.7-.8 1.6-.8 2.7 0 .8.2 1.4.5 1.8.3.4.8.7 1.5.7.5 0 1.2-.2 1.9-.5l-.5 2.2zm7.7-4.2c-.3 2-.5 3.5-.7 4.4h-1.8v-.8c-.5.7-1.3 1-2.3 1-.6 0-1.1-.2-1.4-.6-.4-.4-.5-1-.5-1.6 0-1 .3-1.8 1-2.4.7-.6 1.6-.8 2.8-.8h.9c.1-.2.1-.3.1-.5 0-.5-.5-.8-1.4-.8-.8 0-1.5.1-2.3.4 0-.1.1-.7.3-1.9 1-.3 1.8-.4 2.6-.4 1.9 0 2.8.8 2.8 2.4 0 .4 0 .9-.1 1.6zm4.8-1.6c-.6-.1-1 .2-1.2.9-.2.6-.5 2.3-1 5h-2.2l.1-.5c.5-2.7.9-5.3 1.1-7.7h2c0 .3-.1.7-.2 1.3.4-.5.7-.9 1-1.1.3-.2.7-.3 1.1-.2-.3.6-.5 1.4-.7 2.3zm6.8 5.9h-2.1l.1-.7c-.6.6-1.3.9-2 .9-.8 0-1.4-.3-1.9-.9-.5-.6-.7-1.4-.7-2.5 0-1.4.4-2.6 1.1-3.6.7-1 1.5-1.5 2.5-1.5.8 0 1.5.4 2.1 1.1l.5-3h2.2l-1.8 10.2zm-2.7-6.2c-.5 0-.9.3-1.2.8-.3.5-.5 1.2-.5 2 0 1.1.4 1.6 1.1 1.6.5 0 .9-.3 1.3-.8.3-.5.5-1.2.5-2 0-1.1-.4-1.6-1.2-1.6zm-13.5 3.8c0 .6.3.9.8.9.4 0 .8-.2 1.1-.6.3-.4.4-.9.5-1.5h-.5c-1.3 0-1.9.4-1.9 1.2zm-16.3-3.6c0-.1-.1-.2-.2-.3-.1-.1-.2-.1-.3-.2-.1 0-.3-.1-.5-.1-.7 0-1.2.5-1.4 1.5h2.4V34.3zm-20 3.6c0 .6.3.9.8.9.4 0 .8-.2 1.1-.6.3-.4.4-.9.5-1.5h-.5c-1.2 0-1.9.4-1.9 1.2zm1.9-1.2c-1.2 0-1.8.4-1.8 1.2 0 .6.3.9.8.9.4 0 .8-.2 1.1-.6.3-.4.4-.9.5-1.5h-.6zm18.2-2.1c0-.1 0-.2-.1-.3 0-.1-.1-.2-.2-.3-.1-.1-.2-.1-.3-.2-.1 0-.3-.1-.5-.1-.7 0-1.2.5-1.4 1.5h2.4v-.4c.1 0 .1-.1.1-.2zm18.1 2.1c-1.2 0-1.9.4-1.9 1.2 0 .6.3.9.8.9.4 0 .8-.2 1.1-.6.3-.4.4-.9.5-1.5h-.5zm0 0c-1.2 0-1.9.4-1.9 1.2 0 .6.3.9.8.9.4 0 .8-.2 1.1-.6.3-.4.4-.9.5-1.5h-.5zm-18.1-2.1c0-.1 0-.2-.1-.3 0-.1-.1-.2-.2-.3-.1-.1-.2-.1-.3-.2-.1 0-.3-.1-.5-.1-.7 0-1.2.5-1.4 1.5h2.4v-.4c.1 0 .1-.1.1-.2zm-18.2 2.1c-1.2 0-1.8.4-1.8 1.2 0 .6.3.9.8.9.4 0 .8-.2 1.1-.6.3-.4.4-.9.5-1.5h-.6zm0 0c-1.2 0-1.8.4-1.8 1.2 0 .6.3.9.8.9.4 0 .8-.2 1.1-.6.3-.4.4-.9.5-1.5h-.6zm18.2-2.1c0-.1 0-.2-.1-.3 0-.1-.1-.2-.2-.3-.1-.1-.2-.1-.3-.2-.1 0-.3-.1-.5-.1-.7 0-1.2.5-1.4 1.5h2.4v-.4c.1 0 .1-.1.1-.2zm0 0c0-.1 0-.2-.1-.3 0-.1-.1-.2-.2-.3-.1-.1-.2-.1-.3-.2-.1 0-.3-.1-.5-.1-.7 0-1.2.5-1.4 1.5h2.4v-.4c.1 0 .1-.1.1-.2zm-18.2 2.1c-1.2 0-1.8.4-1.8 1.2 0 .6.3.9.8.9.4 0 .8-.2 1.1-.6.3-.4.4-.9.5-1.5h-.6zm18.2-2.1c0-.1 0-.2-.1-.3 0-.1-.1-.2-.2-.3-.1-.1-.2-.1-.3-.2-.1 0-.3-.1-.5-.1-.7 0-1.2.5-1.4 1.5h2.4v-.4c.1 0 .1-.1.1-.2zm0 0c0-.1 0-.2-.1-.3 0-.1-.1-.2-.2-.3-.1-.1-.2-.1-.3-.2-.1 0-.3-.1-.5-.1-.7 0-1.2.5-1.4 1.5h2.4v-.4c.1 0 .1-.1.1-.2z"/><path class="st5" d="M95 10.4V60c0 1.3-.5 2.5-1.5 3.5S91.4 65 90 65H10.6c-1.3 0-2.5-.5-3.5-1.5S5.6 61.4 5.6 60V10.4c0-1.3.5-2.5 1.5-3.5s2.1-1.5 3.5-1.5H90c1.3 0 2.5.5 3.5 1.5S95 9.1 95 10.4z"/></svg>