<svg id="Layer_1" xmlns="http://www.w3.org/2000/svg" viewBox="0 0 150 150"><style>.st0{fill:none}.st1,.st2{fill:none;stroke:#505979;stroke-width:4;stroke-linejoin:bevel;stroke-miterlimit:10}.st2{fill:#ef7171}.st3{fill:#f7ba82}.st4{fill:#ffd886}.st5{fill:none;stroke:#505979;stroke-linecap:round;stroke-linejoin:round}.st5,.st6,.st7,.st8{stroke-width:4;stroke-miterlimit:10}.st6{fill:none;stroke-linecap:round;stroke-linejoin:round;stroke:#ef7171}.st7,.st8{stroke:#505979}.st7{stroke-linecap:round;stroke-linejoin:round;fill:#505979}.st8{fill:#ef7171}.st9{fill:#b3655f}.st10{fill:#ef7171}.st11{fill:#b3655f;stroke:#505979;stroke-width:4;stroke-linecap:round;stroke-linejoin:round;stroke-miterlimit:10}.st12{fill:#fff}.st13{fill:none;stroke:#505979;stroke-width:4;stroke-linecap:round;stroke-miterlimit:10}.st14{fill:#2e75af}.st15{fill:#3892e7}.st16{fill:#505979}.st17{fill:#c7c8ca}.st18{fill:none}.st18,.st19,.st20,.st21{stroke:#505979;stroke-width:4;stroke-miterlimit:10}.st19{fill:#505979}.st20,.st21{fill:#eee;stroke-linecap:round;stroke-linejoin:round}.st21{fill:#fff}.st22{fill:#ff8282}.st23{fill:#00c349;stroke-width:4;stroke-linecap:round;stroke-linejoin:round;stroke-miterlimit:10}.st23,.st24{stroke:#028e30}.st24,.st25,.st26,.st27{stroke-width:4;stroke-linecap:round;stroke-linejoin:round;stroke-miterlimit:10}.st24{fill:#71db8a}.st25{fill:#ffd886}.st25,.st26,.st27{stroke:#505979}.st26{fill:#ef7171}.st27{fill:#3892e7}.st28{fill:#d9ebfb}.st29,.st30,.st31{stroke-miterlimit:10}.st29{fill:none;stroke:#505979;stroke-linecap:round;stroke-linejoin:round;stroke-width:2}.st30,.st31{stroke-width:4}.st30{stroke-linecap:round;stroke-linejoin:round;fill:#f7ba82;stroke:#505979}.st31{fill:#ef7171;stroke:#b3655f}.st32{fill:#fad2a1}.st33{fill:#eee}.st34,.st35{fill:#3892e7;stroke:#2e75af;stroke-width:4;stroke-linecap:round;stroke-linejoin:round;stroke-miterlimit:10}.st35{fill:#c7c8ca}</style><path class="st23" d="M20 30h100v60H20z"/><circle class="st24" cx="70" cy="65" r="25"/><path class="st24" d="M120 30v30c-16.6 0-30-13.4-30-30h30zm0 60h-20c0-11 9-20 20-20v20zM20 90V70c11 0 20 9 20 20H20zm0-60h29c0 16-13 29-29 29V30z"/><path class="st23" d="M30 40h100v60H30z"/><circle class="st24" cx="80" cy="75" r="25"/><path class="st24" d="M130 40v30c-16.6 0-30-13.4-30-30h30zm0 60h-20c0-11 9-20 20-20v20zm-100 0V80c11 0 20 9 20 20H30zm0-60h29c0 16-13 29-29 29V40z"/><path class="st23" d="M20 50h100v60H20z"/><circle class="st24" cx="70" cy="85" r="25"/><path class="st24" d="M120 50v30c-16.6 0-30-13.4-30-30h30zm0 60h-20c0-11 9-20 20-20v20zm-100 0V90c11 0 20 9 20 20H20zm0-60h29c0 16-13 29-29 29V50z"/><path class="st23" d="M30 60h100v60H30z"/><circle class="st24" cx="80" cy="95" r="25"/><path class="st24" d="M130 60v30c-16.6 0-30-13.4-30-30h30zm0 60h-20c0-11 9-20 20-20v20zm-100 0v-20c11 0 20 9 20 20H30zm0-60h29c0 16-13 29-29 29V60z"/><path class="st5" d="M70 99s2.5 6 10 6 10-6 10-6"/><g><circle class="st16" cx="90" cy="90" r="5"/><path class="st12" d="M92.5 88.8c0 .7-.6 1.3-1.3 1.3-.2 0-.4 0-.5-.1-.4-.2-.7-.6-.7-1.1 0-.7.6-1.3 1.3-1.3.5 0 1 .3 1.1.7.1.1.1.3.1.5z"/></g><g><circle class="st16" cx="70" cy="90" r="5"/><path class="st12" d="M72.5 88.8c0 .7-.6 1.3-1.3 1.3-.2 0-.4 0-.5-.1-.4-.2-.7-.6-.7-1.1 0-.7.6-1.3 1.3-1.3.5 0 1 .3 1.1.7.1.1.1.3.1.5z"/></g></svg>