<svg id="Layer_1" xmlns="http://www.w3.org/2000/svg" viewBox="0 0 100 70"><style>.st0{fill:none}.st1,.st2{fill:none;stroke:#505979;stroke-width:4;stroke-linejoin:bevel;stroke-miterlimit:10}.st2{fill:#ef7171}.st3{fill:#f7ba82}.st4{fill:#ffd886}.st5{fill:none;stroke:#505979;stroke-linecap:round;stroke-linejoin:round}.st5,.st6,.st7,.st8{stroke-width:4;stroke-miterlimit:10}.st6{fill:none;stroke-linecap:round;stroke-linejoin:round;stroke:#ef7171}.st7,.st8{stroke:#505979}.st7{stroke-linecap:round;stroke-linejoin:round;fill:#505979}.st8{fill:#ef7171}.st9{fill:#b3655f}.st10{fill:#ef7171}.st11{fill:#b3655f;stroke:#505979;stroke-width:4;stroke-linecap:round;stroke-linejoin:round;stroke-miterlimit:10}.st12{fill:#fff}.st13{fill:none;stroke:#505979;stroke-width:4;stroke-linecap:round;stroke-miterlimit:10}.st14{fill:#2e75af}.st15{fill:#3892e7}.st16{fill:#505979}.st17{fill:#c7c8ca}.st18{fill:none}.st18,.st19,.st20,.st21{stroke:#505979;stroke-width:4;stroke-miterlimit:10}.st19{fill:#505979}.st20,.st21{fill:#eee;stroke-linecap:round;stroke-linejoin:round}.st21{fill:#fff}.st22{fill:#ff8282}.st23{fill:#00c349;stroke-width:4;stroke-linecap:round;stroke-linejoin:round;stroke-miterlimit:10}.st23,.st24{stroke:#028e30}.st24,.st25,.st26,.st27{stroke-width:4;stroke-linecap:round;stroke-linejoin:round;stroke-miterlimit:10}.st24{fill:#71db8a}.st25{fill:#ffd886}.st25,.st26,.st27{stroke:#505979}.st26{fill:#ef7171}.st27{fill:#3892e7}.st28{fill:#d9ebfb}.st29,.st30,.st31{stroke-miterlimit:10}.st29{fill:none;stroke:#505979;stroke-linecap:round;stroke-linejoin:round;stroke-width:2}.st30,.st31{stroke-width:4}.st30{stroke-linecap:round;stroke-linejoin:round;fill:#f7ba82;stroke:#505979}.st31{fill:#ef7171;stroke:#b3655f}.st32{fill:#fad2a1}.st33{fill:#eee}.st34,.st35{fill:#3892e7;stroke:#2e75af;stroke-width:4;stroke-linecap:round;stroke-linejoin:round;stroke-miterlimit:10}.st35{fill:#c7c8ca}</style><path class="st5" d="M94.3 10v49.6c0 1.3-.5 2.5-1.5 3.5s-2.1 1.5-3.5 1.5H10c-1.3 0-2.5-.5-3.5-1.5S5 61 5 59.6V10c0-1.3.5-2.5 1.5-3.5S8.6 5 10 5h79.4c1.3 0 2.5.5 3.5 1.5s1.4 2.1 1.4 3.5z"/><path class="st16" d="M23.4 25.2c-1-.7-2.3-1-3.9-1h-6.2c-.5 0-.8.3-.8.7L10 40.8c0 .2 0 .3.1.4.1.1.2.2.4.2h3c.5 0 .8-.2.8-.7l.7-4.3c0-.2.1-.4.3-.5.2-.1.3-.2.6-.3h1.9c2.2 0 4-.6 5.2-1.9 1.3-1.3 1.9-3 1.9-5.2 0-1.5-.5-2.6-1.5-3.3zM20.2 30c-.1.9-.5 1.5-1 1.8-.5.3-1.3.4-2.3.4h-1.3l.7-4.1c0-.3.2-.4.5-.4h.7c1 0 1.8.1 2.3.4.4.3.6.9.4 1.9zm18.1.1c-.1-.1-.2-.2-.4-.2h-3c-.4 0-.6.4-.7 1.3-.7-1-1.9-1.6-3.7-1.6-1.9 0-3.5.7-4.8 2.1-1.3 1.4-2 3-2 4.9 0 1.5.4 2.7 1.3 3.6.9.9 2.1 1.4 3.6 1.4.7 0 1.5-.2 2.3-.5.8-.3 1.4-.7 1.9-1.2-.1.3-.2.6-.2.8 0 .4.2.6.5.6H36c.5 0 .8-.2.9-.7l1.6-10.1c0-.1 0-.3-.2-.4zm-5.4 7.4c-.7.6-1.5 1-2.4 1-.8 0-1.3-.2-1.8-.6-.5-.4-.7-1-.7-1.7 0-1 .3-1.8 1-2.4.7-.7 1.5-1 2.4-1 .7 0 1.3.2 1.8.6.5.4.7 1 .7 1.8 0 .9-.3 1.7-1 2.3zm21.3-7.1c0-.1-.1-.3-.2-.4-.1-.1-.2-.2-.4-.2h-3c-.3 0-.5.1-.7.4l-4.1 6-1.7-5.8c-.1-.4-.4-.6-.9-.6h-2.9c-.1 0-.2.1-.4.2-.1.1-.2.2-.2.4 0 .1.3.8.8 2.3.5 1.5 1 3.1 1.6 4.8.6 1.7.9 2.6.9 2.7-2.1 2.9-3.2 4.4-3.2 4.7 0 .3.2.5.5.5h3c.3 0 .5-.1.7-.4l9.9-14.3c.3 0 .3-.1.3-.3zm13.3-5.2c-1-.7-2.3-1-3.9-1h-6.2c-.5 0-.8.3-.8.7L54 40.8c0 .2 0 .3.1.4.1.1.2.2.4.2h3.2c.3 0 .5-.2.6-.5l.7-4.5c0-.2.1-.4.3-.5.2-.1.3-.2.6-.3h1.9c2.2 0 4-.6 5.2-1.9 1.3-1.3 1.9-3 1.9-5.2 0-1.5-.5-2.6-1.4-3.3zm-4 6.4c-.6.4-1.4.6-2.6.6h-1.2l.7-4.1c0-.3.2-.4.5-.4h.7c.6 0 1 0 1.4.1.3.1.7.2 1 .5.3.3.5.7.5 1.2-.2 1-.5 1.7-1 2.1zm18.9-1.5c-.1-.1-.2-.2-.4-.2h-3c-.4 0-.6.4-.7 1.3-.7-1-1.9-1.6-3.7-1.6-1.9 0-3.5.7-4.8 2.1-1.3 1.4-2 3-2 4.9 0 1.5.5 2.7 1.3 3.6.9.9 2.1 1.4 3.6 1.4.8 0 1.5-.2 2.3-.5.8-.3 1.4-.7 1.8-1.2 0 0 0 .1-.1.3s-.1.4-.1.5c0 .4.2.6.5.6h2.7c.5 0 .8-.2.9-.7l1.6-10.1c.2-.1.2-.3.1-.4zM77 37.5c-.7.7-1.5 1-2.4 1-.8 0-1.3-.2-1.8-.6-.5-.4-.7-1-.7-1.7 0-1 .3-1.8 1-2.4.7-.7 1.5-1 2.4-1 .7 0 1.3.2 1.8.6.5.4.7 1 .7 1.8-.1.9-.4 1.7-1 2.3zm12.4-12.7c0-.4-.2-.6-.5-.6H86c-.3 0-.5.1-.5.4L83 40.8v.1c0 .1.1.3.2.4.1.1.2.2.4.2H86c.5 0 .8-.2.8-.7l2.6-16z"/></svg>