<svg id="Layer_1" xmlns="http://www.w3.org/2000/svg" viewBox="0 0 150 150"><style>.st0{fill:none}.st1,.st2{fill:none;stroke:#505979;stroke-width:4;stroke-linejoin:bevel;stroke-miterlimit:10}.st2{fill:#ef7171}.st3{fill:#f7ba82}.st4{fill:#ffd886}.st5{fill:none;stroke:#505979;stroke-linecap:round;stroke-linejoin:round}.st5,.st6,.st7,.st8{stroke-width:4;stroke-miterlimit:10}.st6{fill:none;stroke-linecap:round;stroke-linejoin:round;stroke:#ef7171}.st7,.st8{stroke:#505979}.st7{stroke-linecap:round;stroke-linejoin:round;fill:#505979}.st8{fill:#ef7171}.st9{fill:#b3655f}.st10{fill:#ef7171}.st11{fill:#b3655f;stroke:#505979;stroke-width:4;stroke-linecap:round;stroke-linejoin:round;stroke-miterlimit:10}.st12{fill:#fff}.st13{fill:none;stroke:#505979;stroke-width:4;stroke-linecap:round;stroke-miterlimit:10}.st14{fill:#2e75af}.st15{fill:#3892e7}.st16{fill:#505979}.st17{fill:#c7c8ca}.st18{fill:none}.st18,.st19,.st20,.st21{stroke:#505979;stroke-width:4;stroke-miterlimit:10}.st19{fill:#505979}.st20,.st21{fill:#eee;stroke-linecap:round;stroke-linejoin:round}.st21{fill:#fff}.st22{fill:#ff8282}.st23{fill:#00c349;stroke-width:4;stroke-linecap:round;stroke-linejoin:round;stroke-miterlimit:10}.st23,.st24{stroke:#028e30}.st24,.st25,.st26,.st27{stroke-width:4;stroke-linecap:round;stroke-linejoin:round;stroke-miterlimit:10}.st24{fill:#71db8a}.st25{fill:#ffd886}.st25,.st26,.st27{stroke:#505979}.st26{fill:#ef7171}.st27{fill:#3892e7}.st28{fill:#d9ebfb}.st29,.st30,.st31{stroke-miterlimit:10}.st29{fill:none;stroke:#505979;stroke-linecap:round;stroke-linejoin:round;stroke-width:2}.st30,.st31{stroke-width:4}.st30{stroke-linecap:round;stroke-linejoin:round;fill:#f7ba82;stroke:#505979}.st31{fill:#ef7171;stroke:#b3655f}.st32{fill:#fad2a1}.st33{fill:#eee}.st34,.st35{fill:#3892e7;stroke:#2e75af;stroke-width:4;stroke-linecap:round;stroke-linejoin:round;stroke-miterlimit:10}.st35{fill:#c7c8ca}</style><path class="st10" d="M58.6 132.7l-7.7-8.1-11.1 1.2 8.5-23.5 18.8 6.9zm49.9-8.8l-11.2-.3-6.9 8.7-10.6-22.6 18.1-8.5z"/><path class="st31" d="M78.8 20.6c.6 3.7 5.6 4.5 7.3 1.2 2-3.9 8-2 7.3 2.4-.6 3.7 3.9 6 6.6 3.3 3.1-3.1 8.2.6 6.2 4.5-1.7 3.3 1.9 6.9 5.2 5.2 3.9-2 7.6 3.1 4.5 6.2-2.7 2.6-.4 7.2 3.3 6.6 4.4-.7 6.3 5.3 2.4 7.3-3.4 1.7-2.6 6.7 1.2 7.3 4.4.7 4.4 7 0 7.6-3.7.6-4.5 5.6-1.2 7.3 3.9 2 2 8-2.4 7.3-3.7-.6-6 3.9-3.3 6.6 3.1 3.1-.6 8.2-4.5 6.2-3.3-1.7-6.9 1.9-5.2 5.2 2 3.9-3.1 7.6-6.2 4.5-2.6-2.7-7.2-.4-6.6 3.3.7 4.4-5.3 6.3-7.3 2.4-1.7-3.4-6.7-2.6-7.3 1.2-.7 4.4-7 4.4-7.6 0-.6-3.7-5.6-4.5-7.3-1.2-2 3.9-8 2-7.3-2.4.6-3.7-3.9-6-6.6-3.3-3.1 3.1-8.2-.6-6.2-4.5 1.7-3.3-1.9-6.9-5.2-5.2-3.9 2-7.6-3.1-4.5-6.2 2.7-2.6.4-7.2-3.3-6.6-4.4.7-6.3-5.3-2.4-7.3 3.4-1.7 2.6-6.7-1.2-7.3-4.4-.7-4.4-7 0-7.6 3.7-.6 4.5-5.6 1.2-7.3-3.9-2-2-8 2.4-7.3 3.7.6 6-3.9 3.3-6.6-3.1-3.1.6-8.2 4.5-6.2 3.3 1.7 6.9-1.9 5.2-5.2-2-3.9 3.1-7.6 6.2-4.5 2.6 2.7 7.2.4 6.6-3.3-.7-4.4 5.3-6.3 7.3-2.4 1.7 3.4 6.7 2.6 7.3-1.2.7-4.4 6.9-4.4 7.6 0z"/><circle class="st4" cx="74.8" cy="68" r="35"/><path class="st5" d="M49.8 69s2-1 5-1c3.1 0 5 1 5 1m30 0s2-1 5-1c3.1 0 5 1 5 1"/><path class="st13" d="M64.8 77s2.5 6 10 6 10-6 10-6"/></svg>