<svg id="Layer_1" xmlns="http://www.w3.org/2000/svg" viewBox="0 0 150 150"><style>.st0{fill:none}.st1,.st2{fill:none;stroke:#505979;stroke-width:4;stroke-linejoin:bevel;stroke-miterlimit:10}.st2{fill:#ef7171}.st3{fill:#f7ba82}.st4{fill:#ffd886}.st5{fill:none;stroke:#505979;stroke-linecap:round;stroke-linejoin:round}.st5,.st6,.st7,.st8{stroke-width:4;stroke-miterlimit:10}.st6{fill:none;stroke-linecap:round;stroke-linejoin:round;stroke:#ef7171}.st7,.st8{stroke:#505979}.st7{stroke-linecap:round;stroke-linejoin:round;fill:#505979}.st8{fill:#ef7171}.st9{fill:#b3655f}.st10{fill:#ef7171}.st11{fill:#b3655f;stroke:#505979;stroke-width:4;stroke-linecap:round;stroke-linejoin:round;stroke-miterlimit:10}.st12{fill:#fff}.st13{fill:none;stroke:#505979;stroke-width:4;stroke-linecap:round;stroke-miterlimit:10}.st14{fill:#2e75af}.st15{fill:#3892e7}.st16{fill:#505979}.st17{fill:#c7c8ca}.st18{fill:none}.st18,.st19,.st20,.st21{stroke:#505979;stroke-width:4;stroke-miterlimit:10}.st19{fill:#505979}.st20,.st21{fill:#eee;stroke-linecap:round;stroke-linejoin:round}.st21{fill:#fff}.st22{fill:#ff8282}.st23{fill:#00c349;stroke-width:4;stroke-linecap:round;stroke-linejoin:round;stroke-miterlimit:10}.st23,.st24{stroke:#028e30}.st24,.st25,.st26,.st27{stroke-width:4;stroke-linecap:round;stroke-linejoin:round;stroke-miterlimit:10}.st24{fill:#71db8a}.st25{fill:#ffd886}.st25,.st26,.st27{stroke:#505979}.st26{fill:#ef7171}.st27{fill:#3892e7}.st28{fill:#d9ebfb}.st29,.st30,.st31{stroke-miterlimit:10}.st29{fill:none;stroke:#505979;stroke-linecap:round;stroke-linejoin:round;stroke-width:2}.st30,.st31{stroke-width:4}.st30{stroke-linecap:round;stroke-linejoin:round;fill:#f7ba82;stroke:#505979}.st31{fill:#ef7171;stroke:#b3655f}.st32{fill:#fad2a1}.st33{fill:#eee}.st34,.st35{fill:#3892e7;stroke:#2e75af;stroke-width:4;stroke-linecap:round;stroke-linejoin:round;stroke-miterlimit:10}.st35{fill:#c7c8ca}</style><path class="st9" d="M105 100c0 3-3.9 5.7-10.2 7.5-5.3 1.6-12.2 2.5-19.8 2.5s-14.5-.9-19.8-2.5C48.9 105.7 45 103 45 100c0-5.5 13.4-10 30-10s30 4.5 30 10z"/><path class="st10" d="M73 106c-7.1 0-14-.9-19.3-2.4-6-1.8-8.7-4.1-8.7-5.6 0-3.3 10.9-8 28-8s28 4.7 28 8c0 1.5-2.7 3.8-8.7 5.6C87 105.1 80.1 106 73 106z"/><path class="st5" d="M105 100c0 3-3.9 5.7-10.2 7.5-5.3 1.6-12.2 2.5-19.8 2.5s-14.5-.9-19.8-2.5C48.9 105.7 45 103 45 100c0-5.5 13.4-10 30-10s30 4.5 30 10z"/><path class="st11" d="M105 100v20c0 5.5-13.4 10-30 10s-30-4.5-30-10v-20c0 3 3.9 5.7 10.2 7.5 5.3 1.6 12.2 2.5 19.8 2.5s14.5-.9 19.8-2.5c6.3-1.8 10.2-4.5 10.2-7.5z"/><path class="st10" d="M140 4c3.3 0 6 2.7 6 6v130c0 3.3-2.7 6-6 6H10c-3.3 0-6-2.7-6-6V10c0-3.3 2.7-6 6-6h130m0-4H10C4.5 0 0 4.5 0 10v130c0 5.5 4.5 10 10 10h130c5.5 0 10-4.5 10-10V10c0-5.5-4.5-10-10-10z"/></svg>