<svg id="Layer_1" xmlns="http://www.w3.org/2000/svg" viewBox="0 0 150 150"><style>.st0{fill:none}.st1,.st2{fill:none;stroke:#505979;stroke-width:4;stroke-linejoin:bevel;stroke-miterlimit:10}.st2{fill:#ef7171}.st3{fill:#f7ba82}.st4{fill:#ffd886}.st5{fill:none;stroke:#505979;stroke-linecap:round;stroke-linejoin:round}.st5,.st6,.st7,.st8{stroke-width:4;stroke-miterlimit:10}.st6{fill:none;stroke-linecap:round;stroke-linejoin:round;stroke:#ef7171}.st7,.st8{stroke:#505979}.st7{stroke-linecap:round;stroke-linejoin:round;fill:#505979}.st8{fill:#ef7171}.st9{fill:#b3655f}.st10{fill:#ef7171}.st11{fill:#b3655f;stroke:#505979;stroke-width:4;stroke-linecap:round;stroke-linejoin:round;stroke-miterlimit:10}.st12{fill:#fff}.st13{fill:none;stroke:#505979;stroke-width:4;stroke-linecap:round;stroke-miterlimit:10}.st14{fill:#2e75af}.st15{fill:#3892e7}.st16{fill:#505979}.st17{fill:#c7c8ca}.st18{fill:none}.st18,.st19,.st20,.st21{stroke:#505979;stroke-width:4;stroke-miterlimit:10}.st19{fill:#505979}.st20,.st21{fill:#eee;stroke-linecap:round;stroke-linejoin:round}.st21{fill:#fff}.st22{fill:#ff8282}.st23{fill:#00c349;stroke-width:4;stroke-linecap:round;stroke-linejoin:round;stroke-miterlimit:10}.st23,.st24{stroke:#028e30}.st24,.st25,.st26,.st27{stroke-width:4;stroke-linecap:round;stroke-linejoin:round;stroke-miterlimit:10}.st24{fill:#71db8a}.st25{fill:#ffd886}.st25,.st26,.st27{stroke:#505979}.st26{fill:#ef7171}.st27{fill:#3892e7}.st28{fill:#d9ebfb}.st29,.st30,.st31{stroke-miterlimit:10}.st29{fill:none;stroke:#505979;stroke-linecap:round;stroke-linejoin:round;stroke-width:2}.st30,.st31{stroke-width:4}.st30{stroke-linecap:round;stroke-linejoin:round;fill:#f7ba82;stroke:#505979}.st31{fill:#ef7171;stroke:#b3655f}.st32{fill:#fad2a1}.st33{fill:#eee}.st34,.st35{fill:#3892e7;stroke:#2e75af;stroke-width:4;stroke-linecap:round;stroke-linejoin:round;stroke-miterlimit:10}.st35{fill:#c7c8ca}</style><circle class="st3" cx="74.9" cy="80" r="45"/><path class="st4" d="M74.9 120c-23.2 0-42-18.8-42-42s18.8-42 42-42 42 18.8 42 42-18.8 42-42 42z"/><circle class="st5" cx="74.9" cy="80" r="45"/><path class="st5" d="M29.9 65c0-25.5 19.5-45 45-45s45 19.5 45 45m0 30c0 11.3-.3 35-15 35"/><path class="st7" d="M99.9 90c0 8.5-3 16.8-10.4 21.4-3.7 2.3-8.5 3.6-14.5 3.6-6.1 0-10.9-1.3-14.6-3.6C52.9 106.9 50 98.5 50 90h49.9zM15.1 80C15.1 65.4 30 65 30 65v30c-.1 0-14.9-.6-14.9-15zm119.8 0c0 14.6-14.9 15-14.9 15V65c.1 0 14.9.6 14.9 15z"/><path class="st8" d="M89.5 111.4C85.8 113.7 81 115 75 115c-6.1 0-10.9-1.3-14.6-3.6 1.6-6.5 7.5-6.4 14.6-6.4 7 0 12.9-.2 14.5 6.4z"/><circle class="st16" cx="99.9" cy="69" r="10"/><path class="st12" d="M104.9 66.5c0 1.4-1.1 2.5-2.5 2.5-.4 0-.7-.1-1-.2-.9-.4-1.5-1.3-1.5-2.3 0-1.4 1.1-2.5 2.5-2.5 1 0 1.9.6 2.3 1.5.2.3.2.6.2 1z"/><path class="st5" d="M94.9 80s-.2-1 5-1 5 1 5 1"/><g><circle class="st16" cx="49.9" cy="69" r="10"/><path class="st12" d="M54.9 66.5c0 1.4-1.1 2.5-2.5 2.5-.4 0-.7-.1-1-.2-.9-.4-1.5-1.3-1.5-2.3 0-1.4 1.1-2.5 2.5-2.5 1 0 1.9.6 2.3 1.5.2.3.2.6.2 1z"/><path class="st5" d="M44.9 80s-.2-1 5-1 5 1 5 1"/></g></svg>