<svg id="Layer_1" xmlns="http://www.w3.org/2000/svg" viewBox="0 0 150 150"><style>.st0{fill:none}.st1,.st2{fill:none;stroke:#505979;stroke-width:4;stroke-linejoin:bevel;stroke-miterlimit:10}.st2{fill:#ef7171}.st3{fill:#f7ba82}.st4{fill:#ffd886}.st5{fill:none;stroke:#505979;stroke-linecap:round;stroke-linejoin:round}.st5,.st6,.st7,.st8{stroke-width:4;stroke-miterlimit:10}.st6{fill:none;stroke-linecap:round;stroke-linejoin:round;stroke:#ef7171}.st7,.st8{stroke:#505979}.st7{stroke-linecap:round;stroke-linejoin:round;fill:#505979}.st8{fill:#ef7171}.st9{fill:#b3655f}.st10{fill:#ef7171}.st11{fill:#b3655f;stroke:#505979;stroke-width:4;stroke-linecap:round;stroke-linejoin:round;stroke-miterlimit:10}.st12{fill:#fff}.st13{fill:none;stroke:#505979;stroke-width:4;stroke-linecap:round;stroke-miterlimit:10}.st14{fill:#2e75af}.st15{fill:#3892e7}.st16{fill:#505979}.st17{fill:#c7c8ca}.st18{fill:none}.st18,.st19,.st20,.st21{stroke:#505979;stroke-width:4;stroke-miterlimit:10}.st19{fill:#505979}.st20,.st21{fill:#eee;stroke-linecap:round;stroke-linejoin:round}.st21{fill:#fff}.st22{fill:#ff8282}.st23{fill:#00c349;stroke-width:4;stroke-linecap:round;stroke-linejoin:round;stroke-miterlimit:10}.st23,.st24{stroke:#028e30}.st24,.st25,.st26,.st27{stroke-width:4;stroke-linecap:round;stroke-linejoin:round;stroke-miterlimit:10}.st24{fill:#71db8a}.st25{fill:#ffd886}.st25,.st26,.st27{stroke:#505979}.st26{fill:#ef7171}.st27{fill:#3892e7}.st28{fill:#d9ebfb}.st29,.st30,.st31{stroke-miterlimit:10}.st29{fill:none;stroke:#505979;stroke-linecap:round;stroke-linejoin:round;stroke-width:2}.st30,.st31{stroke-width:4}.st30{stroke-linecap:round;stroke-linejoin:round;fill:#f7ba82;stroke:#505979}.st31{fill:#ef7171;stroke:#b3655f}.st32{fill:#fad2a1}.st33{fill:#eee}.st34,.st35{fill:#3892e7;stroke:#2e75af;stroke-width:4;stroke-linecap:round;stroke-linejoin:round;stroke-miterlimit:10}.st35{fill:#c7c8ca}</style><path class="st20" d="M45 60H15V15h20l10 10zm90 0h-30V15h20l10 10zm-90 75H15V90h20l10 10zm90 0h-30V90h20l10 10z"/><path class="st9" d="M95 105H55V50h25l15 15z"/><path class="st10" d="M55 101V50h22.2L91 63.8V101z"/><path class="st5" d="M95 105H55V50h25l15 15z"/><path class="st13" d="M80 85s-.9 3-5 3c-3.8 0-5-3-5-3"/><path class="st16" d="M70 75c0 1.4-1.1 2.5-2.5 2.5S65 76.4 65 75s1.1-2.5 2.5-2.5S70 73.6 70 75c0-2.8-2.2-5-5-5s-5 2.2-5 5 2.2 5 5 5 5-2.2 5-5zm-7.5-1.2c0-.7.6-1.3 1.3-1.3s1.3.6 1.3 1.3-.7 1.2-1.3 1.2-1.3-.6-1.3-1.2z"/><circle class="st12" cx="63.8" cy="73.8" r="1.2"/><circle class="st12" cx="67.5" cy="75" r="2.5"/><path class="st16" d="M90 75c0 1.4-1.1 2.5-2.5 2.5S85 76.4 85 75s1.1-2.5 2.5-2.5S90 73.6 90 75c0-2.8-2.2-5-5-5s-5 2.2-5 5 2.2 5 5 5 5-2.2 5-5zm-7.5-1.2c0-.7.6-1.3 1.3-1.3s1.3.6 1.3 1.3-.7 1.2-1.3 1.2-1.3-.6-1.3-1.2z"/><circle class="st12" cx="83.8" cy="73.8" r="1.2"/><circle class="st12" cx="87.5" cy="75" r="2.5"/><path class="st16" d="M115 112.5v.2c-.1 1.3-1.2 2.3-2.5 2.3-1.4 0-2.5-1.1-2.5-2.5s1.1-2.5 2.5-2.5c1.3 0 2.4 1 2.5 2.3v.2zm15 0v.2c-.1 1.3-1.2 2.3-2.5 2.3-1.4 0-2.5-1.1-2.5-2.5s1.1-2.5 2.5-2.5c1.3 0 2.4 1 2.5 2.3v.2z"/><path class="st5" d="M125 125h-10"/><path class="st16" d="M115 37.5v.2c-.1 1.3-1.2 2.3-2.5 2.3-1.4 0-2.5-1.1-2.5-2.5s1.1-2.5 2.5-2.5c1.3 0 2.4 1 2.5 2.3v.2zm15 0v.2c-.1 1.3-1.2 2.3-2.5 2.3-1.4 0-2.5-1.1-2.5-2.5s1.1-2.5 2.5-2.5c1.3 0 2.4 1 2.5 2.3v.2z"/><path class="st5" d="M125 50h-10"/><path class="st16" d="M25 112.5v.2c-.1 1.3-1.2 2.3-2.5 2.3-1.4 0-2.5-1.1-2.5-2.5s1.1-2.5 2.5-2.5c1.3 0 2.4 1 2.5 2.3v.2zm15 0v.2c-.1 1.3-1.2 2.3-2.5 2.3-1.4 0-2.5-1.1-2.5-2.5s1.1-2.5 2.5-2.5c1.3 0 2.4 1 2.5 2.3v.2z"/><path class="st5" d="M35 125H25"/><g><path class="st16" d="M25 37.5v.2c-.1 1.3-1.2 2.3-2.5 2.3-1.4 0-2.5-1.1-2.5-2.5s1.1-2.5 2.5-2.5c1.3 0 2.4 1 2.5 2.3v.2zm15 0v.2c-.1 1.3-1.2 2.3-2.5 2.3-1.4 0-2.5-1.1-2.5-2.5s1.1-2.5 2.5-2.5c1.3 0 2.4 1 2.5 2.3v.2z"/><path class="st5" d="M35 50H25"/></g><path class="st21" d="M45 25H35V15zm90 0h-10V15zm-90 75H35V90zm90 0h-10V90zM80 65h15L80 50z"/></svg>