<svg id="Layer_1" xmlns="http://www.w3.org/2000/svg" viewBox="0 0 100 70"><style>.st0{fill:none}.st1,.st2{fill:none;stroke:#505979;stroke-width:4;stroke-linejoin:bevel;stroke-miterlimit:10}.st2{fill:#ef7171}.st3{fill:#f7ba82}.st4{fill:#ffd886}.st5{fill:none;stroke:#505979;stroke-linecap:round;stroke-linejoin:round}.st5,.st6,.st7,.st8{stroke-width:4;stroke-miterlimit:10}.st6{fill:none;stroke-linecap:round;stroke-linejoin:round;stroke:#ef7171}.st7,.st8{stroke:#505979}.st7{stroke-linecap:round;stroke-linejoin:round;fill:#505979}.st8{fill:#ef7171}.st9{fill:#b3655f}.st10{fill:#ef7171}.st11{fill:#b3655f;stroke:#505979;stroke-width:4;stroke-linecap:round;stroke-linejoin:round;stroke-miterlimit:10}.st12{fill:#fff}.st13{fill:none;stroke:#505979;stroke-width:4;stroke-linecap:round;stroke-miterlimit:10}.st14{fill:#2e75af}.st15{fill:#3892e7}.st16{fill:#505979}.st17{fill:#c7c8ca}.st18{fill:none}.st18,.st19,.st20,.st21{stroke:#505979;stroke-width:4;stroke-miterlimit:10}.st19{fill:#505979}.st20,.st21{fill:#eee;stroke-linecap:round;stroke-linejoin:round}.st21{fill:#fff}.st22{fill:#ff8282}.st23{fill:#00c349;stroke-width:4;stroke-linecap:round;stroke-linejoin:round;stroke-miterlimit:10}.st23,.st24{stroke:#028e30}.st24,.st25,.st26,.st27{stroke-width:4;stroke-linecap:round;stroke-linejoin:round;stroke-miterlimit:10}.st24{fill:#71db8a}.st25{fill:#ffd886}.st25,.st26,.st27{stroke:#505979}.st26{fill:#ef7171}.st27{fill:#3892e7}.st28{fill:#d9ebfb}.st29,.st30,.st31{stroke-miterlimit:10}.st29{fill:none;stroke:#505979;stroke-linecap:round;stroke-linejoin:round;stroke-width:2}.st30,.st31{stroke-width:4}.st30{stroke-linecap:round;stroke-linejoin:round;fill:#f7ba82;stroke:#505979}.st31{fill:#ef7171;stroke:#b3655f}.st32{fill:#fad2a1}.st33{fill:#eee}.st34,.st35{fill:#3892e7;stroke:#2e75af;stroke-width:4;stroke-linecap:round;stroke-linejoin:round;stroke-miterlimit:10}.st35{fill:#c7c8ca}</style><path class="st16" d="M26.2 35.9L24 24.5c-.3-1.4-1.3-2.1-2.9-2.1H10.7l-.1.5c8.1 2 13.3 6.4 15.6 13z"/><path class="st16" d="M33.2 22.4l-6.3 17-.7-3.5c-.7-1.8-1.8-3.5-3.3-5-1.5-1.5-3.2-2.7-5.1-3.4L23 47.3h6.8L40 22.4h-6.8zm5.4 24.9H45l4-24.9h-6.4zM68.4 23c-1.8-.7-3.7-1-5.8-1-3.2 0-5.8.8-7.8 2.3-2 1.5-3 3.5-3.1 5.9 0 2.6 1.8 4.9 5.6 6.7 1.2.6 2.1 1.1 2.6 1.6s.7 1 .7 1.5c0 .8-.4 1.4-1.2 1.8-.8.4-1.7.6-2.7.6-2.2 0-4.2-.4-6.1-1.3l-.9-.4-.7 5.6c1.9.9 4.3 1.3 7.2 1.3 3.4 0 6.1-.7 8.1-2.3 2-1.6 3.1-3.6 3.1-6.2 0-2.7-1.8-5-5.4-6.7-1.3-.6-2.2-1.2-2.8-1.6-.6-.4-.9-.9-.9-1.5s.3-1.1 1-1.5c.6-.4 1.5-.6 2.7-.6 1.8 0 3.4.3 4.8.9l.6.3 1-5.4zm16.4-.6h-5c-1.7 0-2.8.7-3.4 2.1L67 47.3h6.8l1.4-3.7h8.2c.1.6.4 1.8.8 3.7h6l-5.4-24.9zm-7.9 16c.4-1 1.2-3.3 2.6-6.9l.1-.4c.1-.3.2-.6.4-1s.3-.8.3-1l.5 2.1 1.5 7.2h-5.4z"/><path class="st5" d="M95 10v49.6c0 1.3-.5 2.5-1.5 3.5s-2.1 1.5-3.5 1.5H10.6c-1.3 0-2.5-.5-3.5-1.5S5.6 61 5.6 59.6V10c0-1.3.5-2.5 1.5-3.5S9.2 5 10.6 5H90c1.3 0 2.5.5 3.5 1.5S95 8.6 95 10z"/></svg>