<svg id="Layer_1" xmlns="http://www.w3.org/2000/svg" viewBox="0 0 150 150"><style>.st0{fill:none}.st1,.st2{fill:none;stroke:#505979;stroke-width:4;stroke-linejoin:bevel;stroke-miterlimit:10}.st2{fill:#ef7171}.st3{fill:#f7ba82}.st4{fill:#ffd886}.st5{fill:none;stroke:#505979;stroke-linecap:round;stroke-linejoin:round}.st5,.st6,.st7,.st8{stroke-width:4;stroke-miterlimit:10}.st6{fill:none;stroke-linecap:round;stroke-linejoin:round;stroke:#ef7171}.st7,.st8{stroke:#505979}.st7{stroke-linecap:round;stroke-linejoin:round;fill:#505979}.st8{fill:#ef7171}.st9{fill:#b3655f}.st10{fill:#ef7171}.st11{fill:#b3655f;stroke:#505979;stroke-width:4;stroke-linecap:round;stroke-linejoin:round;stroke-miterlimit:10}.st12{fill:#fff}.st13{fill:none;stroke:#505979;stroke-width:4;stroke-linecap:round;stroke-miterlimit:10}.st14{fill:#2e75af}.st15{fill:#3892e7}.st16{fill:#505979}.st17{fill:#c7c8ca}.st18{fill:none}.st18,.st19,.st20,.st21{stroke:#505979;stroke-width:4;stroke-miterlimit:10}.st19{fill:#505979}.st20,.st21{fill:#eee;stroke-linecap:round;stroke-linejoin:round}.st21{fill:#fff}.st22{fill:#ff8282}.st23{fill:#00c349;stroke-width:4;stroke-linecap:round;stroke-linejoin:round;stroke-miterlimit:10}.st23,.st24{stroke:#028e30}.st24,.st25,.st26,.st27{stroke-width:4;stroke-linecap:round;stroke-linejoin:round;stroke-miterlimit:10}.st24{fill:#71db8a}.st25{fill:#ffd886}.st25,.st26,.st27{stroke:#505979}.st26{fill:#ef7171}.st27{fill:#3892e7}.st28{fill:#d9ebfb}.st29,.st30,.st31{stroke-miterlimit:10}.st29{fill:none;stroke:#505979;stroke-linecap:round;stroke-linejoin:round;stroke-width:2}.st30,.st31{stroke-width:4}.st30{stroke-linecap:round;stroke-linejoin:round;fill:#f7ba82;stroke:#505979}.st31{fill:#ef7171;stroke:#b3655f}.st32{fill:#fad2a1}.st33{fill:#eee}.st34,.st35{fill:#3892e7;stroke:#2e75af;stroke-width:4;stroke-linecap:round;stroke-linejoin:round;stroke-miterlimit:10}.st35{fill:#c7c8ca}</style><circle class="st3" cx="77.7" cy="80" r="45"/><path class="st4" d="M77.7 120c-23.2 0-42-18.8-42-42s18.8-42 42-42 42 18.8 42 42-18.9 42-42 42z"/><circle class="st5" cx="77.7" cy="80" r="45"/><path class="st3" d="M117.3 95c-2.7 12-19.9 25-39.6 25S40.2 104.8 38 95h79.3z"/><path class="st13" d="M67.7 103.6s3.6 3.5 10 3.5 10-3.5 10-3.5"/><path class="st16" d="M122.7 65s-24-3.8-37-13c-8.9-6.3-8-17-8-17s17.3-13.8 35 0c9.5 7.5 10 30 10 30z"/><path class="st16" d="M27.7 80s16.1-16.6 35-20c16-2.9 20-26.9 20-26.9S58 15.3 37.7 40c-13.2 16.1-10 40-10 40z"/><path class="st7" d="M112.7 73v7.2c0 2.7-2.2 4.8-4.8 4.8H91.3c-2.1 0-4.1-1.4-4.7-3.4l-2.1-6.3c-.9-2.6 1.1-5.3 3.8-5.3h21.5c.9 0 1.7.4 2.2 1 .4.5.7 1.2.7 2zm-41.8 2.3l-2.1 6.3c-.7 2-2.6 3.4-4.8 3.4H47.5c-2.7 0-4.8-2.2-4.8-4.8V73c0-1.7 1.3-3 3-3h21.5c1.5 0 2.8.8 3.4 2 .5.9.7 2.1.3 3.3z"/><path class="st13" d="M72.7 75h10"/><path class="st12" d="M111.9 71l-11.2 14h-5l12-15h2c.8 0 1.6.4 2.2 1zm-44.2-1l-12 15h-5l12-15z"/><path class="st16" d="M75.9 35s3.3 13.5 0 25-15 15-15 15 8.2-5.8 10-20c1.8-14.2 0-20 0-20h5z"/><path class="st16" d="M74.1 36.4s1.1 13.9-4.1 24.7c-5.2 10.8-17.3 12.3-17.3 12.3s9-4.4 13.2-18.1 3.3-19.7 3.3-19.7l4.9.8z"/></svg>