<svg id="Layer_1" xmlns="http://www.w3.org/2000/svg" viewBox="0 0 150 150"><style>.st0{fill:none}.st1,.st2{fill:none;stroke:#505979;stroke-width:4;stroke-linejoin:bevel;stroke-miterlimit:10}.st2{fill:#ef7171}.st3{fill:#f7ba82}.st4{fill:#ffd886}.st5{fill:none;stroke:#505979;stroke-linecap:round;stroke-linejoin:round}.st5,.st6,.st7,.st8{stroke-width:4;stroke-miterlimit:10}.st6{fill:none;stroke-linecap:round;stroke-linejoin:round;stroke:#ef7171}.st7,.st8{stroke:#505979}.st7{stroke-linecap:round;stroke-linejoin:round;fill:#505979}.st8{fill:#ef7171}.st9{fill:#b3655f}.st10{fill:#ef7171}.st11{fill:#b3655f;stroke:#505979;stroke-width:4;stroke-linecap:round;stroke-linejoin:round;stroke-miterlimit:10}.st12{fill:#fff}.st13{fill:none;stroke:#505979;stroke-width:4;stroke-linecap:round;stroke-miterlimit:10}.st14{fill:#2e75af}.st15{fill:#3892e7}.st16{fill:#505979}.st17{fill:#c7c8ca}.st18{fill:none}.st18,.st19,.st20,.st21{stroke:#505979;stroke-width:4;stroke-miterlimit:10}.st19{fill:#505979}.st20,.st21{fill:#eee;stroke-linecap:round;stroke-linejoin:round}.st21{fill:#fff}.st22{fill:#ff8282}.st23{fill:#00c349;stroke-width:4;stroke-linecap:round;stroke-linejoin:round;stroke-miterlimit:10}.st23,.st24{stroke:#028e30}.st24,.st25,.st26,.st27{stroke-width:4;stroke-linecap:round;stroke-linejoin:round;stroke-miterlimit:10}.st24{fill:#71db8a}.st25{fill:#ffd886}.st25,.st26,.st27{stroke:#505979}.st26{fill:#ef7171}.st27{fill:#3892e7}.st28{fill:#d9ebfb}.st29,.st30,.st31{stroke-miterlimit:10}.st29{fill:none;stroke:#505979;stroke-linecap:round;stroke-linejoin:round;stroke-width:2}.st30,.st31{stroke-width:4}.st30{stroke-linecap:round;stroke-linejoin:round;fill:#f7ba82;stroke:#505979}.st31{fill:#ef7171;stroke:#b3655f}.st32{fill:#fad2a1}.st33{fill:#eee}.st34,.st35{fill:#3892e7;stroke:#2e75af;stroke-width:4;stroke-linecap:round;stroke-linejoin:round;stroke-miterlimit:10}.st35{fill:#c7c8ca}</style><path class="st21" d="M115 95v10l-40 35-40-35V95z"/><path class="st3" d="M115 100l-10-5-10 5-10-5-10 5-10-5-10 5-10-5-10 5V35h80z"/><path class="st4" d="M85 90.8l-10 5-10-5-10 5-10-5-8 4V35h76v59.8l-8-4-10 5z"/><path class="st5" d="M115 100l-10-5-10 5-10-5-10 5-10-5-10 5-10-5-10 5V35h80z"/><path class="st25" d="M75 140l-10-10h20z"/><path class="st26" d="M115 35H35c0-13.8 11.2-25 25-25h30c13.8 0 25 11.2 25 25z"/><circle class="st16" cx="100" cy="60" r="10"/><path class="st12" d="M105 57.5c0 1.4-1.1 2.5-2.5 2.5-.4 0-.7-.1-1-.2-.9-.4-1.5-1.3-1.5-2.3 0-1.4 1.1-2.5 2.5-2.5 1 0 1.9.6 2.3 1.5.1.3.2.6.2 1z"/><path class="st5" d="M95 71s-.2-1 5-1 5 1 5 1"/><circle class="st16" cx="50" cy="60" r="10"/><path class="st12" d="M55 57.5c0 1.4-1.1 2.5-2.5 2.5-.4 0-.7-.1-1-.2-.9-.4-1.5-1.3-1.5-2.3 0-1.4 1.1-2.5 2.5-2.5 1 0 1.9.6 2.3 1.5.1.3.2.6.2 1z"/><path class="st5" d="M45 71s-.2-1 5-1 5 1 5 1"/><path class="st13" d="M65 74s2.5 6 10 6 10-6 10-6"/></svg>