<svg id="Layer_1" data-name="Layer 1" xmlns="http://www.w3.org/2000/svg" viewBox="0 0 100 100"><defs><style>.cls-1{fill:#f7ba00}</style></defs><title>Icon</title><path class="cls-1" d="M91.77 32.52l.6-.26-.85.26h.25zM68.76 84.56a10.12 10.12 0 1 0 10.12-10.12H32.2a5 5 0 0 1-5-5v-6.36l1.35.51a10.4 10.4 0 0 0 3.67.66h49.06A10.26 10.26 0 0 0 91.53 54V33.14a.42.42 0 0 0 0-.11l-.08-.38v-.11h-.07l-.72-1.13-.44-.33-.52-.24h-.12l-.31-.05-62.07-8.6v-8.55a1.42 1.42 0 0 0 0-.25l-.2-.78v-.12l-.36-.49-.24-.24-.13-.11-.66-.41-13.5-5.71a2.62 2.62 0 0 0-2 4.82l11.89 5v54.07a10.27 10.27 0 0 0 7.52 9.87l1.1.3-.44 1a10 10 0 0 0-.8 3.92 10.12 10.12 0 0 0 20.24 0 10 10 0 0 0-.68-3.51l-.51-1.35h21.48L69.4 81a10 10 0 0 0-.64 3.56zm10.14-4.91a4.89 4.89 0 1 1-4.9 4.89 4.9 4.9 0 0 1 4.9-4.89zM27.19 27.46l59.11 8.15V54a5 5 0 0 1-5 5H32.2a5 5 0 0 1-5-5zm12.29 62a4.89 4.89 0 1 1 4.89-4.89 4.9 4.9 0 0 1-4.9 4.86z"/></svg>