<svg id="Layer_1" data-name="Layer 1" xmlns="http://www.w3.org/2000/svg" viewBox="0 0 100 100"><defs><style>.cls-1{fill:#f7ba00}</style></defs><title>Icon</title><path class="cls-1" d="M85.09 14.67H14.93A11.36 11.36 0 0 0 3.57 26v48a11.36 11.36 0 0 0 11.36 11.33h70.14A11.36 11.36 0 0 0 96.43 74V26a11.35 11.35 0 0 0-11.34-11.33zM91.26 74a6.17 6.17 0 0 1-6.17 6.17H14.93A6.17 6.17 0 0 1 8.76 74V26a6.17 6.17 0 0 1 6.17-6.17h70.14A6.17 6.17 0 0 1 91.24 26v48zm0 0"/><path class="cls-1" d="M62.13 49.4L84.84 29a2.6 2.6 0 1 0-3.48-3.86L50 53.29l-6.11-5.46v-.06a4 4 0 0 0-.42-.37L18.61 25.16A2.6 2.6 0 1 0 15.16 29l23 20.54L15.25 71a2.6 2.6 0 0 0-.12 3.67 2.66 2.66 0 0 0 1.9.83 2.6 2.6 0 0 0 1.77-.69L42 53.07l6.3 5.63a2.59 2.59 0 0 0 3.46 0l6.48-5.8 23.13 21.92a2.6 2.6 0 0 0 3.67-.1 2.6 2.6 0 0 0-.1-3.67zm0 0"/></svg>