<svg id="Layer_1" data-name="Layer 1" xmlns="http://www.w3.org/2000/svg" viewBox="0 0 100 100"><defs><style>.cls-1{fill:#fff}</style></defs><title>Icon</title><path class="cls-1" d="M51.11 79.64a9.62 9.62 0 0 0 0-19.1l-.6-.07h-1.3l-.33.07a9.62 9.62 0 0 0 0 19.1l.59.07h1.29zm-5.29-9.57A4.18 4.18 0 1 1 50 74.32a4.24 4.24 0 0 1-4.18-4.25z"/><path class="cls-1" d="M16.08 49v31.52a14.82 14.82 0 0 0 14.81 14.8h38.22a14.82 14.82 0 0 0 14.81-14.8V49a5.06 5.06 0 0 0-5.06-5h-1V32.44A28 28 0 0 0 51.18 4.71h-1.13l-.12-1v1H48.8a28 28 0 0 0-26.63 27.75V44h-1a5.07 5.07 0 0 0-5.09 5zm11.57-16.54a22.35 22.35 0 1 1 44.7 0V44h-44.7zm-6.32 17h57.34v31.18a9.44 9.44 0 0 1-9.42 9.43H30.76a9.44 9.44 0 0 1-9.42-9.43z"/></svg>