<svg id="Layer_1" xmlns="http://www.w3.org/2000/svg" viewBox="0 0 555 318.7"><style>.st0{fill:#f7ba00}.st1{fill:#252525}.st2{fill:#fff}</style><title>Logo</title><path d="M52.3 47.7h-9.4v-24L32.1 41.2H31L20.4 23.7v24H11V6.4h9.4l11.2 18.3L42.8 6.4h9.5v41.3zM82 31.8v15.9h-9.4V31.8L58.7 6.4h10.7l7.8 15.9L85 6.4h10.8L82 31.8z"/><path class="st0" d="M132.4 20.6c0 7.8-6.4 14.2-14.2 14.2h-6.4v13h-9.4V6.4H118c7.8-.1 14.3 6.1 14.4 13.9v.3zm-9.4 0c.2-2.8-1.9-5.1-4.7-5.3h-6.5v10.6h6.2c2.8 0 5-2.2 5-5v-.3zm37.1 20.6h-15.3l-2.1 6.5h-10.3l14-41.3h12l14 41.3h-10.2l-2.1-6.5zm-2.8-8.8l-4.8-15.1-4.8 15.1h9.6zm51.8-11.8c0 7.8-6.4 14.2-14.2 14.2h-6.4v13H179V6.4h15.6c7.8-.1 14.3 6.1 14.4 13.9.1.1.1.2.1.3zm-9.5 0c.2-2.8-1.9-5.1-4.7-5.3h-6.5v10.6h6.2c2.8 0 5-2.2 5-5v-.3zm43.1 18v9.1h-25.9V6.4h25.6v9.1h-16.2v6.8h14.7v9h-14.7v7.3h16.5zm22.1-4.5h-4.5v13.6h-9.4V6.4h16.5c7.8 0 14.1 6.3 14.1 14.1v.1c-.1 5.1-3 9.7-7.6 12l8.8 15.1h-10.1l-7.8-13.6zm-4.4-8.2h7.1c2.6 0 4.7-2.3 4.7-5.3s-2.1-5.3-4.7-5.3h-7.1v10.6z"/><path d="M286.6 6.4h9.9l7.1 28.9 8-28.9h7.6l8 28.9 7.1-28.9h9.9l-11.4 41.3h-10.7l-6.7-24.4-6.7 24.4H298L286.6 6.4zm78.7 27.7h-4.5v13.6h-9.4V6.4h16.5c7.8 0 14.1 6.3 14.1 14.1v.1c-.1 5.1-3 9.7-7.6 12l8.8 15.1H373l-7.7-13.6zm-4.5-8.2h7.1c2.6 0 4.7-2.3 4.7-5.3s-2.1-5.3-4.7-5.3h-7.1v10.6zM400 6.4v41.3h-9.4V6.4h9.4zm37.7 9.1h-10.6v32.2h-9.4V15.5h-10.6V6.4h30.7l-.1 9.1zm16.6-9.1v41.3h-9.4V6.4h9.4zm42.4 0v41.3h-7.1l-15.9-22.4v22.4h-9.4V6.4h7.1l15.9 22.4V6.4h9.4zm50.9 21.8c0 12.6-8.8 20.3-20.3 20.3-13 0-22.3-9.5-22.3-21.4-.1-11.8 9.5-21.5 21.3-21.5h.4c7.2-.1 14 3.4 18 9.4l-8 4.6c-1.7-2.7-5.4-4.8-10.1-4.8-7 0-12.2 5.1-12.2 12.4 0 7 5 12.1 13 12.1 5.5 0 9.1-2.4 10.5-6.4h-11v-8.3h20.7v3.6z"/><path class="st1" d="M500.5 74.9v91.4c0 15.5-7.5 25.5-22.4 25.5-15.5 0-24.2-10.9-24.2-29.2V74.9h-43v87.6c0 18.3-8.7 29.2-24.2 29.2-14.9 0-22.4-9.9-22.4-25.5V74.9h-46.6v95.4c0 38.8 28.2 64.3 63.9 64.3 21.3 0 41.5-7.5 50.8-19.2 9.2 11.7 29.5 19.2 50.8 19.2 35.7 0 63.9-25.5 63.9-64.3V74.9h-46.6zm-257.4 64.3v95.4h-46.6v-91.4c0-15.5-7.5-25.5-22.4-25.5-15.5 0-24.2 10.9-24.2 29.2v87.6h-46.6v-91.3c0-15.5-7.5-25.5-22.4-25.5-15.5 0-24.2 10.9-24.2 29.2v87.6H10.1V79.2h46.6v14.3c7.1-10.6 20.8-18.6 41.6-18.6 18.3 0 32 7.5 40.7 20.5 8.7-12.4 23-20.5 45-20.5 35.8 0 59.1 25.4 59.1 64.3z"/><path class="st2" d="M112.8 215.5c1.8.8 2.9 1.4 4 1.9 17.3 6.9 34.6 13.7 51.8 20.9 4.3 1.8 6.5.6 8.1-3.1 5.4-12.5 5.5-26.7.1-39.2-1.5-3.6-3.8-5-8.1-3.2-17.3 7.2-34.8 14-52.2 21-1.1.4-2.1.9-3.7 1.7z"/><path class="st2" d="M179 191.3c7.4 16.4 7.3 32.3.1 48.3h12.7v-48.3H179zm47.8 121.3h-12.5c1.5 3.9 2.6 7.1 4 10.1 1.3 2.7 3.1 2.7 4.3-.1 1.4-2.9 2.5-5.9 4.2-10z"/><path class="st0" d="M196.1 312.7V154.8c0-45 35.3-82.7 79.6-84.9 46.5-2.3 85.1 30.4 90 76.3 4.8 44.6-26.5 85.9-71.1 92.4-14.8 2.1-27.8 1.3-43.3 1.8v-49.1h5c9.2-.1 18.4.2 27.5-.4 19.8-1.3 34.4-18.2 33.5-38.2-.9-19.1-17.6-34.7-36.8-34.3-19.8.3-35.7 16.4-35.8 36.2-.1 39.6 0 117.8 0 157.5l-48.6.6zm-82.6-97.2c1.5-.8 2.4-1.3 3.4-1.7 16-7 32.1-13.8 48.1-21 3.9-1.8 6.1-.4 7.4 3.2 5 12.6 4.9 26.6-.1 39.2-1.4 3.7-3.5 4.9-7.4 3.1-15.8-7.2-31.8-13.9-47.7-20.9-1.1-.5-2.1-1-3.7-1.9z"/><path class="st2" d="M112.8 215.5c.5-.2.7-.4 1-.5 4.8-2.1 9.6-4.1 14.3-6.3 1.2-.5 1.8-.1 2.2 1 1.5 3.8 1.5 7.9 0 11.7-.4 1.1-1 1.5-2.2.9-4.7-2.1-9.5-4.1-14.2-6.2-.4-.1-.6-.3-1.1-.6z"/><path class="st0" d="M176.7 191.3h12.9v48.3h-12.7c7.1-16 7.2-31.9-.2-48.3z"/></svg>