<svg id="Layer_1" data-name="Layer 1" xmlns="http://www.w3.org/2000/svg" viewBox="0 0 100 100"><defs><style>.cls-1{fill:#fff}</style></defs><title>Icon</title><path class="cls-1" d="M60.32 7.42a20.94 20.94 0 0 0-10.14-2.65h-.3a20.92 20.92 0 0 0-10.12 2.58c-4 2.24-8.77 7-9.25 17.11-.15 1.6-1.26 15.39 5.9 23.46 3.29 3.72 7.75 5.65 13.26 5.75h.63a17.38 17.38 0 0 0 13.27-5.75c7.16-8.07 6.05-21.87 5.9-23.41C69 14.42 64.22 9.65 60.32 7.42zM64.11 25v.13c.12 1.31 1 13-4.58 19.27-2.32 2.61-5.42 3.9-9.48 3.94h-.19c-4.08 0-7.18-1.33-9.48-3.94-5.75-6.54-4.61-18.86-4.56-19.4v-.21c.62-13.22 10-14.65 14-14.65h.21c5 .11 13.45 2.17 14 14.63a.77.77 0 0 0 .08.23z"/><path class="cls-1" d="M86.56 86.28a2.66 2.66 0 0 0 1-1.26c1-2.6.92-7.89.9-8.48v-.52c-.12-4.06-.37-12.46-8.56-15.26l-.24-.07a53.57 53.57 0 0 1-15.38-7 2.69 2.69 0 1 0-3.11 4.38 58.42 58.42 0 0 0 17 7.79C82.5 67.41 83 72 83.12 76.15a4.49 4.49 0 0 0 0 .45 37.46 37.46 0 0 1-.29 5.19l-.07.49-.44.24C78.28 84.73 67 89.88 50 89.88s-28.25-5.16-32.34-7.38l-.44-.24-.07-.49a35.16 35.16 0 0 1-.29-5.16v-.45c.13-4.19.62-8.76 4.8-10.29a59 59 0 0 0 17.07-7.77l.1-.07a2.69 2.69 0 0 0-3.1-4.39 52.69 52.69 0 0 1-15.43 7l-.19.05A11.55 11.55 0 0 0 12.77 68a25 25 0 0 0-1.25 8 4.66 4.66 0 0 1 0 .48v.06c0 2.17.11 6.38 1 8.53a2.55 2.55 0 0 0 1 1.26c.58.37 14 9 36.53 9 21.8-.1 35.07-8.14 36.51-9.05zm2.92-10.14z"/></svg>