<svg id="Layer_1" data-name="Layer 1" xmlns="http://www.w3.org/2000/svg" viewBox="0 0 100 100"><defs><style>.cls-1{fill:#f7ba00}</style></defs><title>Icon</title><path class="cls-1" d="M76.75 75.57A36.42 36.42 0 0 0 86.31 62l.23-.6h.93a6.71 6.71 0 0 0 6.7-6.7v-10a6.53 6.53 0 0 0-1.91-4.7 6.65 6.65 0 0 0-4.76-2h-1.14l-.24-.58a36.67 36.67 0 0 0-10-13.59l-.24-.2-.07-.3a9.48 9.48 0 0 1 1.63-7.23 5 5 0 0 0-4.26-7.73h-.63a20 20 0 0 0-12.65 6.09l-.39.42-.51-.13a36.8 36.8 0 0 0-6.56-1 49.58 49.58 0 0 0-5.2-.29A44.19 44.19 0 0 0 18.09 24c-7.9 6.91-12.26 16.13-12.26 26a32.3 32.3 0 0 0 .89 7.57v.19a34.69 34.69 0 0 0 2.72 7.32 38.4 38.4 0 0 0 7 10.54 16.18 16.18 0 0 1 4.31 10.27V87a3 3 0 0 0 .05.57 4.88 4.88 0 0 0 4.77 4.12h13.48a4.81 4.81 0 0 0 4.8-4.33l.09-.89h.89c1.13.06 2.31.07 3.51 0h.86l.09.86a4.81 4.81 0 0 0 4.79 4.3h13.45a4.83 4.83 0 0 0 4.82-4.82v-3.25A10.66 10.66 0 0 1 76 76.24l.25-.22.26-.22.14-.13zm-3.61-3.77l-.59.54a15.92 15.92 0 0 0-5.4 11.12v3H54.54v-2.79a2.56 2.56 0 0 0-.87-1.94 2.63 2.63 0 0 0-2-.65 42.28 42.28 0 0 1-10-.14 2.69 2.69 0 0 0-2.09.64 2.66 2.66 0 0 0-.88 2v2.9H26.09v-.89A21.59 21.59 0 0 0 20.31 72a32.65 32.65 0 0 1-5.94-9l-.11-.25a28.24 28.24 0 0 1-2.32-6.14v-.17A27.88 27.88 0 0 1 11.1 50c0-17.26 16.22-31.31 36.16-31.31a44.09 44.09 0 0 1 4.53.24L52 19c1.68.11 5.64.6 7.19 1.44a2.63 2.63 0 0 0 3.42-.84 13.54 13.54 0 0 1 8.22-5.48l1.92-.48-.84 1.79a13.81 13.81 0 0 0-1 9.71v.18a2.65 2.65 0 0 0 1 1.86A31 31 0 0 1 82 41.46a2.61 2.61 0 0 0 2.49 1.81h3A1.46 1.46 0 0 1 89 44.72v10a1.46 1.46 0 0 1-1.45 1.45h-2.86A2.63 2.63 0 0 0 82.18 58a30.61 30.61 0 0 1-9.04 13.8z"/></svg>