<svg id="Layer_1" data-name="Layer 1" xmlns="http://www.w3.org/2000/svg" viewBox="0 0 100 100"><defs><style>.cls-1{fill:#f7ba00}</style></defs><title>Icon</title><path class="cls-1" d="M89.75 9.83a20.14 20.14 0 0 0-28.51 0L9 62.09a2.61 2.61 0 0 0-.74 1.5l-3.9 28.68a2.61 2.61 0 0 0 .74 2.2 2.66 2.66 0 0 0 1.85.78 2.06 2.06 0 0 0 .35 0l17.28-2.34a2.63 2.63 0 1 0-.7-5.21L10 89.54l2.71-20 21.07 21.05a2.66 2.66 0 0 0 1.85.78 2.58 2.58 0 0 0 1.85-.78l52.27-52.25a20.13 20.13 0 0 0 0-28.51zm-27.5 6.42L71 25 23.3 72.7 14.56 64zM35.65 85l-8.58-8.58 47.7-47.7 8.58 8.58zM87 33.58l-21-21a14.92 14.92 0 0 1 21 21zm0 0"/></svg>