<svg id="Layer_1" data-name="Layer 1" xmlns="http://www.w3.org/2000/svg" viewBox="0 0 100 100"><defs><style>.cls-1{fill:#f7ba00}</style></defs><title>Icon</title><path class="cls-1" d="M81.47 58.89a9.66 9.66 0 0 0-7-3.21 10 10 0 0 0-7.08 3.19l-6.55 6.52c-.54-.29-1.08-.56-1.59-.83-.75-.37-1.45-.73-2.05-1.1a71.15 71.15 0 0 1-17-15.54 42 42 0 0 1-5.59-8.82c1.7-1.55 3.27-3.17 4.81-4.72l1.74-1.76c4.35-4.35 4.35-10 0-14.33l-5.66-5.65c-.64-.64-1.3-1.3-1.93-2-1.3-1.26-2.57-2.59-3.95-3.83a9.81 9.81 0 0 0-6.94-3 10.14 10.14 0 0 0-7 3L8.55 14a15.15 15.15 0 0 0-4.49 9.63c-.5 6 1.28 11.68 2.65 15.37 3.35 9 8.37 17.4 15.85 26.39A97.48 97.48 0 0 0 55 90.81c4.76 2.26 11.12 4.93 18.23 5.38h1.31a15.6 15.6 0 0 0 12-5.14s.06-.06.08-.1a46.91 46.91 0 0 1 3.62-3.75c.89-.85 1.8-1.74 2.69-2.67A10.33 10.33 0 0 0 96 77.4a10 10 0 0 0-3.19-7.11zm7.41 21.81c-.81.87-1.64 1.66-2.53 2.53a54.46 54.46 0 0 0-4 4.14 10 10 0 0 1-7.79 3.29h-1c-6.15-.39-11.87-2.8-16.16-4.85a92 92 0 0 1-30.52-23.96C19.82 53.33 15.1 45.46 12 37c-2-5.14-2.66-9.16-2.35-13a9.51 9.51 0 0 1 2.86-6.15l7.06-7.06a4.71 4.71 0 0 1 3.15-1.47 4.44 4.44 0 0 1 3 1.45l.06.06c1.26 1.18 2.46 2.4 3.73 3.71l2 2 5.65 5.65c2.2 2.2 2.2 4.23 0 6.42-.6.6-1.18 1.2-1.78 1.78-1.74 1.78-3.4 3.44-5.2 5.05 0 0-.08.06-.1.1A4.23 4.23 0 0 0 29 40.31l.06.19a45.4 45.4 0 0 0 6.69 10.92 76 76 0 0 0 18.41 16.75 28 28 0 0 0 2.55 1.39c.75.37 1.45.73 2.05 1.1l.25.14a4.49 4.49 0 0 0 2.05.52 4.43 4.43 0 0 0 3.15-1.43l7.09-7.09a4.69 4.69 0 0 1 3.13-1.55 4.21 4.21 0 0 1 3 1.51l11.43 11.45c2.13 2.11 2.13 4.29 0 6.48zm0 0"/></svg>