<svg id="Layer_1" data-name="Layer 1" xmlns="http://www.w3.org/2000/svg" viewBox="0 0 100 100"><defs><style>.cls-1{fill:#f7ba00}</style></defs><title>Icon</title><path class="cls-1" d="M75.4 3.77H51.56a3.12 3.12 0 1 0 0 6.23H75.4a11.26 11.26 0 0 1 11.25 11.25v57.5A11.26 11.26 0 0 1 75.4 90H51.17a3.12 3.12 0 0 0 0 6.23H75.4a17.5 17.5 0 0 0 17.48-17.48v-57.5A17.5 17.5 0 0 0 75.4 3.77z"/><path class="cls-1" d="M50.86 64.46a3.12 3.12 0 0 0 4.41 4.41l16.66-16.68a3.14 3.14 0 0 0 .92-2.19 3.06 3.06 0 0 0-.92-2.19L55.27 31.15a3.12 3.12 0 1 0-4.41 4.41l11.35 11.32h-52a3.12 3.12 0 1 0 0 6.23h52z"/></svg>