<svg id="Layer_1" data-name="Layer 1" xmlns="http://www.w3.org/2000/svg" viewBox="0 0 100 100"><defs><style>.cls-1{fill:#f7ba00}</style></defs><title>Icon</title><path class="cls-1" d="M63.27 19.94h-43A7.31 7.31 0 0 0 13 27.25v61.67a7.31 7.31 0 0 0 7.31 7.31h43a7.31 7.31 0 0 0 7.31-7.31V27.25a7.34 7.34 0 0 0-7.31-7.31zm2.18 69a2.2 2.2 0 0 1-2.2 2.2h-43a2.2 2.2 0 0 1-2.2-2.2V27.25a2.2 2.2 0 0 1 2.2-2.2h43a2.2 2.2 0 0 1 2.2 2.2zm0 0"/><path class="cls-1" d="M79.71 3.77h-43a7.31 7.31 0 0 0-7.31 7.31 2.56 2.56 0 1 0 5.11 0 2.2 2.2 0 0 1 2.2-2.2h43a2.2 2.2 0 0 1 2.2 2.2v61.67a2.2 2.2 0 0 1-2.2 2.2 2.56 2.56 0 1 0 0 5.11A7.31 7.31 0 0 0 87 72.75V11.08a7.31 7.31 0 0 0-7.31-7.31zm0 0"/></svg>