<svg xmlns="http://www.w3.org/2000/svg" viewBox="0 0 24 24"><style>.st0{display:none}.st1{display:inline}.st2{fill:none}.st3{fill:#fff}.st4{fill:#4183d7}</style><g id="Layer_1" class="st0"><g class="st1"><path class="st2" d="M0 0h24v24H0z"/><path class="st3" d="M19.4 16.8L17.2 19s-2.4.3-7.4-4.6C4.1 8.7 5.2 6.9 5.2 6.9l2.1-2.1C8 4.1 10.5 8 9.8 8.7l-.5.5s-.4 1 2.5 3.9c2.1 2.1 3.2 1.8 3.2 1.8l.5-.5c.6-.8 4.6 1.7 3.9 2.4z"/></g></g><g id="Layer_2"><path class="st2" d="M0 0h24v24H0z"/><path class="st3" d="M21 9h-3V6z"/><path class="st3" d="M17 10h4v7h-8V6h4zm-5-5h-2V3z"/><path class="st3" d="M9 6h3v6H6V3h3zm2.1 7.9c-1.2-1.2-3.1-1.2-4.2 0-.9.9-1.1 2.3-.6 3.4l-1.5 1.5c-.4.4-.4 1 0 1.4.4.4 1 .4 1.4 0l1.5-1.5c1.1.5 2.5.3 3.4-.6 1.2-1.2 1.2-3 0-4.2zm-.7 3.5c-.8.8-2.1.8-2.8 0-.8-.8-.8-2.1 0-2.8.8-.8 2.1-.8 2.8 0 .8.8.8 2 0 2.8z"/></g><g id="Layer_3" class="st0"><g class="st1"><path class="st2" d="M0 0h24v24H0z"/><path class="st3" d="M21 12c0 1.7-.9 3-2 3 0 2.8-2.2 5-5 5-.5 0-1-.5-1-1s.5-1 1-1 .9.4 1 .9c1.7-.4 3-2 3-3.9v-4c0-4.4-2.7-7-6-7s-6 2.6-6 7v4H5c-1.1 0-2-1.3-2-3s.9-3 2-3h.2c.7-3.8 3.5-6 6.8-6s6.1 2.2 6.8 6h.2c1.1 0 2 1.3 2 3z"/><path class="st3" d="M12 7c-2.8 0-5 2.2-5 5s2.2 5 5 5 5-2.2 5-5-2.2-5-5-5zm2 6h-3V9h1v3h2v1z"/></g></g><g id="Layer_4" class="st0"><g class="st1"><path class="st2" d="M0 0h24v24H0z"/><path class="st3" d="M6 5H4v15l1 2 1-2zM5 2c.6 0 1 .4 1 1v1H4V3c0-.6.4-1 1-1zm2 0v7h13V2H7zm4.5 1c.3 0 .5.2.5.5s-.2.5-.5.5-.5-.2-.5-.5.2-.5.5-.5zm0 2c.3 0 .5.2.5.5s-.2.5-.5.5-.5-.2-.5-.5.2-.5.5-.5zM10 4c.3 0 .5.2.5.5s-.2.5-.5.5-.5-.2-.5-.5.2-.5.5-.5zM8.5 3c.3 0 .5.2.5.5s-.2.5-.5.5-.5-.2-.5-.5.2-.5.5-.5zm0 2c.3 0 .5.2.5.5s-.2.5-.5.5-.5-.2-.5-.5.2-.5.5-.5zM19 8H8V7h11v1zm0-2h-6V5h6v1zm0-2h-6V3h6v1zM7 13h3.1L7 14.9z"/><path class="st3" d="M10.1 10H7V8.1zm-1.4 5l3.3-2v2zm9.6 0H15v-2zM8.7 8H12v2zm9.6 0L15 10V8zm1.7.1V10h-3.1zM16.9 13H20v1.9z"/><path class="st3" d="M20 11v1h-6v3h-1v-3H7v-1h6V8h1v3z"/><path class="st3" d="M19 9v5H8V9h11m1-1H7v7h13V8z"/></g></g><g id="Layer_5" class="st0"><g class="st1"><path class="st2" d="M0 0h24v24H0z"/><path class="st3" d="M14.8 10c-.4-1-1.3-1.8-2.4-2h-.5C10.3 8.1 9 9.4 9 11c0 .2 0 .4.1.6v.2c0 .1.1.3.1.4 0 .1.1.1.1.2s.1.2.1.3c.1.1.1.2.2.3l.1.1h4.5s0-.1.1-.1c.1-.1.2-.2.2-.3 0-.1.1-.2.1-.2 0-.1.1-.2.1-.3 0-.1.1-.2.1-.3 0-.1.1-.2.1-.2v-.6c.1-.5 0-.8-.1-1.1zm-4.3 1c-.3 0-.5-.2-.5-.5s.2-.5.5-.5.5.2.5.5-.2.5-.5.5zm3 0c-.3 0-.5-.2-.5-.5s.2-.5.5-.5.5.2.5.5-.2.5-.5.5z"/><path class="st3" d="M16.1 3.3c.3 0 .4.5 0 1.3-.2.6-.5 1.2-.8 1.8-.4.9-.9 1.7-1.4 2.4-.2-.2-.5-.3-.8-.5.3-.8.7-1.6 1.1-2.5.3-.6.6-1.2 1-1.7.4-.6.7-.8.9-.8m0-1c-.6 0-1.2.4-1.8 1.3-.4.6-.7 1.2-1 1.8-.4.8-.8 1.7-1.2 2.6l-.1.4 1 .3c.2.1.4.2.6.4l.7.7.4-.5c.5-.8 1-1.6 1.5-2.5l.9-1.8c.4-.9.4-1.6.1-2.2-.3-.3-.7-.5-1.1-.5z"/><path class="st3" d="M8.3 3.3c.2 0 .6.3.9.8.3.5.7 1.1 1 1.7.4.8.8 1.6 1.1 2.4-.3.1-.6.2-.9.4-.5-.8-.9-1.5-1.4-2.3-.3-.6-.5-1.1-.8-1.7-.3-.9-.2-1.3.1-1.3m0-1c-.4 0-.8.2-1 .6-.4.4-.4 1.2 0 2.1.2.5.5 1.1.9 1.8.4.8.8 1.6 1.3 2.3l.3.4.8-.6.6-.3 1.2-.3-.2-.6c-.4-.7-.8-1.6-1.2-2.4-.3-.6-.6-1.1-1-1.7-.5-.9-1.1-1.3-1.7-1.3zM20 13H4v-1c0-.6.4-1 1-1h14c.6 0 1 .4 1 1v1zm-3.1 9H7.1c-.6 0-1.1-.5-1-1.1L7 14h10l.9 6.9c0 .6-.4 1.1-1 1.1z"/></g></g><g id="Layer_6" class="st0"><g class="st1"><path class="st2" d="M0 0h24v24H0z"/><path class="st3" d="M9.2 17.5L4 20.8v-6.5zM20 13l-8 5-8-5zm-5.2 4.5l5.2-3.2v6.5zm-1 .6L20 22H4l6.2-3.9 1.8 1.2z"/><path class="st4" d="M12 3C9.8 3 8 4.8 8 7s1.8 4 4 4 4-1.8 4-4-1.8-4-4-4zm-.1 5L9 5.2l.7-.7 2.1 2.1 1.4-1.4.8.7L11.9 8z"/><path class="st3" d="M12 3C9.8 3 8 4.8 8 7s1.8 4 4 4 4-1.8 4-4-1.8-4-4-4zm-.1 5L9 5.2l.7-.7 2.1 2.1 1.4-1.4.8.7L11.9 8z"/></g></g><g id="Layer_7" class="st0"><g class="st1"><path class="st3" d="M4 4v15h16V4H4zm6 13v-1c1.1 0 2-.9 2-2s-.9-2-2-2-2 .9-2 2h1l-1.5 1.5L6 14h1c0-1.7 1.3-3 3-3s3 1.3 3 3-1.3 3-3 3zm8 0h-3v-1h3v1zm-1-5c-.5 0-1-.5-1-1v1h-1v-2h1v1c0-.5.5-1 1-1s1 .5 1 1-.5 1-1 1zm2-4H5V7h14v1zm0-2H5V5h14v1z"/><path class="st2" d="M0 0h24v24H0z"/></g></g><g id="Layer_8" class="st0"><g class="st1"><path class="st2" d="M0 0h24v24H0z"/><path class="st3" d="M12 9c-1.1 0-2 .9-2 2s.9 2 2 2 2-.9 2-2-.9-2-2-2zm0 0c-1.1 0-2 .9-2 2s.9 2 2 2 2-.9 2-2-.9-2-2-2zm3-7H4v20h16V7h-5V2zm.1 14.5l-1.4-.4-.4 1.3L12 15l-1.3 2.5-.4-1.3-1.4.4 1.6-3C9.6 13.1 9 12.1 9 11c0-1.7 1.3-3 3-3s3 1.3 3 3c0 1.1-.6 2.1-1.5 2.6l1.6 2.9zM16 2v4h4l-4-4zm-4 7c-1.1 0-2 .9-2 2s.9 2 2 2 2-.9 2-2-.9-2-2-2z"/></g></g><g id="Layer_9" class="st0"><g class="st1"><path class="st2" d="M0 0h24v24H0z"/><path class="st3" d="M16 2v4h4l-4-4zm-1 5V2H4v20h16V7h-5zm-2 9l-.4-1.2h-2.2L10 16H9l2-6h1l2 6h-1zm3 2h-1V8h1v10zm-5.4-4.1h1.7l-.9-2.7-.8 2.7z"/></g></g><g id="Layer_10" class="st0"><g class="st1"><path class="st2" d="M0 0h24v24H0z"/><path class="st3" d="M12 10h-1l-2 6h1l.4-1.2h2.2L13 16h1l-2-6zm-1.4 3.9l.8-2.7.8 2.7h-1.6zM15 9v8h1V9h-1zm0 0v8h1V9h-1zm-4 1l-2 6h1l.4-1.2h2.2L13 16h1l-2-6h-1zm-.4 3.9l.8-2.7.8 2.7h-1.6zM15 7V2H4v20h16V7h-5zm3 2h-1v8h1v1h-3v-1H6V9h9V8h3v1zm-2 0h-1v8h1V9zm-5 1l-2 6h1l.4-1.2h2.2L13 16h1l-2-6h-1zm-.4 3.9l.8-2.7.8 2.7h-1.6zM15 9v8h1V9h-1z"/></g></g><g id="Layer_11" class="st0"><g class="st1"><path class="st2" d="M0 0h24v24H0z"/><path class="st3" d="M15 7V2H4v20h16V7h-5zm-3 9l-.4-1.2H9.4L9 16H8l2-6h1l2 6h-1zm2.2-4L12 9.9l.7-.7 1.4 1.4 2.1-2.1.8.7-2.8 2.8zm-4.6 1.9h1.7l-.8-2.7-.9 2.7z"/></g></g></svg>