<svg id="Layer_1" xmlns="http://www.w3.org/2000/svg" viewBox="0 0 199.2 90"><style>.st0{fill:#f64747}.st1{fill:#fff}.st2,.st3{fill:none;stroke:#fff;stroke-width:3;stroke-miterlimit:10}.st3{stroke-width:2}.st4{fill-rule:evenodd;clip-rule:evenodd;fill:#fff}.st5{fill:#e30613}.st6,.st7{fill:#fff;stroke:#000;stroke-miterlimit:10}.st7{fill:none;stroke:#1d1d1b;stroke-width:3}.st8,.st9{stroke-linecap:square}.st8{fill:none;stroke:#000;stroke-miterlimit:10;stroke-width:11}.st9{stroke-width:8}.st10,.st11{fill:none;stroke:#000}.st10,.st11,.st12,.st13,.st9{stroke-miterlimit:10}.st9{fill:none;stroke:#000}.st10{stroke-linecap:round;stroke-width:8}.st11,.st12{stroke-width:3}.st12,.st13{fill:#e30613;stroke:#fff;stroke-linejoin:round}.st13{fill:#fff;stroke:#000;stroke-width:4;stroke-linecap:square}.st14,.st15{stroke:#fff;stroke-width:8}.st14,.st15,.st16{stroke-linecap:round;stroke-miterlimit:10}.st15,.st16{fill:none}.st16{stroke:#000;stroke-width:10}.st17{fill:#1d1d1b}.st18{fill:none;stroke:#000;stroke-width:7;stroke-miterlimit:10}.st19,.st20{enable-background:new}.st20{clip-path:url(#SVGID_2_)}.st21{fill:#46766f}.st22{clip-path:url(#SVGID_4_);enable-background:new}.st23{fill:#487a73}.st24{fill:#4b7f77}.st25{fill:#4e837c}.st26{fill:#508880}.st27{fill:#538c84}.st28{fill:#569188}.st29{fill:#58958d}.st30{fill:#5b9a91}.st31{fill:#5e9e95}.st32,.st33{clip-path:url(#SVGID_6_);enable-background:new}.st33{clip-path:url(#SVGID_8_)}.st34{fill:#76c7bb}.st35{clip-path:url(#SVGID_10_)}.st35,.st36,.st37{enable-background:new}.st36{clip-path:url(#SVGID_12_)}.st37{clip-path:url(#SVGID_14_)}.st38{clip-path:url(#SVGID_16_)}.st38,.st39,.st40,.st41{enable-background:new}.st39{clip-path:url(#SVGID_18_)}.st40{clip-path:url(#SVGID_20_)}.st41{clip-path:url(#SVGID_22_)}.st42{fill:#0e5551}.st43{clip-path:url(#SVGID_24_);enable-background:new}.st44{fill:#0f5854}.st45{fill:#0f5b57}.st46{fill:#105f5a}.st47{fill:#10625e}.st48{fill:#116561}.st49{fill:#116864}.st50{fill:#126c67}.st51{fill:#126f6a}.st52{fill:#13726d}.st53,.st54{clip-path:url(#SVGID_26_);enable-background:new}.st54{clip-path:url(#SVGID_28_)}.st55{fill:#188f89}.st56{clip-path:url(#SVGID_30_)}.st56,.st57,.st58{enable-background:new}.st57{clip-path:url(#SVGID_32_)}.st58{clip-path:url(#SVGID_34_)}.st59{clip-path:url(#SVGID_36_)}.st59,.st60,.st61,.st62{enable-background:new}.st60{clip-path:url(#SVGID_38_)}.st61{clip-path:url(#SVGID_40_)}.st62{clip-path:url(#SVGID_42_)}.st63{fill:#813707}.st64{clip-path:url(#SVGID_44_);enable-background:new}.st65{fill:#863908}.st66{fill:#8b3b08}.st67{fill:#903d08}.st68{fill:#953f08}.st69{fill:#9a4109}.st70{fill:#9f4309}.st71{fill:#a44509}.st72{fill:#a9470a}.st73{fill:#ae4a0a}.st74,.st75{clip-path:url(#SVGID_46_);enable-background:new}.st75{clip-path:url(#SVGID_48_)}.st76{fill:#db5c0c}.st77{clip-path:url(#SVGID_50_)}.st77,.st78,.st79{enable-background:new}.st78{clip-path:url(#SVGID_52_)}.st79{clip-path:url(#SVGID_54_)}.st80{clip-path:url(#SVGID_56_)}.st80,.st81,.st82,.st83{enable-background:new}.st81{clip-path:url(#SVGID_58_)}.st82{clip-path:url(#SVGID_60_)}.st83{clip-path:url(#SVGID_62_)}.st84{fill:#1e2b51}.st85{clip-path:url(#SVGID_64_);enable-background:new}.st86{fill:#1f2d54}.st87{fill:#202e57}.st88{fill:#22305a}.st89{fill:#23325d}.st90{fill:#243360}.st91{fill:#253563}.st92{fill:#263766}.st93{fill:#273869}.st94{fill:#293a6c}.st95,.st96{clip-path:url(#SVGID_66_);enable-background:new}.st96{clip-path:url(#SVGID_68_)}.st97{fill:#334988}.st100,.st98,.st99{enable-background:new}.st98{clip-path:url(#SVGID_70_)}.st99{clip-path:url(#SVGID_72_)}.st100{clip-path:url(#SVGID_74_)}.st101{clip-path:url(#SVGID_76_)}.st101,.st102,.st103,.st104{enable-background:new}.st102{clip-path:url(#SVGID_78_)}.st103{clip-path:url(#SVGID_80_)}.st104{clip-path:url(#SVGID_82_)}.st105{fill:#224470}.st106{clip-path:url(#SVGID_84_);enable-background:new}.st107{fill:#234774}.st108{fill:#244978}.st109{fill:#264c7d}.st110{fill:#274f81}.st111{fill:#285185}.st112{fill:#2a548a}.st113{fill:#2b568e}.st114{fill:#2c5992}.st115{fill:#2d5c97}.st116,.st117{clip-path:url(#SVGID_86_);enable-background:new}.st117{clip-path:url(#SVGID_88_)}.st118{fill:#3973bd}.st119{clip-path:url(#SVGID_90_)}.st119,.st120,.st121{enable-background:new}.st120{clip-path:url(#SVGID_92_)}.st121{clip-path:url(#SVGID_94_)}.st122{clip-path:url(#SVGID_96_)}.st122,.st123,.st124,.st125{enable-background:new}.st123{clip-path:url(#SVGID_98_)}.st124{clip-path:url(#SVGID_100_)}.st125{clip-path:url(#SVGID_102_)}.st126{fill:#802525}.st127{clip-path:url(#SVGID_104_);enable-background:new}.st128{fill:#852626}.st129{fill:#8a2828}.st130{fill:#8f2929}.st131{fill:#942b2b}.st132{fill:#992c2c}.st133{fill:#9d2d2d}.st134{fill:#a22f2f}.st135{fill:#a73030}.st136{fill:#ac3232}.st137,.st138{clip-path:url(#SVGID_106_);enable-background:new}.st138{clip-path:url(#SVGID_108_)}.st139{fill:#d83e3e}.st140,.st141{clip-path:url(#SVGID_110_);enable-background:new}.st141{clip-path:url(#SVGID_112_)}.st142{clip-path:url(#SVGID_114_)}.st142,.st143,.st144,.st145{enable-background:new}.st143{clip-path:url(#SVGID_116_)}.st144{clip-path:url(#SVGID_118_)}.st145{clip-path:url(#SVGID_120_)}.st146{fill:#6700e0}.st147{clip-path:url(#SVGID_122_);enable-background:new}.st148{fill:#e24141}.st149{fill:#dd4040}.st150{fill:#d43d3d}.st151{fill:#cf3c3c}.st152{fill:#ca3a3a}.st153{fill:#c53939}.st154{fill:#c03737}.st155{fill:#bb3636}.st156{fill:#b63535}.st157{fill:#b13333}.st158{clip-path:url(#SVGID_124_);enable-background:new}.st159{fill:#7b2424}.st160,.st161{clip-path:url(#SVGID_126_);enable-background:new}.st161{clip-path:url(#SVGID_128_)}.st162{fill:#e74343}.st163{fill:#ec4444}.st164{fill:#f14646}.st165{clip-path:url(#SVGID_130_);enable-background:new}</style><circle class="st1" cx="21.5" cy="25.9" r="4.5"/><circle class="st1" cx="35" cy="25.9" r="4.5"/><circle class="st1" cx="48.6" cy="25.9" r="4.5"/><circle class="st1" cx="21.5" cy="66.5" r="4.5"/><circle class="st1" cx="35" cy="66.5" r="4.5"/><circle class="st1" cx="48.6" cy="66.5" r="4.5"/><path class="st1" d="M17 34.9h36.1v4.5H17zm0 9h36.1v4.5H17zm0 9h36.1v4.5H17z"/><path class="st1" d="M55.4 0H0v90h70V14.7L55.4 0zM3.9 86.1V3.9h49.8v12.5h12.5v69.8H3.9zM87.7 62h4c.5 0 .5 0 .5.5v8c0 .5 0 .5.5.5h7.5c.5 0 .5 0 .5-.5v-7.4c0-1 0-1 1.1-1h2.6c.8 0 .7 0 .7.7V83c0 1.1.1.9-.9.9h-2.9c-.5 0-.5 0-.5-.5v-8c0-.5 0-.6-.6-.6h-7.5c-.3 0-.4.1-.4.4v8c0 .5.1.6-.6.6h-3.9c-.1-7.3-.1-14.6-.1-21.8zm48.1 17.1V68.6c0-.3.1-.3.4-.3h3.3c.3 0 .4.1.4.4v1.9c.1 0 .2-.1.3-.2.4-.5.9-.9 1.4-1.3 1.2-.8 2.6-1.2 4.1-1.1 1.8.1 3.4.8 4.7 2.2 1.1 1.3 1.7 2.7 1.9 4.4.3 2.1 0 4-.9 5.8-.9 1.8-2.4 3-4.4 3.5-2.4.5-4.5 0-6.3-1.7-.2-.2-.4-.6-.7-.7-.1.3-.1.7-.1 1v7.2c0 .4 0 .4-.5.4h-3.1c-.4 0-.4 0-.4-.4v-6.1c-.1-1.6-.1-3.1-.1-4.5zm8.4-7.6c-1.4-.1-2.5.4-3.3 1.5-.6.7-.9 1.5-1 2.4-.2 1.5.2 2.8 1.2 3.8 1.2 1.2 2.6 1.6 4.3 1.1 1.5-.4 2.4-1.5 2.8-3 .2-.9.2-1.8 0-2.6-.6-1.9-2.3-3.3-4-3.2zm-25.6 5.7h-5.5c-.7 0-.7 0-.5.7.6 1.7 2.3 2.7 3.7 2.7 1.8.1 3.2-.6 4.2-2.2.1-.2.2-.3.4-.3h3.5c.2 0 .3.1.2.3-.4 1.3-1.1 2.3-2 3.2-1.2 1.1-2.6 1.8-4.2 2.1-3.3.6-6.3-.2-8.5-2.9-.8-1-1.3-2.2-1.5-3.5-.2-1.5-.2-3 .4-4.4.8-2.2 2.3-3.6 4.4-4.5 2.4-1 4.9-.9 7.2.1 2.5 1.2 4 3.2 4.5 5.9.1.6.2 1.2.1 1.9-.1.6-.1.7-.7.7-1.9.2-3.8.2-5.7.2zm-1.8-3.1h4.3s-.2-.6-.5-1.1c-1.2-1.6-3-2-4.7-1.7-1.4.3-2.5 1.1-3.1 2.4-.1.2 0 .3.2.3h.4c1.1.1 2.2.1 3.4.1zm11.2-1.3V62.7c0-.7 0-.7.7-.7h2.9c.2 0 .4.1.4.3v20.9c0 .5 0 .5-.5.5h-3.1c-.2 0-.4-.1-.4-.3V72.8zM86.1 11c.3-4.4 2.4-7.5 6.3-9.4 1.5-.7 3.2-1 4.9-1 2.1 0 4.1.4 5.9 1.4 2.9 1.6 4.7 4.1 5.4 7.3.1.4 0 .4-.4.4h-3.6c-.3 0-.4-.1-.5-.4-.3-1.2-.9-2.2-1.9-3-1.7-1.5-3.6-2-5.8-1.7-1.5.2-2.8.8-3.9 1.9-1.1 1.1-1.7 2.4-1.9 4-.3 1.8 0 3.5.9 5.1 1.1 2 2.8 3 5 3.3 1.2.1 2.4 0 3.6-.4 1.9-.8 3.1-2.1 3.8-4 .3-.8.3-.8 1.1-.8h3.1c.4 0 .5.1.4.5-.2 1.2-.6 2.3-1.2 3.4-1.7 2.8-4.1 4.5-7.3 5.1-2.4.5-4.7.3-6.9-.5-3-1.1-5.1-3.2-6.3-6.2-.4-1.2-.7-2.4-.7-3.6V11zm89.9 3.9V7.5c0-.2.1-.3.3-.3h3.4c.3 0 .3.1.3.4v1.8c0 .1 0 .1.1.2l.1-.1c.1-.2.2-.3.3-.5 1.2-1.6 2.7-2.2 4.6-2 1.2.1 2.2.6 3.1 1.5.3.3.4.6.6.9.2.4.3.4.5 0 .7-1.1 1.7-2 3-2.3 2.1-.6 4-.2 5.5 1.5.8.9 1.2 1.9 1.3 3.1v10.4c0 .5 0 .6-.6.6h-2.8c-.7 0-.7 0-.7-.6v-8.3c0-.5 0-1-.1-1.5-.3-1.7-1.8-2.4-3.2-2.1-1.4.3-2.1 1.3-2.1 2.7v8.9c0 1.1.2.9-.9.9h-2.9c-.3 0-.4-.1-.4-.3v-9.3c0-.6-.1-1.1-.4-1.7-.5-.9-1.7-1.5-2.8-1.2-1.3.3-2 1-2.2 2.4-.1.5-.1 1.1-.1 1.6v8.2c0 .2 0 .3-.3.3h-3.5c-.2 0-.3-.1-.3-.3v-.6c.2-2.3.2-4.6.2-6.9zm-19.7 0c-.1-4 2.8-7 6.2-7.7 2.7-.6 5.2-.2 7.4 1.4 1.7 1.2 2.6 3 3 5 .3 1.8 0 3.4-.7 5-1 2.2-2.8 3.5-5.1 4.1-2.1.5-4.1.5-6.1-.4-2.5-1.1-4.1-3-4.6-5.7 0-.6-.1-1.2-.1-1.7zm12.5.1v-.5c0-2.1-1.7-4.2-4.3-4.1-1.8.1-3.4 1.4-3.8 3.3-.2.8-.2 1.6 0 2.4.3 1.5 1.4 3.1 3.4 3.4 1.9.3 3.7-.7 4.4-2.2.2-.8.3-1.5.3-2.3zm-57.3-2.8V7.6c0-.4 0-.4.4-.4h3.1c.4 0 .5 0 .5.5v7.5c0 .5 0 1.1.1 1.6.2 2.1 2 3.1 4 2.7 1.5-.3 2.4-1.5 2.4-3V7.6c0-.4 0-.4.4-.4h3.3c.3 0 .4.1.4.4v8.5c0 1-.1 2-.6 3-.9 1.9-2.4 3.1-4.4 3.6-1.9.5-3.7.4-5.5-.3-2.1-.9-3.4-2.4-3.9-4.7-.1-.5-.2-1.1-.2-1.6v-3.9zM131 18h1.6c.3 0 .4.1.5.4.5 1.3 1.8 2 3.2 1.7.5-.1 1-.2 1.4-.5.7-.5.9-1.1.6-1.8-.1-.4-.4-.5-.7-.7-.7-.4-1.5-.6-2.4-.8-1.2-.3-2.4-.5-3.4-1.1-.7-.3-1.3-.8-1.7-1.4-1-1.4-1-2.8-.2-4.2.7-1.2 1.8-2 3.1-2.3 2.2-.7 4.4-.6 6.5.4 1.3.7 2.3 1.7 2.6 3.3 0 .2.1.3.1.5s-.1.3-.3.3h-3.1c-.2 0-.3 0-.4-.3-.2-1-.9-1.5-1.8-1.7-.7-.2-1.5-.1-2.2.2-.6.3-.9.7-.9 1.3 0 .6.3 1.1.9 1.4.9.5 1.9.7 3 .9 1.3.3 2.6.7 3.7 1.5 1.5 1 2 2.8 1.4 4.5-.4 1.1-1.1 1.9-2.1 2.4-1 .6-2.1.9-3.3 1-1.2.1-2.4.1-3.5-.2-1.5-.4-2.8-1.1-3.7-2.4-.4-.6-.5-1.3-.7-1.9-.1-.3.1-.4.3-.4.4-.1 1-.1 1.5-.1zm16.3-1.4v-5.1c0-1 .1-.9-.9-.9h-1.6c-.3 0-.3-.1-.3-.3 0-.9.1-1.8 0-2.7 0-.4.1-.4.4-.4h1.6c.9 0 .8.1.8-.9V3.6c0-.5 0-.5.5-.5h3.2c.4 0 .4 0 .4.4v3c0 .5 0 .5.5.5h2.5c.4 0 .4 0 .4.4V10c0 .3-.1.4-.4.4H152c-.7 0-.6 0-.6.7v10.4c0 .3.2.8-.1 1-.2.2-.7.1-1 .1h-2.5c-.5 0-.5 0-.5-.5v-5.5zM87.7 29.9c3.4 0 6.9-.1 10.3 0 3.3.1 5.9 2.1 6.6 5.5.4 2.2.1 4.3-1.2 6.1-.8 1.1-1.9 1.8-3.2 2.3-1 .4-1.9.5-3 .5h-4.5c-.5 0-.5 0-.5.5v6.5c0 .2-.1.3-.3.3h-4.1c-.1-7.2-.1-14.4-.1-21.7zm4.4 7.2v3c0 .5 0 .5.5.5h4.5c.2 0 .5 0 .7-.1 1.4-.4 2.2-1.4 2.4-2.8.3-2.1-1-4-3.3-4h-4.4c-.4 0-.4 0-.4.4v3zM128 47V36.5c0-.2.1-.3.3-.3h3.4c.3 0 .3.2.3.4v1.7c0 .1 0 .2.1.2s.2-.1.2-.1c.5-.5.9-1 1.5-1.4 2.6-1.7 6-1.5 8.3.7 1.2 1.1 1.9 2.6 2.3 4.2.4 1.8.3 3.5-.3 5.3-.6 1.6-1.5 3-3 3.9-1.2.8-2.5 1-4 .9-1.3-.1-2.5-.5-3.6-1.3-.4-.3-.7-.6-1.1-1-.1-.1-.2-.3-.4-.3V57c0 1.2.2 1-1 1h-2.6c-.3 0-.4-.1-.4-.4V47zm8.2-7.6c-1.8.1-3.1.8-3.8 2.5-.5 1.1-.6 2.2-.3 3.4.2.7.5 1.4 1 1.9 1.1 1.2 2.5 1.6 4.1 1.2 1.6-.4 2.5-1.5 3-3 .3-.9.2-1.8 0-2.7-.4-2.1-2.1-3.4-4-3.3zm-12.6 4.5v7.3c0 .5 0 .5-.5.5H120c-.4 0-.4 0-.4-.4v-1.8c-.1 0-.2 0-.3.1-.1.1-.2.3-.4.4-1.2 1.2-2.6 1.9-4.2 2-2 .2-3.7-.4-5.2-1.7-.7-.6-1.2-1.3-1.5-2.1-.5-1.1-.9-2.2-.9-3.5-.1-1.5.1-3 .7-4.4 1-2.4 2.7-3.9 5.3-4.3 2.4-.4 4.4.4 6.1 2.1.2.2.3.5.5.4.2-.1.1-.4.1-.6v-1.5c0-.2.1-.2.2-.2h3.6c.2 0 .3.1.3.3v.6c-.3 2.2-.3 4.5-.3 6.8zm-4.1 0c.1-1.2-.2-2.3-1-3.2-1.1-1.2-2.5-1.6-4-1.3-1.7.4-2.6 1.5-3.1 3.1-.2.8-.2 1.6 0 2.4.3 1.5 1.4 3.1 3.4 3.4 2 .3 3.6-.8 4.3-2.2.2-.6.4-1.4.4-2.2zm37.5 1.2h-5.7c-.5 0-.5.1-.4.5.6 1.9 2.4 2.9 3.9 3 1.8 0 3.2-.6 4.1-2.2.1-.2.2-.3.4-.3h3.5c.2 0 .3.1.2.3-.4 1.3-1.1 2.3-2.1 3.2-1.2 1.1-2.6 1.8-4.2 2.1-3.3.6-6.3-.2-8.5-2.9-.8-1-1.3-2.1-1.5-3.4-.2-1.4-.2-2.7.2-4 .9-2.8 2.8-4.5 5.5-5.3 2.1-.6 4.2-.5 6.3.5 2.5 1.2 4 3.2 4.5 5.9.1.6.2 1.3.1 1.9 0 .6-.1.7-.7.7H157zm-1.9-3.1h3.2c.3 0 .8.2.9-.1.2-.3-.2-.6-.4-1-.1-.1-.1-.2-.2-.3-1.2-1.3-2.7-1.8-4.4-1.5-1.4.3-2.5 1.1-3.1 2.4-.1.2 0 .3.2.3h.4c1.1.2 2.3.2 3.4.2zm11.3 1.9v-7.1c0-.7 0-.6.7-.6h2.9c.3 0 .4.1.4.4v3c.1 0 .1-.1.1-.1.4-.7.8-1.4 1.4-2 .9-.9 1.9-1.4 3.2-1.5.2 0 .3-.1.5-.1.3-.1.4 0 .4.3v3.4c0 .4-.2.4-.5.4-1.3 0-2.5.4-3.6 1.2-.7.5-1.2 1.3-1.4 2.1-.1.5-.2 1.1-.2 1.6v6.5c0 .5 0 .6-.6.6h-2.8c-.6 0-.6 0-.6-.6v-6.1c.1-.7.1-1.1.1-1.4z"/></svg>