<svg id="Layer_1" xmlns="http://www.w3.org/2000/svg" viewBox="0 0 157 153.7"><style>.st0{fill:#fff}</style><path class="st0" d="M38.2 104.4c-2.3-3.3-6.3-4-9.7-1.7-3.4 2.3-4.2 6.3-1.9 9.6 2.3 3.3 6.3 4 9.7 1.7 3.4-2.3 4.2-6.2 1.9-9.6zm26.1-76.2c1.1 1.1 2.2 1.2 3 1 .8-.2 1.7-.7 2.3-2.2.7-1.9.4-4.5 0-6.2-.4-1.7-1.2-4.1-2.7-5.5-1.1-1.1-2.2-1.2-3-1-.8.2-1.7.7-2.3 2.2-.7 1.9-.4 4.4 0 6.1.4 1.7 1.3 4.2 2.7 5.6zm19.1-.1c.8.1 1.9-.1 2.9-1.4 1.3-1.6 1.8-4.1 2-5.8.2-1.8.2-4.3-.8-6.1-.7-1.4-1.7-1.8-2.5-1.9-.8-.1-1.9.1-2.9 1.4-1.3 1.6-1.8 4-2 5.8-.2 1.7-.2 4.3.8 6.1.7 1.4 1.7 1.8 2.5 1.9zm18.6 96.4c.3-.9 0-1.7-.3-2.2-.2-.5-.6-1.1-1.4-1.3-.9-.3-1.6 0-2.3.4l-.9.4 2.4 4.8.8-.4c.6-.3 1.4-.8 1.7-1.7zm7.8-91.7c-1.5-.8-2.8 0-3.4 1-.6 1-.5 2.6 1 3.4 1.5.8 2.8 0 3.4-1s.5-2.6-1-3.4zm-8.3-11.2c1.5.8 2.8 0 3.4-1s.5-2.6-1-3.4c-1.5-.8-2.8 0-3.4 1-.5 1-.4 2.6 1 3.4zm14.2 98.7l4-4-6.4-2.6z"/><path class="st0" d="M157 76.8c0-5.9-4.6-11.1-5.9-16.6-1.3-5.7.6-12.4-1.9-17.5-2.5-5.2-8.9-7.9-12.5-12.4-3.6-4.5-4.8-11.3-9.3-14.9-4.4-3.6-11.4-3.3-16.6-5.8-5.1-2.5-9.2-8.1-14.9-9.4-5.5-1.2-11.6 2-17.5 2-5.8 0-12-3.3-17.5-2-5.6 1.3-9.8 6.9-14.9 9.4-5 2.6-12 2.3-16.4 5.9-4.5 3.6-5.7 10.5-9.3 14.9-3.5 4.5-10 7.2-12.5 12.4-2.5 5.1-.6 11.8-1.9 17.5C4.6 65.7 0 71 0 76.8c0 5.8 4.6 11.1 5.8 16.6 1.3 5.7-.6 12.4 1.9 17.5 2.5 5.2 8.9 7.9 12.5 12.4 3.6 4.5 4.8 11.3 9.3 14.9 4.5 3.6 11.4 3.3 16.6 5.8 5.1 2.5 9.2 8.1 14.9 9.4 5.5 1.3 11.6-2 17.5-2s12 3.3 17.5 2c5.6-1.3 9.8-6.9 14.9-9.4 5.2-2.5 12.2-2.2 16.6-5.8 4.5-3.6 5.7-10.5 9.3-14.9 3.6-4.5 10-7.2 12.5-12.4 2.5-5.1.6-11.8 1.9-17.5 1.2-5.5 5.8-10.7 5.8-16.6zM98.5 17c1.2-2.2 4.2-3.1 6.5-1.8s3.2 4.2 2 6.5c-1.2 2.2-4.2 3.1-6.5 1.8s-3.2-4.2-2-6.5zm16.5 3.5l.8 1.4-19.5 12-.8-1.4 19.5-12zm-2.2 16.9c-1.2 2.2-4.2 3.1-6.5 1.8s-3.2-4.2-2-6.5c1.2-2.2 4.2-3.1 6.5-1.8 2.4 1.3 3.3 4.2 2 6.5zM77.1 19.8c.3-2.5 1.1-5.7 3.4-7.9 1.4-1.3 3-1.9 4.7-1.7s3.2 1 4.3 2.6c1.8 2.6 2 5.9 1.7 8.4-.3 2.6-1.1 5.7-3.4 7.9-1.4 1.3-3 1.9-4.7 1.7-1.8-.2-3.2-1-4.3-2.6-1.8-2.6-1.9-5.8-1.7-8.4zm-17.8-5c.9-1.7 2.2-2.7 3.9-3.1 1.7-.4 3.3 0 4.9 1.1 2.6 1.9 3.8 4.9 4.4 7.4.6 2.5.8 5.7-.6 8.5-.9 1.7-2.2 2.7-3.9 3.1-1.7.4-3.3 0-4.9-1.1-2.6-1.9-3.8-4.8-4.3-7.4-.7-2.4-1-5.7.5-8.5zm-16.2 5.5l4.2-2.4 9.9 17.4-2.7 1.5L46 21.9l-3 1.7.1-3.3zM15.9 97.9l-.4-2.9 10.8-3.7-12.8-3.4 11.1-7.3-11.5-.1-.5-2.9 20.4.6L19.8 87l15.4 4.1-19.3 6.8zm8.5 16c-3.2-4.6-2-10.4 2.5-13.5 4.5-3.1 10.3-2.1 13.5 2.5 3.2 4.6 2 10.4-2.5 13.5-4.5 3.1-10.3 2.1-13.5-2.5zm21.6 4l-7 11-2.4-1.5 10.6-16.9 3.9 19.2 6.9-10.9 2.4 1.5-10.6 16.8-3.8-19.2zm36.4 23.6l-2.9.1-.4-8.1-6.4-9.9-.5 2L65 124l-1.1 4.6 7 1.6-.6 2.6-7-1.6L62 137l7.3 1.7-.6 2.6-10-2.3 4.2-18.2 10 2.3-.1.2 2.9-.1 4.7 7.3 3.9-7.7 3.2-.2-5.5 10.9.4 8zm-3.9-31.7c-18.2 0-32.9-14.7-32.9-32.9S60.3 44 78.5 44s32.9 14.7 32.9 32.9-14.7 32.9-32.9 32.9zm31.2 21.6c-.6 2.1-2.6 3.3-3.9 3.9l-4.2 2.1-8.2-16.8 2.5-1.2c2.2-1.1 3.7-1.4 5.3-1 1.3.4 2.3 1.3 3 2.7.3.7.5 1.4.5 2.2 0 .9-.4 1.4-.7 1.8.3-.1 1.5-.3 2.8.1 1.4.5 2.1 1.6 2.6 2.6.5 1.2.7 2.3.3 3.6zm17.3-12.1l-4.5-1.9-5.7 5.6 1.7 4.7-2.2 2.1-7.1-20.6 20.1 8-2.3 2.1zm9.6-14.8c-1.5 3-3.9 4.2-5.3 4.7-2.8 1-5.3.7-7.6-.5-3.1-1.6-4.5-3.9-5.2-6-.8-2.5-.3-4.8.9-7.1.8-1.5 1.8-2.8 3.5-3.8l3 1.5c-2.6 1-3.6 2.6-4.1 3.6-1.8 3.6-.4 7.4 3.3 9.3 3.5 1.8 7.5.6 9.3-2.9 1-2 .8-4.1.4-5.5l3 1.5c0 2.2-.6 4-1.2 5.2zm5.5-21.9L133 88l.5.6 7.6 1.1-.4 2.8-18.5-2.7.4-2.8 7.4 1.1-6.3-8.2.5-3.7 7.1 9.6 11.3-6.9-.5 3.7z"/><path class="st0" d="M105.1 127.4c-1-.3-2.1.1-3 .5l-1.6.8 2.5 5 1.6-.8c.7-.4 1.8-1 2.2-1.9.3-.6.3-1.5-.1-2.3-.4-.7-.9-1.1-1.6-1.3z"/></svg>