<svg id="Layer_1" xmlns="http://www.w3.org/2000/svg" viewBox="0 0 157 153.7"><style>.st0{fill:#fff}</style><path class="st0" d="M22.5 84.1l.9 5.5 5.8-3.8zm45.6 40.2l-1-.2-1.2 5.8.9.2c.7.2 3.9.8 4.5-2.2.5-2.5-1.8-3.3-3.2-3.6z"/><path class="st0" d="M157 76.8c0-5.9-4.6-11.1-5.8-16.6-1.3-5.7.6-12.4-1.9-17.5-2.5-5.2-8.9-7.9-12.5-12.4-3.6-4.5-4.8-11.3-9.3-14.9-4.5-3.6-11.4-3.3-16.6-5.8-5.1-2.5-9.2-8.1-14.9-9.4-5.5-1.2-11.6 2-17.5 2S66.5-1 61 .3c-5.7 1.3-9.8 6.9-14.9 9.4S34 11.9 29.6 15.5c-4.5 3.6-5.7 10.5-9.3 14.9-3.6 4.5-10 7.2-12.5 12.4-2.5 5.1-.6 11.8-1.9 17.5C4.6 65.7 0 71 0 76.8c0 5.8 4.6 11.1 5.8 16.6 1.3 5.7-.6 12.4 1.9 17.5 2.5 5.2 8.9 7.9 12.5 12.4 3.6 4.5 4.8 11.3 9.3 14.9 4.5 3.6 11.4 3.3 16.6 5.8 5.1 2.5 9.2 8.1 14.9 9.4 5.5 1.3 11.6-2 17.5-2s12 3.3 17.5 2c5.7-1.3 9.8-6.9 14.9-9.4 5.2-2.5 12.2-2.2 16.6-5.8 4.5-3.6 5.7-10.5 9.3-14.9 3.5-4.5 10-7.2 12.5-12.4 2.5-5.1.6-11.8 1.9-17.5 1.2-5.5 5.8-10.7 5.8-16.6zm-33.6-20.3l2.4 7.1 4.5-1.5-2.3-6.8 2.5-.9 2.3 6.8 5.6-1.9-2.4-7.1 2.5-.9 3.3 9.8-17.7 6-3.3-9.8 2.6-.8zM98.5 17.1c1.2-2.2 4.2-3.1 6.5-1.8s3.2 4.2 2 6.5c-1.2 2.2-4.2 3.1-6.5 1.8s-3.2-4.3-2-6.5zm16.5 3.5l.8 1.4-19.5 11.9-.8-1.4L115 20.6zm-2.2 16.8c-1.2 2.2-4.2 3.1-6.5 1.8s-3.2-4.2-2-6.5c1.2-2.2 4.2-3.1 6.5-1.8s3.2 4.3 2 6.5zm-1.4 39.4c0 18.2-14.8 32.9-32.9 32.9-18.2 0-32.9-14.7-32.9-32.9s14.7-32.9 32.9-32.9 32.9 14.7 32.9 32.9zm-34.3-57c.3-2.5 1.1-5.7 3.4-7.9 1.4-1.3 3-1.9 4.7-1.7 1.8.2 3.2 1 4.3 2.6 1.8 2.6 2 5.9 1.7 8.4-.3 2.6-1.1 5.7-3.4 7.9-1.4 1.3-3 1.9-4.7 1.7-1.8-.2-3.2-1-4.3-2.6-1.8-2.6-2-5.8-1.7-8.4zm-17.8-5c.9-1.7 2.2-2.7 3.9-3.1 1.7-.4 3.3 0 4.9 1.1 2.6 1.9 3.8 4.9 4.4 7.4.6 2.5.8 5.7-.6 8.5-.9 1.7-2.2 2.7-3.9 3.1-1.7.4-3.3 0-4.9-1.1-2.6-1.9-3.8-4.8-4.3-7.4-.7-2.4-1-5.7.5-8.5zm-16.2 5.6l4.2-2.4 9.9 17.4-2.7 1.5-8.5-15-3 1.7.1-3.2zM20.4 50.9L38 57.3l-1.4 3.9c-.4 1.1-1 2.5-2.3 3.5-1.5 1.1-3.5 1.2-5.1.6-1.1-.4-2.5-1.2-3.2-3.1-.7-1.8-.3-3.5.2-4.8l.4-1.2-7.1-2.6.9-2.7zm-4.6 15.5l18.5 2.2-.3 2.9-15.9-1.9-.6 5.4-2.7-.3 1-8.3zM17.4 97l-.5-3 4.1-2.7-1.3-7.9-4.8-1.3-.5-3L35.5 85 17.4 97zm11.5 17.4c-2.6-.7-4.2-2.4-5.3-4.3-1.4-2.3-1.7-4.4-1-6.8.7-2.5 2.4-4.6 4.7-6 2.5-1.5 5.2-1.8 7.4-1.2 2.2.5 4.5 2.1 6 4.6.9 1.4 1.4 3.1 1.5 4.8 0 1.8-.4 3.1-.9 4l-2.5-1.1c.4-.9.7-2 .7-3.1 0-1.2-.4-2.3-1-3.3-1.2-2.1-2.9-2.9-4.2-3.3-1.7-.4-3.8-.1-5.5.9-1.6 1-2.9 2.5-3.4 4.2-.5 1.8-.2 3.4.8 5 .8 1.4 1.9 2.3 3.5 2.8 1.4.4 2.5.2 3.5-.3l-2.4-4 2.3-1.3 3.9 6.6-.1.1c-2.9 1.9-5.6 2.4-8 1.7zm4.7 8.2l13-13.4 2.1 2-13 13.4-2.1-2zm21.4 15l-2.7-1.5.6-4.9-6.9-4-4 2.9-2.7-1.5L57.2 116 55 137.6zm19-9.1c-.6 2.6-2.6 4.2-5.1 4.2l4.1 9-3.4-.7-3.7-8.6-.5-.1-1.6 7.5-2.8-.6 3.9-18.3 3.3.7c2.2.5 3.6 1 4.6 2.1 1.6 1.8 1.3 4 1.2 4.8zm4.3 13.2l-.1-18.7h2.9l.1 18.7h-2.9zm14.6-1.1c-2.1.5-3.5 0-4.7-.9-1.2-.9-1.9-2-2.3-3.2l2.6-1.2c.2.9.7 1.7 1.3 2.2.7.5 1.5.8 2.6.6 1.7-.4 2.8-1.9 2.3-3.7-.4-1.9-2-2.3-3.3-2.6l-1.9-.4c-1.6-.3-4.1-1.1-4.7-3.8-.5-2.5.9-5.2 4.3-6 2-.4 3.2 0 3.9.4.6.3 1.2.9 1.8 1.5l-2 1.8c-.3-.4-.6-.7-1.1-1-.6-.3-1.3-.4-2.1-.2-1.7.4-2.4 1.6-2.1 2.7.1.6.5 1.4 2.5 1.8l2 .3c3.7.7 5 2.3 5.5 4.4.7 3.7-1.2 6.6-4.6 7.3zm27.2-12.9l-7.6-8.5 1.9 13.1-11-7.4 4.4 10.6-2.5 1.6-7.4-19.1 13.3 8.8L109 111l13.7 15.1-2.6 1.6zm3.4-9.8l-2.2-1.8 4.3-5.2 2.2 1.8-4.3 5.2zm11.2-7.4l-16.6-8.6 4.3-8.3 2.4 1.2-3 5.8 4.2 2.2 2.9-5.6 2.4 1.2-2.9 5.6 7.6 3.9-1.3 2.6zm8.3-22.9l-8.6 3.6-.1.5 7.5 1.6-.6 2.8-18.2-4 .7-3.3c.5-2.2 1.1-3.6 2.1-4.6 1.8-1.7 4-1.4 4.8-1.2 2.6.6 4.2 2.6 4.2 5.2l9-4-.8 3.4zm-17.7-8.3l-.6-10.3 2.7-.2.4 7.4 4.7-.3-.4-7.2 2.7-.2.4 7.2 5.9-.4-.4-7.4 2.7-.2.6 10.3-18.7 1.3z"/><path class="st0" d="M54 121.4l-5.7 4 4.9 2.8zm10.3-93.2c1.1 1.1 2.2 1.2 3 1 .8-.2 1.7-.7 2.3-2.2.7-1.9.4-4.5 0-6.2-.4-1.7-1.2-4.1-2.7-5.5-1.1-1.1-2.2-1.2-3-1-.8.2-1.7.7-2.3 2.2-.7 1.9-.4 4.4 0 6.1.4 1.8 1.2 4.2 2.7 5.6zm19.1-.1c.8.1 1.9-.1 2.9-1.4 1.3-1.6 1.8-4.1 2-5.8.2-1.8.2-4.3-.8-6.1-.7-1.4-1.7-1.8-2.5-1.9-.8-.1-1.9.1-2.9 1.4-1.3 1.6-1.8 4-2 5.8-.2 1.7-.2 4.3.8 6.1.7 1.4 1.7 1.9 2.5 1.9zM130 85.8c-2.5-.6-3.3 1.8-3.7 3.2l-.2 1 5.8 1.3.2-.9c.2-.8.8-4-2.1-4.6zm-28.5-64.2c1.5.8 2.8 0 3.4-1 .6-1 .5-2.6-1-3.4-1.5-.8-2.8 0-3.4 1-.5 1-.5 2.6 1 3.4zM30.1 62.8c1 .4 2.9.6 4-2.5l.4-1.2-5.5-2-.4 1.2c-.8 2.3-.1 3.9 1.5 4.5zm79.7-30c-1.5-.8-2.8 0-3.4 1s-.5 2.6 1 3.4 2.8 0 3.4-1c.5-.9.5-2.5-1-3.4z"/></svg>