<?xml version="1.0" standalone="no"?>
<!DOCTYPE svg PUBLIC "-//W3C//DTD SVG 1.1//EN" "http://www.w3.org/Graphics/SVG/1.1/DTD/svg11.dtd" >
<svg xmlns="http://www.w3.org/2000/svg" xmlns:xlink="http://www.w3.org/1999/xlink" version="1.1">
<metadata>
Created by FontForge 20160407 at Tue Sep 20 14:57:27 2016
 By Jimmy Warting
Copyright (c) 2012 by Daniel Hernandez &#38; Paula nazal. All rights reserved.
</metadata>
<defs>
<font id="TrendSansOne" horiz-adv-x="861" >
  <font-face 
    font-family="Trend Sans One"
    font-weight="200"
    font-stretch="normal"
    units-per-em="1000"
    panose-1="0 0 0 0 0 0 0 0 0 0"
    ascent="750"
    descent="-250"
    x-height="703"
    cap-height="703"
    bbox="41 -250 1101 991"
    underline-thickness="50"
    underline-position="-100"
    unicode-range="U+0020-2260"
  />
<missing-glyph horiz-adv-x="669" 
 />
    <glyph glyph-name=".notdef" horiz-adv-x="669" 
 />
    <glyph glyph-name="A" unicode="A" horiz-adv-x="806" 
d="M250 140l-61 -140h-130l330 709h28l330 -709h-133l-62 140h-302zM401 481l-107 -242h214z" />
    <glyph glyph-name="AE" unicode="&#xc6;" horiz-adv-x="1012" 
d="M437 0v147h-180l-76 -147h-130l371 703h472v-114h-333v-197h302v-110h-302v-168h333v-114h-457zM437 482l-131 -237h131v237z" />
    <glyph glyph-name="acute" unicode="&#xb4;" horiz-adv-x="639" 
d="M460 518l-236 -68l-20 56l220 110z" />
    <glyph glyph-name="circumflex" unicode="&#x2c6;" horiz-adv-x="639" 
d="M491 493h-107l-65 84l-64 -84h-101l148 177h45z" />
    <glyph glyph-name="dieresis" unicode="&#xa8;" horiz-adv-x="639" 
d="M477 527c0 -34 -28 -63 -62 -63c-35 0 -63 29 -63 63c0 35 28 63 63 63c34 0 62 -28 62 -63zM287 527c0 -34 -28 -63 -63 -63c-34 0 -63 29 -63 63c0 35 29 63 63 63c35 0 63 -28 63 -63z" />
    <glyph glyph-name="grave" unicode="`" horiz-adv-x="639" 
d="M440 450l-236 68l36 98l220 -110z" />
    <glyph glyph-name="ring" unicode="&#x2da;" horiz-adv-x="639" 
d="M437 571c0 -62 -47 -114 -118 -114s-118 52 -118 114c0 61 47 114 118 114s118 -53 118 -114zM369 571c0 33 -22 57 -50 57s-50 -23 -50 -57s22 -57 50 -57s50 23 50 57z" />
    <glyph glyph-name="tilde" unicode="&#x2dc;" horiz-adv-x="639" 
d="M460 601l74 -43s-41 -99 -144 -99c-70 0 -94 55 -147 55c-47 0 -78 -50 -78 -50l-68 55s42 87 146 87c73 0 108 -56 149 -56c43 0 68 51 68 51z" />
    <glyph glyph-name="B" unicode="B" horiz-adv-x="758" 
d="M146 0v703h225c181 0 262 -75 262 -186c0 -76 -44 -130 -123 -158c97 -28 142 -85 142 -160c0 -125 -121 -199 -281 -199h-225zM347 309h-77v-195h107c105 0 141 46 141 98c0 48 -40 97 -171 97zM377 589h-107v-191h89c101 -1 145 51 145 104c0 48 -36 87 -127 87z" />
    <glyph glyph-name="C" unicode="C" horiz-adv-x="819" 
d="M692 153l38 -106s-91 -59 -234 -59c-238 0 -396 156 -396 364c0 203 171 363 379 363c154 0 248 -57 248 -57l-43 -106s-93 46 -184 46c-165 0 -266 -104 -266 -248c0 -141 108 -245 254 -245c119 0 204 48 204 48z" />
    <glyph glyph-name="Ccedilla" unicode="&#xc7;" horiz-adv-x="818" 
d="M691 153l38 -106s-91 -59 -234 -59h-6l-14 -35c49 -2 101 -28 101 -93s-48 -110 -130 -110c-69 0 -115 37 -115 37l29 59s28 -23 83 -23c34 0 49 10 49 37c0 20 -23 38 -101 40l-12 15l29 81c-189 32 -309 174 -309 356c0 203 171 363 379 363c154 0 248 -57 248 -57
l-43 -106s-93 46 -184 46c-165 0 -266 -104 -266 -248c0 -141 108 -245 254 -245c119 0 204 48 204 48z" />
    <glyph glyph-name="cedilla" unicode="&#xb8;" horiz-adv-x="639" 
d="M256 -100l-12 15l36 99h84l-24 -61c49 -2 101 -28 101 -93s-48 -110 -130 -110c-69 0 -115 37 -115 37l29 59s28 -23 83 -23c34 0 49 10 49 37c0 20 -23 38 -101 40z" />
    <glyph glyph-name="D" unicode="D" horiz-adv-x="888" 
d="M146 0v703h265c218 0 376 -147 376 -351c0 -201 -161 -352 -376 -352h-265zM412 589h-141v-475h141c136 0 242 99 242 236c0 138 -101 239 -242 239z" />
    <glyph glyph-name="Delta" unicode="&#x2206;" horiz-adv-x="785" 
d="M715 0h-645v85l269 618h107l269 -618v-85zM600 101l-207 476l-208 -476h415z" />
    <glyph glyph-name="E" unicode="E" horiz-adv-x="721" 
d="M146 0v703h457v-114h-333v-197h302v-110h-302v-168h333v-114h-457z" />
    <glyph glyph-name="Eth" unicode="&#xd0;" horiz-adv-x="893" 
d="M151 0v299h-54v87h54v317h265c218 0 376 -147 376 -351c0 -201 -161 -352 -376 -352h-265zM417 589h-141v-203h69v-87h-69v-185h141c136 0 242 99 242 236c0 138 -101 239 -242 239z" />
    <glyph glyph-name="Euro" unicode="&#x20ac;" horiz-adv-x="880" 
d="M549 236h-249c40 -80 127 -131 235 -131c122 0 209 53 209 53l38 -106s-93 -64 -239 -64c-196 0 -338 101 -385 248h-61v87h46c-1 8 -1 19 -1 29c0 11 0 23 1 34h-46v87h64c51 142 196 242 365 242c157 0 253 -62 253 -62l-43 -106s-96 51 -189 51
c-118 0 -204 -49 -245 -125h247v-87h-271c-2 -12 -2 -24 -2 -36c0 -9 0 -18 1 -27h272v-87z" />
    <glyph glyph-name="F" unicode="F" horiz-adv-x="691" 
d="M146 0v703h457v-114h-334v-205h296v-110h-296v-274h-123z" />
    <glyph glyph-name="G" unicode="G" horiz-adv-x="876" 
d="M452 369h316v-301s-105 -80 -272 -80c-238 0 -396 156 -396 364c0 203 171 363 379 363c157 0 248 -57 248 -57l-43 -106s-91 46 -184 46c-165 0 -266 -104 -266 -248c0 -141 108 -245 254 -245c65 0 122 14 160 28v125h-196v111z" />
    <glyph glyph-name="H" unicode="H" horiz-adv-x="883" 
d="M613 0v277h-343v-277h-124v703h124v-316h343v315h124v-702h-124z" />
    <glyph glyph-name="I" unicode="I" horiz-adv-x="416" 
d="M146 0v703h124v-703h-124z" />
    <glyph glyph-name="J" unicode="J" horiz-adv-x="596" 
d="M43 40l47 102s58 -39 130 -39c97 0 111 62 111 139v461h126v-462c0 -159 -63 -253 -235 -253c-111 0 -179 52 -179 52z" />
    <glyph glyph-name="K" unicode="K" horiz-adv-x="789" 
d="M146 0v703h124v-344l299 344h151l-324 -370l340 -333h-155l-311 301v-301h-124z" />
    <glyph glyph-name="L" unicode="L" horiz-adv-x="659" 
d="M146 0v703h124v-589h333v-114h-457z" />
    <glyph glyph-name="Lslash" unicode="&#x141;" horiz-adv-x="665" 
d="M86 243v95l66 30v335h124v-279l124 57v-95l-124 -57v-215h333v-114h-457v273z" />
    <glyph glyph-name="M" unicode="M" horiz-adv-x="999" 
d="M843 706l20 -706h-122l-3 404l-217 -410h-43l-219 403l-2 -397h-121l20 706h55l292 -512l285 512h55z" />
    <glyph glyph-name="N" unicode="N" horiz-adv-x="890" 
d="M146 0v707h39l435 -453v449h124v-708h-33l-441 441v-436h-124z" />
    <glyph glyph-name="O" unicode="O" horiz-adv-x="951" 
d="M100 352c0 203 164 363 375 363c218 0 376 -153 376 -363c0 -207 -161 -363 -376 -363s-375 155 -375 363zM234 350c0 -141 106 -252 242 -252s242 109 242 252c0 144 -101 253 -242 253c-139 0 -242 -109 -242 -253z" />
    <glyph glyph-name="OE" unicode="&#x152;" horiz-adv-x="1050" 
d="M932 0h-457c-215 0 -374 144 -374 352c0 202 163 351 374 351h457v-114h-333v-197h302v-110h-302v-168h333v-114zM235 350c0 -141 105 -240 240 -241v482c-138 -1 -240 -98 -240 -241z" />
    <glyph glyph-name="Omega" unicode="&#x2126;" horiz-adv-x="975" 
d="M838 0h-265v103c127 27 184 125 184 241c0 156 -102 254 -269 254c-168 0 -269 -97 -269 -254c0 -115 56 -214 180 -242v-102h-266v100h110c-78 47 -135 145 -135 250c0 205 142 348 380 348c237 0 380 -143 380 -348c0 -105 -59 -204 -138 -250h108v-100z" />
    <glyph glyph-name="P" unicode="P" horiz-adv-x="726" 
d="M337 204h-67v-204h-124v703h215c187 0 281 -103 281 -250s-93 -249 -305 -249zM352 589h-82v-275h82c116 0 156 62 156 139s-39 136 -156 136z" />
    <glyph glyph-name="Q" unicode="Q" horiz-adv-x="951" 
d="M824 -70l-75 -86l-174 157c-32 -7 -65 -12 -100 -12c-215 0 -375 155 -375 363c0 203 164 363 375 363c218 0 376 -153 376 -363c0 -129 -63 -237 -162 -300zM234 350c0 -141 106 -252 242 -252c133 0 242 116 242 252c0 144 -101 253 -242 253
c-139 0 -242 -109 -242 -253z" />
    <glyph glyph-name="R" unicode="R" horiz-adv-x="779" 
d="M146 0v703h225c187 0 281 -103 281 -250c0 -97 -40 -174 -128 -215l180 -238h-145l-149 207c-20 -2 -41 -3 -63 -3h-77v-204h-124zM362 589h-92v-275h92c116 0 156 62 156 139s-39 136 -156 136z" />
    <glyph glyph-name="S" unicode="S" horiz-adv-x="669" 
d="M576 190c0 -125 -95 -202 -252 -202c-83 0 -166 28 -230 67l43 112c58 -39 128 -63 191 -63c83 0 121 41 121 86c0 47 -26 75 -153 122c-137 50 -184 115 -184 199c0 106 86 204 236 204c75 0 149 -22 194 -48l-40 -110c-41 23 -103 47 -157 47c-74 0 -108 -41 -108 -90
c0 -45 38 -73 137 -109c157 -61 202 -123 202 -215z" />
    <glyph glyph-name="caron" unicode="&#x2c7;" horiz-adv-x="639" 
d="M485 634l-149 -178h-44l-144 178h106l65 -85l64 85h102z" />
    <glyph glyph-name="T" unicode="T" horiz-adv-x="705" 
d="M57 589v114h591v-114h-231v-589h-125v589h-235z" />
    <glyph glyph-name="Thorn" unicode="&#xde;" horiz-adv-x="727" 
d="M337 107h-67v-107h-124v703h124v-97h91c187 0 281 -103 281 -250s-93 -249 -305 -249zM352 492h-82v-275h82c116 0 156 62 156 139s-39 136 -156 136z" />
    <glyph glyph-name="U" unicode="U" 
d="M138 291v412h124v-412c0 -134 61 -190 167 -190s171 56 171 191v411h124v-412c0 -210 -119 -304 -295 -304s-291 94 -291 304z" />
    <glyph glyph-name="V" unicode="V" horiz-adv-x="808" 
d="M190 703l215 -480l216 480h130l-326 -712h-42l-326 712h133z" />
    <glyph glyph-name="W" unicode="W" horiz-adv-x="1106" 
d="M1032 703l-219 -712h-43l-218 475l-215 -475h-42l-221 712h137l133 -448l189 455h41l191 -454l132 447h135z" />
    <glyph glyph-name="X" unicode="X" horiz-adv-x="800" 
d="M69 703h149l182 -270l187 270h144l-255 -357l256 -346h-150l-184 249l-183 -249h-147l255 336z" />
    <glyph glyph-name="Y" unicode="Y" horiz-adv-x="750" 
d="M555 703h140l-258 -425v-278h-125v279l-258 424h143l179 -311z" />
    <glyph glyph-name="Z" unicode="Z" horiz-adv-x="764" 
d="M109 703h564v-38l-385 -551h376v-114h-581v38l384 551h-358v114z" />
    <glyph glyph-name="Zcaron" unicode="&#x17d;" horiz-adv-x="764" 
d="M546 940l-149 -178h-44l-144 178h106l65 -85l64 85h102zM109 703h564v-38l-385 -551h376v-114h-581v38l384 551h-358v114z" />
    <glyph glyph-name="ae" unicode="&#xe6;" horiz-adv-x="1033" 
d="M458 0v168h-196v-168h-125v388c0 216 120 315 321 315h457v-114h-333v-197h302v-110h-302v-168h333v-114h-457zM262 388v-122h196v323c-115 -1 -196 -60 -196 -201z" />
    <glyph glyph-name="ampersand" unicode="&#x26;" horiz-adv-x="848" 
d="M99 185c0 108 67 157 143 192c-54 53 -77 105 -77 154c0 119 88 188 208 188s199 -70 199 -173c0 -114 -67 -162 -141 -194l150 -139c66 70 107 145 107 145l87 -62s-46 -78 -123 -156l89 -91c-2 -3 -80 -84 -80 -84l-97 99c-63 -45 -136 -78 -216 -78
c-159 0 -249 91 -249 199zM358 93c48 0 93 18 133 44l-177 166c-48 -23 -84 -53 -84 -109c0 -64 48 -101 128 -101zM289 531c0 -38 30 -67 71 -105c54 24 96 52 96 105c0 47 -30 87 -83 87s-84 -39 -84 -87z" />
    <glyph glyph-name="approxequal" unicode="&#x2248;" horiz-adv-x="700" 
d="M493 490l74 -43s-41 -99 -144 -99c-70 0 -94 55 -147 55c-47 0 -78 -50 -78 -50l-68 55s42 87 146 87c73 0 108 -56 149 -56c43 0 68 51 68 51zM496 253l74 -43s-41 -99 -144 -99c-70 0 -94 55 -147 55c-47 0 -78 -50 -78 -50l-68 55s42 87 146 87c73 0 108 -56 149 -56
c43 0 68 51 68 51z" />
    <glyph glyph-name="asciitilde" unicode="~" horiz-adv-x="690" 
d="M489 418l74 -43s-41 -99 -144 -99c-70 0 -94 55 -147 55c-47 0 -78 -50 -78 -50l-68 55s42 87 146 87c73 0 108 -56 149 -56c43 0 68 51 68 51z" />
    <glyph glyph-name="asciicircum" unicode="^" horiz-adv-x="583" 
d="M460 461h-107l-65 84l-64 -84h-101l148 177h45z" />
    <glyph glyph-name="asterisk" unicode="*" horiz-adv-x="559" 
d="M409 443l-103 71l10 -125h-73l10 126l-104 -72l-36 63l114 55l-114 53l36 64l104 -72l-10 126h73l-10 -125l103 71l37 -64l-114 -53l114 -55z" />
    <glyph glyph-name="at" unicode="@" horiz-adv-x="1158" 
d="M402 -80l-53 -81c-174 83 -251 254 -251 434c0 268 187 454 480 454c290 0 476 -176 476 -429c0 -199 -122 -283 -270 -283c-52 0 -78 18 -88 57v1c-24 -25 -78 -67 -163 -67c-150 0 -229 109 -229 252c0 141 97 245 259 245c124 0 233 -72 233 -195v-183
c1 -21 8 -26 24 -26c83 0 133 54 133 199c0 212 -152 340 -375 340c-225 0 -377 -138 -377 -365c0 -155 63 -280 201 -353zM693 154v154c0 67 -55 106 -136 106c-84 0 -149 -66 -149 -157c0 -104 52 -162 152 -162c66 0 110 34 133 59z" />
    <glyph glyph-name="backslash" unicode="\" horiz-adv-x="457" 
d="M392 -216h-90l-238 924h89z" />
    <glyph glyph-name="bar" unicode="|" horiz-adv-x="373" 
d="M232 -216h-91v934h91v-934z" />
    <glyph glyph-name="braceleft" unicode="{" horiz-adv-x="457" 
d="M360 -223c-123 0 -189 65 -189 182v179c0 43 -13 65 -62 65h-23v81h23c49 0 62 22 62 65v178c0 117 66 183 189 183v-93c-62 0 -92 -25 -92 -100v-161c0 -63 -16 -87 -73 -113c57 -26 73 -49 73 -113v-160c0 -76 30 -101 92 -101v-92z" />
    <glyph glyph-name="braceright" unicode="}" horiz-adv-x="457" 
d="M371 203h-23c-49 0 -62 -22 -62 -65v-179c0 -117 -65 -182 -189 -182v92c62 0 93 25 93 101v160c0 64 15 87 72 113c-57 26 -72 50 -72 113v161c0 75 -31 100 -93 100v93c124 0 189 -66 189 -183v-178c0 -43 13 -65 62 -65h23v-81z" />
    <glyph glyph-name="bracketleft" unicode="[" horiz-adv-x="454" 
d="M362 -216h-221v919h221v-87h-126v-746h126v-86z" />
    <glyph glyph-name="bracketright" unicode="]" horiz-adv-x="454" 
d="M313 -216h-221v86h125v746h-125v87h221v-919z" />
    <glyph glyph-name="breve" unicode="&#x2d8;" horiz-adv-x="639" 
d="M462 603c0 -75 -53 -142 -143 -142c-89 0 -142 67 -142 142h88c0 -44 20 -66 54 -66c35 0 55 22 55 66h88z" />
    <glyph glyph-name="brokenbar" unicode="&#xa6;" horiz-adv-x="379" 
d="M235 320h-91v383h91v-383zM144 200h91v-416h-91v416z" />
    <glyph glyph-name="bullet" unicode="&#x2022;" horiz-adv-x="534" 
d="M396 366c0 -73 -58 -131 -129 -131c-72 0 -130 58 -130 131c0 74 58 132 130 132c71 0 129 -58 129 -132z" />
    <glyph glyph-name="ccedilla" unicode="&#xe7;" horiz-adv-x="818" 
d="M691 153l38 -106s-91 -59 -234 -59h-6l-14 -35c49 -2 101 -28 101 -93s-48 -110 -130 -110c-69 0 -115 37 -115 37l29 59s28 -23 83 -23c34 0 49 10 49 37c0 20 -23 38 -101 40l-12 15l29 81c-189 32 -309 174 -309 356c0 203 171 363 379 363c154 0 248 -57 248 -57
l-43 -106s-93 46 -184 46c-165 0 -266 -104 -266 -248c0 -141 108 -245 254 -245c119 0 204 48 204 48z" />
    <glyph glyph-name="cent" unicode="&#xa2;" horiz-adv-x="701" 
d="M460 733v-99c87 -12 139 -44 139 -44l-35 -95s-77 41 -151 41c-128 0 -207 -78 -207 -186c0 -105 84 -183 197 -183c98 0 168 43 168 43l30 -95s-61 -42 -158 -50v-115h-99v119c-156 26 -255 138 -255 283c0 148 119 267 271 285v96h100z" />
    <glyph glyph-name="colon" unicode=":" horiz-adv-x="407" 
d="M276 58c0 -40 -31 -73 -72 -73c-42 0 -73 33 -73 73s31 73 73 73c41 0 72 -33 72 -73zM276 411c0 -40 -32 -73 -73 -73c-42 0 -73 33 -73 73s31 73 73 73c41 0 73 -33 73 -73z" />
    <glyph glyph-name="comma" unicode="," horiz-adv-x="399" 
d="M203 -17v2c-2 -1 -6 -1 -7 -1c-43 0 -75 33 -75 75c0 41 32 75 75 75c57 0 81 -43 81 -99c0 -63 -33 -122 -112 -179l-29 34c34 26 67 74 67 93z" />
    <glyph glyph-name="copyright" unicode="&#xa9;" horiz-adv-x="944" 
d="M843 351c0 -200 -166 -363 -371 -363s-371 163 -371 363s166 364 371 364s371 -164 371 -364zM761 351c0 159 -129 289 -289 289s-289 -130 -289 -289c0 -158 129 -288 289 -288s289 130 289 288zM616 192c-33 -20 -80 -35 -126 -35c-122 0 -207 83 -207 197
c0 113 85 197 207 197c47 0 90 -14 123 -33l-24 -78c-29 16 -65 27 -99 27c-73 0 -116 -45 -116 -113c0 -67 44 -112 117 -112c34 0 72 11 102 28z" />
    <glyph glyph-name="dagger" unicode="&#x2020;" horiz-adv-x="664" 
d="M391 1h-118v402h-190v118h190l1 209h117v-209h190v-118h-190v-402z" />
    <glyph glyph-name="daggerdbl" unicode="&#x2021;" horiz-adv-x="724" 
d="M421 1h-118v162h-190v118h190v165h-190v118h190l1 171h117v-171h190v-118h-190v-165h190v-118h-190v-162z" />
    <glyph glyph-name="degree" unicode="&#xb0;" horiz-adv-x="550" 
d="M443 567c0 -92 -73 -166 -168 -166s-168 74 -168 166c0 93 73 163 168 163s168 -70 168 -163zM275 482c45 0 81 35 81 85s-37 80 -81 80c-45 0 -81 -30 -81 -80s36 -85 81 -85z" />
    <glyph glyph-name="divide" unicode="&#xf7;" horiz-adv-x="567" 
d="M114 246v84h339v-84h-339zM226 429c0 32 26 58 58 58s57 -26 57 -58c0 -31 -25 -57 -57 -57s-58 26 -58 57zM226 147c0 32 26 58 58 58s57 -26 57 -58s-25 -58 -57 -58s-58 26 -58 58z" />
    <glyph glyph-name="dollar" unicode="$" horiz-adv-x="564" 
d="M344 763v-99c43 -5 83 -19 111 -35l-32 -103c-32 18 -78 37 -118 37c-53 0 -75 -27 -75 -57c0 -40 24 -65 86 -95c114 -54 150 -97 150 -174c0 -80 -52 -149 -139 -169v-118h-99v115c-51 7 -101 26 -140 50l35 105c46 -31 102 -51 152 -51c52 0 74 30 74 62
c0 41 -13 69 -95 106c-102 46 -139 96 -139 166c0 69 46 134 129 156v104h100z" />
    <glyph glyph-name="dotaccent" unicode="&#x2d9;" horiz-adv-x="609" 
d="M242 527c0 35 28 63 62 63c35 0 63 -28 63 -63c0 -34 -28 -63 -63 -63c-34 0 -62 29 -62 63z" />
    <glyph glyph-name="dotlessi" unicode="&#x131;" horiz-adv-x="416" 
d="M146 0v703h124v-703h-124z" />
    <glyph glyph-name="eight" unicode="8" horiz-adv-x="722" 
d="M361 -12c-155 0 -255 99 -255 222c0 81 48 143 113 166c-55 25 -93 81 -93 141c0 131 106 198 235 198s235 -67 235 -198c0 -60 -38 -116 -93 -141c64 -24 113 -85 113 -166c0 -123 -100 -222 -255 -222zM361 99c66 0 121 37 121 111c0 71 -55 107 -121 107
s-121 -36 -121 -107c0 -74 55 -111 121 -111zM361 421c54 0 101 31 101 96s-47 97 -101 97s-101 -32 -101 -97s47 -96 101 -96z" />
    <glyph glyph-name="ellipsis" unicode="&#x2026;" horiz-adv-x="924" 
d="M271 60c0 -42 -33 -75 -75 -75c-43 0 -75 33 -75 75c0 41 32 75 75 75c42 0 75 -34 75 -75zM537 60c0 -42 -33 -75 -75 -75c-43 0 -75 33 -75 75c0 41 32 75 75 75c42 0 75 -34 75 -75zM803 60c0 -42 -33 -75 -75 -75c-43 0 -75 33 -75 75c0 41 32 75 75 75
c42 0 75 -34 75 -75z" />
    <glyph glyph-name="emdash" unicode="&#x2014;" horiz-adv-x="902" 
d="M776 206h-650v77h650v-77z" />
    <glyph glyph-name="endash" unicode="&#x2013;" horiz-adv-x="654" 
d="M527 206h-400v77h400v-77z" />
    <glyph glyph-name="equal" unicode="=" horiz-adv-x="663" 
d="M533 347h-403v97h403v-97zM533 121h-403v97h403v-97z" />
    <glyph glyph-name="eth" unicode="&#xf0;" horiz-adv-x="893" 
d="M151 0v299h-54v87h54v317h265c218 0 376 -147 376 -351c0 -201 -161 -352 -376 -352h-265zM417 589h-141v-203h69v-87h-69v-185h141c136 0 242 99 242 236c0 138 -101 239 -242 239z" />
    <glyph glyph-name="exclam" unicode="!" horiz-adv-x="396" 
d="M261 733l-24 -528h-78l-24 528h126zM273 60c0 -42 -33 -75 -75 -75c-43 0 -75 33 -75 75c0 41 32 75 75 75c42 0 75 -34 75 -75z" />
    <glyph glyph-name="exclamdown" unicode="&#xa1;" horiz-adv-x="394" 
d="M236 528l24 -528h-126l24 528h78zM272 666c0 -41 -33 -75 -75 -75c-43 0 -75 34 -75 75c0 42 32 75 75 75c42 0 75 -33 75 -75z" />
    <glyph glyph-name="five" unicode="5" horiz-adv-x="668" 
d="M530 589h-257v-165c14 1 27 3 41 3c144 0 256 -54 256 -216c0 -126 -90 -223 -264 -223c-144 0 -214 60 -214 60l44 102s58 -52 166 -52c87 0 135 55 135 117c0 72 -60 115 -153 115c-60 0 -111 -12 -111 -12s-27 25 -31 27v358h388v-114z" />
    <glyph glyph-name="florin" unicode="&#x192;" horiz-adv-x="697" 
d="M294 427l13 92c18 126 80 198 208 198c78 0 116 -52 116 -52l-61 -102c-2 2 -31 39 -69 39c-50 0 -62 -40 -68 -83l-15 -92h132l-16 -114h-132l-18 -127c-18 -126 -80 -198 -208 -198c-78 0 -117 52 -117 52l62 101c1 -2 31 -38 69 -38c50 0 62 40 68 83l20 127h-135
l15 114h136z" />
    <glyph glyph-name="four" unicode="4" horiz-adv-x="700" 
d="M539 0h-124v149h-327v83l158 483l111 -39l-126 -414h184v248h124v-248h74v-113h-74v-149z" />
    <glyph glyph-name="fraction" unicode="&#x2044;" horiz-adv-x="641" 
d="M578 557l-474 -575l-51 44l474 574z" />
    <glyph glyph-name="germandbls" unicode="&#xdf;" horiz-adv-x="736" 
d="M264 0h-124v510c0 139 95 205 231 205c133 0 226 -65 226 -197s-119 -156 -119 -209c0 -64 171 -102 171 -309h-138c0 154 -164 165 -164 309c0 107 116 79 116 205c0 55 -51 84 -99 84c-65 0 -100 -40 -100 -111v-487z" />
    <glyph glyph-name="greater" unicode="&#x3e;" horiz-adv-x="532" 
d="M437 207l-306 -190v107l220 135l-220 134v109l306 -192v-103z" />
    <glyph glyph-name="guillemotleft" unicode="&#xab;" horiz-adv-x="602" 
d="M479 9h-106l-105 164l105 163h106l-109 -163zM306 9h-106l-105 164l105 163h106l-109 -163z" />
    <glyph glyph-name="guillemotright" unicode="&#xbb;" horiz-adv-x="603" 
d="M508 173l-105 -164h-107l110 164l-110 163h107zM335 173l-105 -164h-107l110 164l-110 163h107z" />
    <glyph glyph-name="guilsinglleft" unicode="&#x2039;" horiz-adv-x="429" 
d="M306 9h-106l-105 164l105 163h106l-109 -163z" />
    <glyph glyph-name="guilsinglright" unicode="&#x203a;" horiz-adv-x="429" 
d="M334 173l-105 -164h-106l109 164l-109 163h106z" />
    <glyph glyph-name="hungarumlaut" unicode="&#x2dd;" horiz-adv-x="639" 
d="M348 611l-145 -155l-42 37l112 182zM507 601l-147 -154l-42 38l113 180z" />
    <glyph glyph-name="hyphen" unicode="-" horiz-adv-x="508" 
d="M378 201h-248v87h248v-87z" />
    <glyph glyph-name="infinity" unicode="&#x221e;" horiz-adv-x="732" 
d="M366 260c-25 -31 -64 -50 -108 -50c-80 0 -141 61 -141 139s60 138 141 138c44 0 83 -19 108 -49c25 30 63 49 108 49c81 0 141 -60 141 -138s-60 -139 -141 -139c-45 0 -83 19 -108 50zM534 334c9 33 -13 65 -45 74c-33 9 -65 -13 -74 -46s12 -64 45 -72
c33 -9 64 11 74 44zM317 334c10 33 -12 65 -45 74c-32 9 -64 -13 -73 -46s12 -64 45 -72c33 -9 64 11 73 44z" />
    <glyph glyph-name="integral" unicode="&#x222b;" horiz-adv-x="602" 
d="M364 186c0 -126 -52 -198 -180 -198c-78 0 -124 52 -124 52l47 102s36 -39 75 -39c50 0 56 40 56 83v318c0 126 52 198 180 198c78 0 124 -52 124 -52l-47 -102s-36 39 -75 39c-50 0 -56 -40 -56 -83v-318z" />
    <glyph glyph-name="less" unicode="&#x3c;" horiz-adv-x="531" 
d="M400 17l-305 190v103l305 192v-109l-220 -134l220 -135v-107z" />
    <glyph glyph-name="logicalnot" unicode="&#xac;" horiz-adv-x="690" 
d="M559 102h-96v131h-333v88h429v-219z" />
    <glyph glyph-name="lslash" unicode="&#x142;" horiz-adv-x="665" 
d="M86 243v95l66 30v335h124v-279l124 57v-95l-124 -57v-215h333v-114h-457v273z" />
    <glyph glyph-name="macron" unicode="&#xaf;" horiz-adv-x="639" 
d="M463 474h-287v86h287v-86z" />
    <glyph glyph-name="minus" unicode="&#x2212;" horiz-adv-x="599" 
d="M130 245v87h339v-87h-339z" />
    <glyph glyph-name="multiply" unicode="&#xd7;" horiz-adv-x="572" 
d="M123 393l60 61l102 -105l103 105l61 -61l-104 -105l104 -105l-61 -60l-103 104l-102 -104l-60 60l103 105z" />
    <glyph glyph-name="nine" unicode="9" horiz-adv-x="700" 
d="M240 -29l-70 109c148 68 252 161 277 238c-21 -29 -71 -67 -140 -67c-131 0 -216 79 -216 228c0 132 92 237 256 237c148 0 252 -104 252 -267c0 -239 -148 -358 -359 -478zM464 479c0 82 -53 126 -119 126s-120 -43 -120 -126s54 -127 120 -127s119 45 119 127z" />
    <glyph glyph-name="notequal" unicode="&#x2260;" horiz-adv-x="690" 
d="M546 121h-199l-35 -121h-112l35 121h-91v97h120l37 129h-157v97h185l25 85h112l-25 -85h105v-97h-133l-37 -129h170v-97z" />
    <glyph glyph-name="numbersign" unicode="#" horiz-adv-x="800" 
d="M641 124h-104l-36 -124h-111l36 124h-139l-36 -124h-111l36 124h-76v104h106l29 99h-80v104h110l29 98h111l-28 -98h138l29 98h111l-28 -98h69v-104h-100l-29 -99h74v-104zM456 228l29 99h-139l-29 -99h139z" />
    <glyph glyph-name="ogonek" unicode="&#x2db;" horiz-adv-x="639" 
d="M398 -140l22 -51s-38 -32 -88 -32c-61 0 -101 36 -101 99c0 98 106 164 106 164l42 -32s-70 -56 -70 -119c0 -29 15 -44 40 -44c27 0 49 15 49 15z" />
    <glyph glyph-name="one" unicode="1" horiz-adv-x="527" 
d="M381 0h-124v546l-148 -57l-42 105l284 109h30v-703z" />
    <glyph glyph-name="onehalf" unicode="&#xbd;" horiz-adv-x="750" 
d="M149 -15l-62 47l493 712l63 -44zM242 418h-65v215l-59 -23l-17 57l114 44h27v-293zM644 0h-200v41s54 48 89 90c26 31 38 49 38 64c0 19 -12 36 -46 36c-47 0 -65 -20 -65 -20l-18 63s30 24 92 24c71 0 108 -45 108 -96c0 -44 -14 -63 -41 -90c-19 -19 -48 -51 -48 -51
h91v-61z" />
    <glyph glyph-name="onequarter" unicode="&#xbc;" horiz-adv-x="754" 
d="M149 -15l-62 47l493 712l63 -44zM242 418h-65v215l-59 -23l-17 57l114 44h27v-293zM631 0h-65v60h-141v48l64 190l59 -15l-50 -163h68v96h65v-96h29v-60h-29v-60z" />
    <glyph glyph-name="onesuperior" unicode="&#xb9;" horiz-adv-x="373" 
d="M239 418h-65v215l-59 -23l-17 57l114 44h27v-293z" />
    <glyph glyph-name="ordfeminine" unicode="&#xaa;" horiz-adv-x="514" 
d="M309 425v59h-104v-59h-75v164c0 86 47 126 126 126s128 -40 128 -126v-164h-75zM205 589v-45h104v45c0 35 -22 51 -52 51s-52 -16 -52 -51z" />
    <glyph glyph-name="ordmasculine" unicode="&#xba;" horiz-adv-x="524" 
d="M415 567c0 -84 -67 -151 -153 -151s-153 67 -153 151s67 148 153 148s153 -64 153 -148zM262 490c41 0 74 31 74 77c0 45 -34 73 -74 73c-41 0 -74 -28 -74 -73c0 -46 33 -77 74 -77z" />
    <glyph glyph-name="paragraph" unicode="&#xb6;" horiz-adv-x="892" 
d="M501 0h-112v204c-211 0 -303 102 -303 249s94 250 281 250h427v-114h-80v-589h-112v589h-101v-589z" />
    <glyph glyph-name="parenleft" unicode="(" horiz-adv-x="532" 
d="M453 -139l-52 -80c-201 107 -306 266 -306 472s105 366 306 472l52 -79c-167 -90 -249 -216 -249 -393s82 -302 249 -392z" />
    <glyph glyph-name="parenright" unicode=")" horiz-adv-x="532" 
d="M131 -219l-52 80c167 90 249 215 249 392c0 175 -82 299 -249 388l52 79c201 -105 306 -263 306 -467c0 -206 -105 -365 -306 -472z" />
    <glyph glyph-name="partialdiff" unicode="&#x2202;" horiz-adv-x="701" 
d="M222 624l85 109c172 -106 294 -213 294 -412c0 -210 -131 -333 -296 -333c-148 0 -225 90 -225 206c0 163 102 259 251 259c69 0 113 -38 130 -67c-12 77 -101 170 -239 238zM457 245c0 69 -43 107 -102 107c-74 0 -140 -52 -140 -147c0 -69 45 -106 104 -106
c74 0 138 52 138 146z" />
    <glyph glyph-name="percent" unicode="%" horiz-adv-x="825" 
d="M192 -15l-62 47l493 682l63 -44zM394 567c0 -84 -67 -151 -153 -151s-153 67 -153 151s67 148 153 148s153 -64 153 -148zM241 482c46 0 82 34 82 85c0 50 -37 81 -82 81s-82 -31 -82 -81c0 -51 36 -85 82 -85zM738 140c0 -84 -67 -151 -153 -151s-153 67 -153 151
s67 148 153 148s153 -64 153 -148zM585 55c46 0 82 34 82 85c0 50 -37 81 -82 81s-82 -31 -82 -81c0 -51 36 -85 82 -85z" />
    <glyph glyph-name="period" unicode="." horiz-adv-x="392" 
d="M271 60c0 -42 -33 -75 -75 -75c-43 0 -75 33 -75 75c0 41 32 75 75 75c42 0 75 -34 75 -75z" />
    <glyph glyph-name="periodcentered" unicode="&#xb7;" horiz-adv-x="410" 
d="M280 336c0 -42 -33 -75 -75 -75c-43 0 -75 33 -75 75c0 41 32 75 75 75c42 0 75 -34 75 -75z" />
    <glyph glyph-name="perthousand" unicode="&#x2030;" horiz-adv-x="1173" 
d="M192 -15l-62 47l493 682l63 -44zM394 567c0 -84 -67 -151 -153 -151s-153 67 -153 151s67 148 153 148s153 -64 153 -148zM241 482c46 0 82 34 82 85c0 50 -37 81 -82 81s-82 -31 -82 -81c0 -51 36 -85 82 -85zM738 140c0 -84 -67 -151 -153 -151s-153 67 -153 151
s67 148 153 148s153 -64 153 -148zM585 55c46 0 82 34 82 85c0 50 -37 81 -82 81s-82 -31 -82 -81c0 -51 36 -85 82 -85zM1101 140c0 -84 -67 -151 -153 -151s-153 67 -153 151s67 148 153 148s153 -64 153 -148zM948 55c46 0 82 34 82 85c0 50 -37 81 -82 81
s-82 -31 -82 -81c0 -51 36 -85 82 -85z" />
    <glyph glyph-name="plus" unicode="+" horiz-adv-x="706" 
d="M402 108h-98v208h-207v97h207v208h98v-208h207v-97h-207v-208z" />
    <glyph glyph-name="plusminus" unicode="&#xb1;" horiz-adv-x="606" 
d="M480 315h-131v-128l-89 1v127h-134v88h134l1 135l88 -1v-134h131v-88zM480 66h-354v88h354v-88z" />
    <glyph glyph-name="product" unicode="&#x220f;" horiz-adv-x="865" 
d="M719 0h-112v604h-349v-604h-112v703h573v-703z" />
    <glyph glyph-name="question" unicode="?" horiz-adv-x="549" 
d="M470 538c0 -167 -193 -174 -193 -319v-22h-101v37c0 168 166 184 166 293c0 58 -43 86 -113 86s-121 -34 -121 -34l-22 100c54 28 105 46 166 46c146 0 218 -90 218 -187zM300 60c0 -42 -33 -75 -75 -75c-43 0 -75 33 -75 75c0 41 32 75 75 75c42 0 75 -34 75 -75z" />
    <glyph glyph-name="questiondown" unicode="&#xbf;" horiz-adv-x="547" 
d="M78 172c0 167 193 174 193 319v22h101v-37c0 -168 -166 -184 -166 -293c0 -58 43 -86 113 -86s121 34 121 34l22 -100c-54 -28 -105 -46 -166 -46c-146 0 -218 90 -218 187zM248 650c0 42 33 75 75 75c43 0 75 -33 75 -75c0 -41 -32 -75 -75 -75c-42 0 -75 34 -75 75z
" />
    <glyph glyph-name="quotedbl" unicode="&#x22;" horiz-adv-x="498" 
d="M212 556h-73l-15 199h102zM360 556h-73l-14 199h101z" />
    <glyph glyph-name="quotedblbase" unicode="&#x201e;" horiz-adv-x="587" 
d="M204 -30v2c-2 -1 -6 -1 -7 -1c-43 0 -75 33 -75 75c0 41 32 75 75 75c57 0 81 -43 81 -99c0 -63 -33 -122 -112 -179l-29 34c34 26 67 74 67 93zM392 -30v2c-2 -1 -6 -1 -7 -1c-43 0 -75 33 -75 75c0 41 32 75 75 75c57 0 81 -43 81 -99c0 -63 -33 -122 -112 -179l-29 34
c34 26 67 74 67 93z" />
    <glyph glyph-name="quotedblleft" unicode="&#x201c;" horiz-adv-x="582" 
d="M383 670v-2c2 1 6 1 7 1c43 0 75 -33 75 -75c0 -41 -32 -75 -75 -75c-57 0 -81 43 -81 99c0 63 33 122 112 179l29 -34c-34 -26 -67 -74 -67 -93zM195 670v-2c2 1 6 1 7 1c43 0 75 -33 75 -75c0 -41 -32 -75 -75 -75c-57 0 -81 43 -81 99c0 63 33 122 112 179l29 -34
c-34 -26 -67 -74 -67 -93z" />
    <glyph glyph-name="quotedblright" unicode="&#x201d;" horiz-adv-x="568" 
d="M199 594v2c-2 -1 -6 -1 -7 -1c-43 0 -75 33 -75 75c0 41 32 75 75 75c57 0 81 -43 81 -99c0 -63 -33 -122 -112 -179l-29 34c34 26 67 74 67 93zM387 594v2c-2 -1 -6 -1 -7 -1c-43 0 -75 33 -75 75c0 41 32 75 75 75c57 0 81 -43 81 -99c0 -63 -33 -122 -112 -179l-29 34
c34 26 67 74 67 93z" />
    <glyph glyph-name="quoteleft" unicode="&#x2018;" horiz-adv-x="394" 
d="M195 668c2 1 6 1 7 1c43 0 75 -33 75 -75c0 -41 -32 -75 -75 -75c-57 0 -81 43 -81 99c0 63 33 122 112 179l29 -34c-34 -26 -67 -74 -67 -93v-2z" />
    <glyph glyph-name="quoteright" unicode="&#x2019;" horiz-adv-x="380" 
d="M199 594v2c-2 -1 -6 -1 -7 -1c-43 0 -75 33 -75 75c0 41 32 75 75 75c57 0 81 -43 81 -99c0 -63 -33 -122 -112 -179l-29 34c34 26 67 74 67 93z" />
    <glyph glyph-name="quotesinglbase" unicode="&#x201a;" horiz-adv-x="399" 
d="M204 -30v2c-2 -1 -6 -1 -7 -1c-43 0 -75 33 -75 75c0 41 32 75 75 75c57 0 81 -43 81 -99c0 -63 -33 -122 -112 -179l-29 34c34 26 67 74 67 93z" />
    <glyph glyph-name="quotesingle" unicode="'" horiz-adv-x="350" 
d="M212 556h-73l-15 199h102z" />
    <glyph glyph-name="radical" unicode="&#x221a;" horiz-adv-x="865" 
d="M320 0h-123l-134 395h114l81 -247l259 707h291v-99h-211z" />
    <glyph glyph-name="registered" unicode="&#xae;" horiz-adv-x="571" 
d="M216 434v196h58c60 0 86 -25 86 -60c0 -24 -14 -47 -37 -59l50 -77h-51l-36 68h-28v-68h-42zM258 595v-59h17c24 0 39 12 39 33c0 15 -14 26 -37 26h-19zM285 387c77 0 138 66 138 144c0 80 -61 146 -138 146c-76 0 -138 -66 -138 -146c0 -79 62 -144 138 -144zM285 349
c-99 0 -179 82 -179 182c0 102 80 184 179 184c100 0 180 -82 180 -184c0 -99 -80 -182 -180 -182z" />
    <glyph glyph-name="section" unicode="&#xa7;" horiz-adv-x="669" 
d="M562 326c0 -49 -15 -94 -43 -131c31 -33 43 -69 43 -116c0 -106 -91 -199 -242 -199c-83 0 -166 28 -230 67l43 112c58 -39 128 -63 191 -63c77 0 111 37 111 76c0 45 -24 68 -138 117c-131 47 -174 120 -174 208c0 48 17 93 50 130c-35 35 -50 74 -50 122
c0 94 88 185 241 185c71 0 141 -22 184 -48l-40 -110c-39 24 -97 47 -147 47c-77 0 -113 -34 -113 -71c0 -45 38 -67 127 -108c148 -55 187 -122 187 -218zM297 451c-9 3 -16 7 -24 11c-17 -17 -25 -39 -25 -62c0 -49 36 -78 127 -118l43 -20c12 16 17 36 17 57
c0 51 -21 85 -138 132z" />
    <glyph glyph-name="semicolon" unicode=";" horiz-adv-x="423" 
d="M282 412c0 -40 -32 -73 -73 -73c-42 0 -73 33 -73 73c0 39 31 72 73 72c41 0 73 -33 73 -72zM216 -17v2c-2 -1 -6 -1 -7 -1c-43 0 -75 33 -75 75c0 41 32 75 75 75c57 0 81 -43 81 -99c0 -63 -33 -122 -112 -179l-29 34c34 26 67 74 67 93z" />
    <glyph glyph-name="seven" unicode="7" horiz-adv-x="662" 
d="M165 254v113h153l96 222h-326v114h485v-65l-119 -271h86v-113h-133l-111 -254h-133l109 254h-107z" />
    <glyph glyph-name="six" unicode="6" horiz-adv-x="700" 
d="M460 733l70 -109c-148 -68 -252 -161 -277 -238c21 29 71 67 140 67c131 0 216 -79 216 -228c0 -132 -92 -237 -256 -237c-148 0 -252 104 -252 267c0 239 148 358 359 478zM236 225c0 -82 53 -126 119 -126s120 43 120 126s-54 127 -120 127s-119 -45 -119 -127z" />
    <glyph glyph-name="slash" unicode="/" horiz-adv-x="457" 
d="M393 733l-238 -949h-90l239 949h89z" />
    <glyph glyph-name="space" unicode=" " horiz-adv-x="420" 
 />
    <glyph glyph-name="sterling" unicode="&#xa3;" horiz-adv-x="689" 
d="M597 650l-47 -102s-52 39 -115 39c-109 0 -126 -70 -126 -158v-100h134v-114h-133v-101h263v-114h-463l-1 114h75v101h-74l-1 114h74v100c-1 171 66 273 250 273c102 0 164 -52 164 -52z" />
    <glyph glyph-name="summation" unicode="&#x2211;" horiz-adv-x="690" 
d="M579 1h-478v75l280 257l-280 294v76h478v-100h-307l255 -270l-254 -233h306v-99z" />
    <glyph glyph-name="thorn" unicode="&#xfe;" horiz-adv-x="727" 
d="M337 107h-67v-107h-124v703h124v-97h91c187 0 281 -103 281 -250s-93 -249 -305 -249zM352 492h-82v-275h82c116 0 156 62 156 139s-39 136 -156 136z" />
    <glyph glyph-name="three" unicode="3" horiz-adv-x="670" 
d="M561 616c0 0 -133 -126 -220 -207c125 -12 216 -66 216 -198c0 -126 -90 -223 -264 -223c-138 0 -204 60 -204 60l44 102s54 -52 156 -52c87 0 135 55 135 117c0 63 -51 100 -145 100c-38 0 -79 -12 -79 -12l-31 80c10 8 152 143 224 206h-268v114h436v-87z" />
    <glyph glyph-name="threequarters" unicode="&#xbe;" horiz-adv-x="765" 
d="M160 -15l-62 47l493 712l63 -44zM642 0h-65v60h-141v48l64 190l59 -15l-50 -163h68v96h65v-96h29v-60h-29v-60zM285 658l-58 -75c42 -8 71 -33 71 -83c0 -51 -36 -90 -106 -90c-55 0 -81 24 -81 24l17 64s22 -21 63 -21c26 0 39 13 39 24c0 20 -15 31 -43 31
c-15 0 -32 -5 -32 -5l-12 47s39 48 59 73h-77v61h160v-50z" />
    <glyph glyph-name="threesuperior" unicode="&#xb3;" horiz-adv-x="427" 
d="M295 658l-58 -75c42 -8 71 -33 71 -83c0 -51 -36 -90 -106 -90c-55 0 -81 24 -81 24l17 64s22 -21 63 -21c26 0 39 13 39 24c0 20 -15 31 -43 31c-15 0 -32 -5 -32 -5l-12 47s39 48 59 73h-77v61h160v-50z" />
    <glyph glyph-name="trademark" unicode="&#x2122;" horiz-adv-x="794" 
d="M663 437h-59l-3 130l-68 -135h-18l-69 135l-2 -130h-60l13 268h23l105 -175l103 175h23zM343 643h-79v-206h-65v206h-79v60h223v-60z" />
    <glyph glyph-name="two" unicode="2" horiz-adv-x="681" 
d="M576 0h-475v65s149 111 229 208c80 94 96 154 96 215c0 62 -46 115 -130 115c-102 0 -156 -50 -156 -50l-44 102s66 60 204 60c171 0 259 -97 259 -223c0 -87 -23 -165 -116 -266c-39 -43 -132 -112 -132 -112h265v-114z" />
    <glyph glyph-name="twosuperior" unicode="&#xb2;" horiz-adv-x="462" 
d="M331 417h-200v41s54 48 89 90c26 31 38 49 38 64c0 19 -12 36 -46 36c-47 0 -65 -20 -65 -20l-18 63s30 24 92 24c71 0 108 -45 108 -96c0 -44 -14 -63 -41 -90c-19 -19 -48 -51 -48 -51h91v-61z" />
    <glyph glyph-name="underscore" unicode="_" horiz-adv-x="780" 
d="M650 0h-520v68h520v-68z" />
    <glyph glyph-name="uni00A0" unicode="&#xa0;" horiz-adv-x="420" 
 />
    <glyph glyph-name="yen" unicode="&#xa5;" horiz-adv-x="762" 
d="M562 703h140l-203 -334h107v-87h-160l-2 -4v-60h162v-87h-162v-131h-125v131h-165v87h165v61l-2 3h-163v87h110l-203 334h143l179 -311z" />
    <glyph glyph-name="zcaron" unicode="&#x17e;" horiz-adv-x="764" 
d="M546 940l-149 -178h-44l-144 178h106l65 -85l64 85h102zM109 703h564v-38l-385 -551h376v-114h-581v38l384 551h-358v114z" />
    <glyph glyph-name="zero" unicode="0" horiz-adv-x="955" 
d="M102 352c0 203 164 363 375 363c218 0 376 -153 376 -363c0 -207 -161 -364 -376 -364s-375 156 -375 364zM236 350c0 -141 106 -253 242 -253s242 110 242 253c0 144 -101 253 -242 253c-139 0 -242 -109 -242 -253z" />
    <glyph glyph-name="oe" unicode="&#x153;" horiz-adv-x="1050" 
d="M932 0h-457c-215 0 -374 144 -374 352c0 202 163 351 374 351h457v-114h-333v-197h302v-110h-302v-168h333v-114zM235 350c0 -141 105 -240 240 -241v482c-138 -1 -240 -98 -240 -241z" />
    <glyph glyph-name="Oslash" unicode="&#xd8;" horiz-adv-x="951" 
d="M100 352c0 203 164 363 375 363c66 0 126 -14 178 -39l34 44l68 -51l-30 -39c79 -65 126 -163 126 -278c0 -207 -161 -363 -376 -363c-74 0 -140 18 -197 50l-44 -59l-68 51l44 58c-69 65 -110 157 -110 263zM718 350c0 72 -25 135 -68 180l-300 -396
c36 -23 79 -36 126 -36c136 0 242 109 242 252zM234 350c0 -61 20 -116 53 -159l294 389c-31 15 -67 23 -105 23c-139 0 -242 -109 -242 -253z" />
    <glyph glyph-name="oslash" unicode="&#xf8;" horiz-adv-x="951" 
d="M100 352c0 203 164 363 375 363c66 0 126 -14 178 -39l34 44l68 -51l-30 -39c79 -65 126 -163 126 -278c0 -207 -161 -363 -376 -363c-74 0 -140 18 -197 50l-44 -59l-68 51l44 58c-69 65 -110 157 -110 263zM718 350c0 72 -25 135 -68 180l-300 -396
c36 -23 79 -36 126 -36c136 0 242 109 242 252zM234 350c0 -61 20 -116 53 -159l294 389c-31 15 -67 23 -105 23c-139 0 -242 -109 -242 -253z" />
    <glyph glyph-name="Agrave" unicode="&#xc0;" horiz-adv-x="806" 
d="M250 140l-61 -140h-130l330 709h28l330 -709h-133l-62 140h-302zM401 481l-107 -242h214zM511 756l-236 68l36 98l220 -110z" />
    <glyph glyph-name="Aacute" unicode="&#xc1;" horiz-adv-x="806" 
d="M250 140l-61 -140h-130l330 709h28l330 -709h-133l-62 140h-302zM401 481l-107 -242h214zM531 824l-236 -68l-20 56l220 110z" />
    <glyph glyph-name="Acircumflex" unicode="&#xc2;" horiz-adv-x="806" 
d="M250 140l-61 -140h-130l330 709h28l330 -709h-133l-62 140h-302zM401 481l-107 -242h214zM571 799h-107l-65 84l-64 -84h-101l148 177h45z" />
    <glyph glyph-name="Atilde" unicode="&#xc3;" horiz-adv-x="806" 
d="M250 140l-61 -140h-130l330 709h28l330 -709h-133l-62 140h-302zM401 481l-107 -242h214zM547 907l74 -43s-41 -99 -144 -99c-70 0 -94 55 -147 55c-47 0 -78 -50 -78 -50l-68 55s42 87 146 87c73 0 108 -56 149 -56c43 0 68 51 68 51z" />
    <glyph glyph-name="Adieresis" unicode="&#xc4;" horiz-adv-x="806" 
d="M250 140l-61 -140h-130l330 709h28l330 -709h-133l-62 140h-302zM401 481l-107 -242h214zM561 833c0 -34 -28 -63 -62 -63c-35 0 -63 29 -63 63c0 35 28 63 63 63c34 0 62 -28 62 -63zM371 833c0 -34 -28 -63 -63 -63c-34 0 -63 29 -63 63c0 35 29 63 63 63
c35 0 63 -28 63 -63z" />
    <glyph glyph-name="Aring" unicode="&#xc5;" horiz-adv-x="806" 
d="M250 140l-61 -140h-130l330 709h28l330 -709h-133l-62 140h-302zM401 481l-107 -242h214zM521 877c0 -62 -47 -114 -118 -114s-118 52 -118 114c0 61 47 114 118 114s118 -53 118 -114zM453 877c0 33 -22 57 -50 57s-50 -23 -50 -57s22 -57 50 -57s50 23 50 57z" />
    <glyph glyph-name="Egrave" unicode="&#xc8;" horiz-adv-x="721" 
d="M146 0v703h457v-114h-333v-197h302v-110h-302v-168h333v-114h-457zM471 756l-236 68l36 98l220 -110z" />
    <glyph glyph-name="Eacute" unicode="&#xc9;" horiz-adv-x="721" 
d="M146 0v703h457v-114h-333v-197h302v-110h-302v-168h333v-114h-457zM491 824l-236 -68l-20 56l220 110z" />
    <glyph glyph-name="Ecircumflex" unicode="&#xca;" horiz-adv-x="721" 
d="M146 0v703h457v-114h-333v-197h302v-110h-302v-168h333v-114h-457zM532 799h-107l-65 84l-64 -84h-101l148 177h45z" />
    <glyph glyph-name="Edieresis" unicode="&#xcb;" horiz-adv-x="721" 
d="M146 0v703h457v-114h-333v-197h302v-110h-302v-168h333v-114h-457zM521 833c0 -34 -28 -63 -62 -63c-35 0 -63 29 -63 63c0 35 28 63 63 63c34 0 62 -28 62 -63zM331 833c0 -34 -28 -63 -63 -63c-34 0 -63 29 -63 63c0 35 29 63 63 63c35 0 63 -28 63 -63z" />
    <glyph glyph-name="Igrave" unicode="&#xcc;" horiz-adv-x="416" 
d="M146 0v703h124v-703h-124zM317 756l-236 68l36 98l220 -110z" />
    <glyph glyph-name="Iacute" unicode="&#xcd;" horiz-adv-x="416" 
d="M146 0v703h124v-703h-124zM337 824l-236 -68l-20 56l220 110z" />
    <glyph glyph-name="Icircumflex" unicode="&#xce;" horiz-adv-x="416" 
d="M146 0v703h124v-703h-124zM378 799h-107l-65 84l-64 -84h-101l148 177h45z" />
    <glyph glyph-name="Idieresis" unicode="&#xcf;" horiz-adv-x="416" 
d="M146 0v703h124v-703h-124zM367 833c0 -34 -28 -63 -62 -63c-35 0 -63 29 -63 63c0 35 28 63 63 63c34 0 62 -28 62 -63zM177 833c0 -34 -28 -63 -63 -63c-34 0 -63 29 -63 63c0 35 29 63 63 63c35 0 63 -28 63 -63z" />
    <glyph glyph-name="Ograve" unicode="&#xd2;" horiz-adv-x="951" 
d="M100 352c0 203 164 363 375 363c218 0 376 -153 376 -363c0 -207 -161 -363 -376 -363s-375 155 -375 363zM234 350c0 -141 106 -252 242 -252s242 109 242 252c0 144 -101 253 -242 253c-139 0 -242 -109 -242 -253zM585 756l-236 68l36 98l220 -110z" />
    <glyph glyph-name="Oacute" unicode="&#xd3;" horiz-adv-x="951" 
d="M100 352c0 203 164 363 375 363c218 0 376 -153 376 -363c0 -207 -161 -363 -376 -363s-375 155 -375 363zM234 350c0 -141 106 -252 242 -252s242 109 242 252c0 144 -101 253 -242 253c-139 0 -242 -109 -242 -253zM605 824l-236 -68l-20 56l220 110z" />
    <glyph glyph-name="Ocircumflex" unicode="&#xd4;" horiz-adv-x="951" 
d="M100 352c0 203 164 363 375 363c218 0 376 -153 376 -363c0 -207 -161 -363 -376 -363s-375 155 -375 363zM234 350c0 -141 106 -252 242 -252s242 109 242 252c0 144 -101 253 -242 253c-139 0 -242 -109 -242 -253zM645 799h-107l-65 84l-64 -84h-101l148 177h45z" />
    <glyph glyph-name="Otilde" unicode="&#xd5;" horiz-adv-x="951" 
d="M100 352c0 203 164 363 375 363c218 0 376 -153 376 -363c0 -207 -161 -363 -376 -363s-375 155 -375 363zM234 350c0 -141 106 -252 242 -252s242 109 242 252c0 144 -101 253 -242 253c-139 0 -242 -109 -242 -253zM621 907l74 -43s-41 -99 -144 -99
c-70 0 -94 55 -147 55c-47 0 -78 -50 -78 -50l-68 55s42 87 146 87c73 0 108 -56 149 -56c43 0 68 51 68 51z" />
    <glyph glyph-name="Odieresis" unicode="&#xd6;" horiz-adv-x="951" 
d="M100 352c0 203 164 363 375 363c218 0 376 -153 376 -363c0 -207 -161 -363 -376 -363s-375 155 -375 363zM234 350c0 -141 106 -252 242 -252s242 109 242 252c0 144 -101 253 -242 253c-139 0 -242 -109 -242 -253zM635 833c0 -34 -28 -63 -62 -63c-35 0 -63 29 -63 63
c0 35 28 63 63 63c34 0 62 -28 62 -63zM445 833c0 -34 -28 -63 -63 -63c-34 0 -63 29 -63 63c0 35 29 63 63 63c35 0 63 -28 63 -63z" />
    <glyph glyph-name="Ugrave" unicode="&#xd9;" 
d="M138 291v412h124v-412c0 -134 61 -190 167 -190s171 56 171 191v411h124v-412c0 -210 -119 -304 -295 -304s-291 94 -291 304zM539 756l-236 68l36 98l220 -110z" />
    <glyph glyph-name="Uacute" unicode="&#xda;" 
d="M138 291v412h124v-412c0 -134 61 -190 167 -190s171 56 171 191v411h124v-412c0 -210 -119 -304 -295 -304s-291 94 -291 304zM559 824l-236 -68l-20 56l220 110z" />
    <glyph glyph-name="Ucircumflex" unicode="&#xdb;" 
d="M138 291v412h124v-412c0 -134 61 -190 167 -190s171 56 171 191v411h124v-412c0 -210 -119 -304 -295 -304s-291 94 -291 304zM599 799h-107l-65 84l-64 -84h-101l148 177h45z" />
    <glyph glyph-name="Udieresis" unicode="&#xdc;" 
d="M138 291v412h124v-412c0 -134 61 -190 167 -190s171 56 171 191v411h124v-412c0 -210 -119 -304 -295 -304s-291 94 -291 304zM589 833c0 -34 -28 -63 -62 -63c-35 0 -63 29 -63 63c0 35 28 63 63 63c34 0 62 -28 62 -63zM399 833c0 -34 -28 -63 -63 -63
c-34 0 -63 29 -63 63c0 35 29 63 63 63c35 0 63 -28 63 -63z" />
    <glyph glyph-name="Yacute" unicode="&#xdd;" horiz-adv-x="750" 
d="M555 703h140l-258 -425v-278h-125v279l-258 424h143l179 -311zM503 824l-236 -68l-20 56l220 110z" />
    <glyph glyph-name="agrave" unicode="&#xe0;" 
d="M599 0v168h-336v-168h-125v401c0 216 108 314 291 314s295 -98 295 -314v-401h-125zM263 401v-135c62 1 303 1 336 1v133c0 150 -70 201 -168 201s-168 -58 -168 -200zM488 756l-236 68l36 98l220 -110z" />
    <glyph glyph-name="aacute" unicode="&#xe1;" 
d="M599 0v168h-336v-168h-125v401c0 216 108 314 291 314s295 -98 295 -314v-401h-125zM263 401v-135c62 1 303 1 336 1v133c0 150 -70 201 -168 201s-168 -58 -168 -200zM565 824l-236 -68l-20 56l220 110z" />
    <glyph glyph-name="acircumflex" unicode="&#xe2;" 
d="M599 0v168h-336v-168h-125v401c0 216 108 314 291 314s295 -98 295 -314v-401h-125zM263 401v-135c62 1 303 1 336 1v133c0 150 -70 201 -168 201s-168 -58 -168 -200zM604 799h-107l-65 84l-64 -84h-101l148 177h45z" />
    <glyph glyph-name="atilde" unicode="&#xe3;" 
d="M599 0v168h-336v-168h-125v401c0 216 108 314 291 314s295 -98 295 -314v-401h-125zM263 401v-135c62 1 303 1 336 1v133c0 150 -70 201 -168 201s-168 -58 -168 -200zM574 907l74 -43s-41 -99 -144 -99c-70 0 -94 55 -147 55c-47 0 -78 -50 -78 -50l-68 55s42 87 146 87
c73 0 108 -56 149 -56c43 0 68 51 68 51z" />
    <glyph glyph-name="adieresis" unicode="&#xe4;" 
d="M599 0v168h-336v-168h-125v401c0 216 108 314 291 314s295 -98 295 -314v-401h-125zM263 401v-135c62 1 303 1 336 1v133c0 150 -70 201 -168 201s-168 -58 -168 -200zM593 833c0 -34 -28 -63 -62 -63c-35 0 -63 29 -63 63c0 35 28 63 63 63c34 0 62 -28 62 -63zM403 833
c0 -34 -28 -63 -63 -63c-34 0 -63 29 -63 63c0 35 29 63 63 63c35 0 63 -28 63 -63z" />
    <glyph glyph-name="aring" unicode="&#xe5;" 
d="M599 0v168h-336v-168h-125v401c0 216 108 314 291 314s295 -98 295 -314v-401h-125zM263 401v-135c62 1 303 1 336 1v133c0 150 -70 201 -168 201s-168 -58 -168 -200zM551 877c0 -62 -47 -114 -118 -114s-118 52 -118 114c0 61 47 114 118 114s118 -53 118 -114z
M483 877c0 33 -22 57 -50 57s-50 -23 -50 -57s22 -57 50 -57s50 23 50 57z" />
    <glyph glyph-name="egrave" unicode="&#xe8;" horiz-adv-x="721" 
d="M146 0v703h457v-114h-333v-197h302v-110h-302v-168h333v-114h-457zM471 756l-236 68l36 98l220 -110z" />
    <glyph glyph-name="eacute" unicode="&#xe9;" horiz-adv-x="721" 
d="M146 0v703h457v-114h-333v-197h302v-110h-302v-168h333v-114h-457zM491 824l-236 -68l-20 56l220 110z" />
    <glyph glyph-name="ecircumflex" unicode="&#xea;" horiz-adv-x="721" 
d="M146 0v703h457v-114h-333v-197h302v-110h-302v-168h333v-114h-457zM532 799h-107l-65 84l-64 -84h-101l148 177h45z" />
    <glyph glyph-name="edieresis" unicode="&#xeb;" horiz-adv-x="721" 
d="M146 0v703h457v-114h-333v-197h302v-110h-302v-168h333v-114h-457zM521 833c0 -34 -28 -63 -62 -63c-35 0 -63 29 -63 63c0 35 28 63 63 63c34 0 62 -28 62 -63zM331 833c0 -34 -28 -63 -63 -63c-34 0 -63 29 -63 63c0 35 29 63 63 63c35 0 63 -28 63 -63z" />
    <glyph glyph-name="igrave" unicode="&#xec;" horiz-adv-x="416" 
d="M146 0v703h124v-703h-124zM317 756l-236 68l36 98l220 -110z" />
    <glyph glyph-name="iacute" unicode="&#xed;" horiz-adv-x="416" 
d="M146 0v703h124v-703h-124zM337 824l-236 -68l-20 56l220 110z" />
    <glyph glyph-name="icircumflex" unicode="&#xee;" horiz-adv-x="416" 
d="M146 0v703h124v-703h-124zM378 799h-107l-65 84l-64 -84h-101l148 177h45z" />
    <glyph glyph-name="idieresis" unicode="&#xef;" horiz-adv-x="416" 
d="M146 0v703h124v-703h-124zM367 833c0 -34 -28 -63 -62 -63c-35 0 -63 29 -63 63c0 35 28 63 63 63c34 0 62 -28 62 -63zM177 833c0 -34 -28 -63 -63 -63c-34 0 -63 29 -63 63c0 35 29 63 63 63c35 0 63 -28 63 -63z" />
    <glyph glyph-name="ntilde" unicode="&#xf1;" horiz-adv-x="890" 
d="M146 0v707h39l435 -453v449h124v-708h-33l-441 441v-436h-124zM590 907l74 -43s-41 -99 -144 -99c-70 0 -94 55 -147 55c-47 0 -78 -50 -78 -50l-68 55s42 87 146 87c73 0 108 -56 149 -56c43 0 68 51 68 51z" />
    <glyph glyph-name="ograve" unicode="&#xf2;" horiz-adv-x="951" 
d="M100 352c0 203 164 363 375 363c218 0 376 -153 376 -363c0 -207 -161 -363 -376 -363s-375 155 -375 363zM234 350c0 -141 106 -252 242 -252s242 109 242 252c0 144 -101 253 -242 253c-139 0 -242 -109 -242 -253zM585 756l-236 68l36 98l220 -110z" />
    <glyph glyph-name="oacute" unicode="&#xf3;" horiz-adv-x="951" 
d="M100 352c0 203 164 363 375 363c218 0 376 -153 376 -363c0 -207 -161 -363 -376 -363s-375 155 -375 363zM234 350c0 -141 106 -252 242 -252s242 109 242 252c0 144 -101 253 -242 253c-139 0 -242 -109 -242 -253zM605 824l-236 -68l-20 56l220 110z" />
    <glyph glyph-name="ocircumflex" unicode="&#xf4;" horiz-adv-x="951" 
d="M100 352c0 203 164 363 375 363c218 0 376 -153 376 -363c0 -207 -161 -363 -376 -363s-375 155 -375 363zM234 350c0 -141 106 -252 242 -252s242 109 242 252c0 144 -101 253 -242 253c-139 0 -242 -109 -242 -253zM645 799h-107l-65 84l-64 -84h-101l148 177h45z" />
    <glyph glyph-name="otilde" unicode="&#xf5;" horiz-adv-x="951" 
d="M100 352c0 203 164 363 375 363c218 0 376 -153 376 -363c0 -207 -161 -363 -376 -363s-375 155 -375 363zM234 350c0 -141 106 -252 242 -252s242 109 242 252c0 144 -101 253 -242 253c-139 0 -242 -109 -242 -253zM621 907l74 -43s-41 -99 -144 -99
c-70 0 -94 55 -147 55c-47 0 -78 -50 -78 -50l-68 55s42 87 146 87c73 0 108 -56 149 -56c43 0 68 51 68 51z" />
    <glyph glyph-name="odieresis" unicode="&#xf6;" horiz-adv-x="951" 
d="M100 352c0 203 164 363 375 363c218 0 376 -153 376 -363c0 -207 -161 -363 -376 -363s-375 155 -375 363zM234 350c0 -141 106 -252 242 -252s242 109 242 252c0 144 -101 253 -242 253c-139 0 -242 -109 -242 -253zM635 833c0 -34 -28 -63 -62 -63c-35 0 -63 29 -63 63
c0 35 28 63 63 63c34 0 62 -28 62 -63zM445 833c0 -34 -28 -63 -63 -63c-34 0 -63 29 -63 63c0 35 29 63 63 63c35 0 63 -28 63 -63z" />
    <glyph glyph-name="ugrave" unicode="&#xf9;" 
d="M138 291v412h124v-412c0 -134 61 -190 167 -190s171 56 171 191v411h124v-412c0 -210 -119 -304 -295 -304s-291 94 -291 304zM539 756l-236 68l36 98l220 -110z" />
    <glyph glyph-name="uacute" unicode="&#xfa;" 
d="M138 291v412h124v-412c0 -134 61 -190 167 -190s171 56 171 191v411h124v-412c0 -210 -119 -304 -295 -304s-291 94 -291 304zM559 824l-236 -68l-20 56l220 110z" />
    <glyph glyph-name="ucircumflex" unicode="&#xfb;" 
d="M138 291v412h124v-412c0 -134 61 -190 167 -190s171 56 171 191v411h124v-412c0 -210 -119 -304 -295 -304s-291 94 -291 304zM599 799h-107l-65 84l-64 -84h-101l148 177h45z" />
    <glyph glyph-name="udieresis" unicode="&#xfc;" 
d="M138 291v412h124v-412c0 -134 61 -190 167 -190s171 56 171 191v411h124v-412c0 -210 -119 -304 -295 -304s-291 94 -291 304zM589 833c0 -34 -28 -63 -62 -63c-35 0 -63 29 -63 63c0 35 28 63 63 63c34 0 62 -28 62 -63zM399 833c0 -34 -28 -63 -63 -63
c-34 0 -63 29 -63 63c0 35 29 63 63 63c35 0 63 -28 63 -63z" />
    <glyph glyph-name="yacute" unicode="&#xfd;" horiz-adv-x="778" 
d="M97 545v158h125v-158c0 -142 70 -200 168 -200s168 51 168 201v157h125v-158c0 -191 -87 -289 -233 -310v-235h-123v235c-146 20 -230 119 -230 310zM516 824l-236 -68l-20 56l220 110z" />
    <glyph glyph-name="ydieresis" unicode="&#xff;" horiz-adv-x="778" 
d="M97 545v158h125v-158c0 -142 70 -200 168 -200s168 51 168 201v157h125v-158c0 -191 -87 -289 -233 -310v-235h-123v235c-146 20 -230 119 -230 310zM543 833c0 -34 -28 -63 -62 -63c-35 0 -63 29 -63 63c0 35 28 63 63 63c34 0 62 -28 62 -63zM353 833
c0 -34 -28 -63 -63 -63c-34 0 -63 29 -63 63c0 35 29 63 63 63c35 0 63 -28 63 -63z" />
    <glyph glyph-name="Scaron" unicode="&#x160;" horiz-adv-x="669" 
d="M576 190c0 -125 -95 -202 -252 -202c-83 0 -166 28 -230 67l43 112c58 -39 128 -63 191 -63c83 0 121 41 121 86c0 47 -26 75 -153 122c-137 50 -184 115 -184 199c0 106 86 204 236 204c75 0 149 -22 194 -48l-40 -110c-41 23 -103 47 -157 47c-74 0 -108 -41 -108 -90
c0 -45 38 -73 137 -109c157 -61 202 -123 202 -215zM506 940l-149 -178h-44l-144 178h106l65 -85l64 85h102z" />
    <glyph glyph-name="scaron" unicode="&#x161;" horiz-adv-x="669" 
d="M576 190c0 -125 -95 -202 -252 -202c-83 0 -166 28 -230 67l43 112c58 -39 128 -63 191 -63c83 0 121 41 121 86c0 47 -26 75 -153 122c-137 50 -184 115 -184 199c0 106 86 204 236 204c75 0 149 -22 194 -48l-40 -110c-41 23 -103 47 -157 47c-74 0 -108 -41 -108 -90
c0 -45 38 -73 137 -109c157 -61 202 -123 202 -215zM506 940l-149 -178h-44l-144 178h106l65 -85l64 85h102z" />
    <glyph glyph-name="Ydieresis" unicode="&#x178;" horiz-adv-x="750" 
d="M555 703h140l-258 -425v-278h-125v279l-258 424h143l179 -311zM533 833c0 -34 -28 -63 -62 -63c-35 0 -63 29 -63 63c0 35 28 63 63 63c34 0 62 -28 62 -63zM343 833c0 -34 -28 -63 -63 -63c-34 0 -63 29 -63 63c0 35 29 63 63 63c35 0 63 -28 63 -63z" />
    <glyph glyph-name="Ntilde" unicode="&#xd1;" horiz-adv-x="890" 
d="M146 0v707h39l435 -453v449h124v-708h-33l-441 441v-436h-124zM590 907l74 -43s-41 -99 -144 -99c-70 0 -94 55 -147 55c-47 0 -78 -50 -78 -50l-68 55s42 87 146 87c73 0 108 -56 149 -56c43 0 68 51 68 51z" />
    <glyph glyph-name="b" unicode="b" horiz-adv-x="758" 
d="M146 0v703h225c181 0 262 -75 262 -186c0 -76 -44 -130 -123 -158c97 -28 142 -85 142 -160c0 -125 -121 -199 -281 -199h-225zM347 309h-77v-195h107c105 0 141 46 141 98c0 48 -40 97 -171 97zM377 589h-107v-191h89c101 -1 145 51 145 104c0 48 -36 87 -127 87z" />
    <glyph glyph-name="c" unicode="c" horiz-adv-x="819" 
d="M692 153l38 -106s-91 -59 -234 -59c-238 0 -396 156 -396 364c0 203 171 363 379 363c154 0 248 -57 248 -57l-43 -106s-93 46 -184 46c-165 0 -266 -104 -266 -248c0 -141 108 -245 254 -245c119 0 204 48 204 48z" />
    <glyph glyph-name="d" unicode="d" horiz-adv-x="888" 
d="M146 0v703h265c218 0 376 -147 376 -351c0 -201 -161 -352 -376 -352h-265zM412 589h-141v-475h141c136 0 242 99 242 236c0 138 -101 239 -242 239z" />
    <glyph glyph-name="e" unicode="e" horiz-adv-x="721" 
d="M146 0v703h457v-114h-333v-197h302v-110h-302v-168h333v-114h-457z" />
    <glyph glyph-name="f" unicode="f" horiz-adv-x="691" 
d="M146 0v703h457v-114h-334v-205h296v-110h-296v-274h-123z" />
    <glyph glyph-name="g" unicode="g" horiz-adv-x="876" 
d="M452 369h316v-301s-105 -80 -272 -80c-238 0 -396 156 -396 364c0 203 171 363 379 363c157 0 248 -57 248 -57l-43 -106s-91 46 -184 46c-165 0 -266 -104 -266 -248c0 -141 108 -245 254 -245c65 0 122 14 160 28v125h-196v111z" />
    <glyph glyph-name="h" unicode="h" horiz-adv-x="883" 
d="M613 0v277h-343v-277h-124v703h124v-316h343v315h124v-702h-124z" />
    <glyph glyph-name="i" unicode="i" horiz-adv-x="416" 
d="M146 0v703h124v-703h-124z" />
    <glyph glyph-name="j" unicode="j" horiz-adv-x="596" 
d="M43 40l47 102s58 -39 130 -39c97 0 111 62 111 139v461h126v-462c0 -159 -63 -253 -235 -253c-111 0 -179 52 -179 52z" />
    <glyph glyph-name="k" unicode="k" horiz-adv-x="789" 
d="M146 0v703h124v-344l299 344h151l-324 -370l340 -333h-155l-311 301v-301h-124z" />
    <glyph glyph-name="l" unicode="l" horiz-adv-x="659" 
d="M146 0v703h124v-589h333v-114h-457z" />
    <glyph glyph-name="m" unicode="m" horiz-adv-x="999" 
d="M843 706l20 -706h-122l-3 404l-217 -410h-43l-219 403l-2 -397h-121l20 706h55l292 -512l285 512h55z" />
    <glyph glyph-name="n" unicode="n" horiz-adv-x="890" 
d="M146 0v707h39l435 -453v449h124v-708h-33l-441 441v-436h-124z" />
    <glyph glyph-name="o" unicode="o" horiz-adv-x="951" 
d="M100 352c0 203 164 363 375 363c218 0 376 -153 376 -363c0 -207 -161 -363 -376 -363s-375 155 -375 363zM234 350c0 -141 106 -252 242 -252s242 109 242 252c0 144 -101 253 -242 253c-139 0 -242 -109 -242 -253z" />
    <glyph glyph-name="p" unicode="p" horiz-adv-x="726" 
d="M337 204h-67v-204h-124v703h215c187 0 281 -103 281 -250s-93 -249 -305 -249zM352 589h-82v-275h82c116 0 156 62 156 139s-39 136 -156 136z" />
    <glyph glyph-name="q" unicode="q" horiz-adv-x="951" 
d="M824 -70l-75 -86l-174 157c-32 -7 -65 -12 -100 -12c-215 0 -375 155 -375 363c0 203 164 363 375 363c218 0 376 -153 376 -363c0 -129 -63 -237 -162 -300zM234 350c0 -141 106 -252 242 -252c133 0 242 116 242 252c0 144 -101 253 -242 253
c-139 0 -242 -109 -242 -253z" />
    <glyph glyph-name="r" unicode="r" horiz-adv-x="789" 
d="M146 0v703h225c187 0 281 -103 281 -250c0 -73 -37 -176 -131 -222c53 -46 68 -119 152 -119h28v-110s-26 -6 -67 -6c-175 0 -165 161 -250 209c-12 -1 -24 -1 -37 -1h-77v-204h-124zM362 589h-92v-275h92c116 0 156 62 156 139s-39 136 -156 136z" />
    <glyph glyph-name="s" unicode="s" horiz-adv-x="669" 
d="M576 190c0 -125 -95 -202 -252 -202c-83 0 -166 28 -230 67l43 112c58 -39 128 -63 191 -63c83 0 121 41 121 86c0 47 -26 75 -153 122c-137 50 -184 115 -184 199c0 106 86 204 236 204c75 0 149 -22 194 -48l-40 -110c-41 23 -103 47 -157 47c-74 0 -108 -41 -108 -90
c0 -45 38 -73 137 -109c157 -61 202 -123 202 -215z" />
    <glyph glyph-name="t" unicode="t" horiz-adv-x="705" 
d="M57 589v114h591v-114h-231v-589h-125v589h-235z" />
    <glyph glyph-name="u" unicode="u" 
d="M138 291v412h124v-412c0 -134 61 -190 167 -190s171 56 171 191v411h124v-412c0 -210 -119 -304 -295 -304s-291 94 -291 304z" />
    <glyph glyph-name="v" unicode="v" horiz-adv-x="808" 
d="M190 703l215 -480l216 480h130l-326 -712h-42l-326 712h133z" />
    <glyph glyph-name="x" unicode="x" horiz-adv-x="800" 
d="M69 703h149l182 -270l187 270h144l-255 -357l256 -346h-150l-184 249l-183 -249h-147l255 336z" />
    <glyph glyph-name="z" unicode="z" horiz-adv-x="764" 
d="M109 703h564v-38l-385 -551h376v-114h-581v38l384 551h-358v114z" />
    <glyph glyph-name="a" unicode="a" 
d="M599 0v168h-336v-168h-125v401c0 216 108 314 291 314s295 -98 295 -314v-401h-125zM263 401v-135c62 1 303 1 336 1v133c0 150 -70 201 -168 201s-168 -58 -168 -200z" />
    <glyph glyph-name="y" unicode="y" horiz-adv-x="778" 
d="M97 545v158h125v-158c0 -142 70 -200 168 -200s168 51 168 201v157h125v-158c0 -191 -87 -289 -233 -310v-235h-123v235c-146 20 -230 119 -230 310z" />
    <glyph glyph-name="w" unicode="w" horiz-adv-x="1106" 
d="M1032 703l-219 -712h-43l-218 475l-215 -475h-42l-221 712h137l133 -448l189 455h41l191 -454l132 447h135z" />
    </font>
</defs>
</svg>
