<svg xmlns="http://www.w3.org/2000/svg" viewBox="0 0 165.38 80.93"><defs><style>.cls-1{fill:#37a203}</style></defs><title>logo_green</title><g id="Слой_2" data-name="Слой 2"><g id="Слой_1-2" data-name="Слой 1"><path class="cls-1" d="M1.85 50.54a26 26 0 0 1 12.1-22c0-.09-.09-.18-.13-.27l-.15-.42c-.17-.31-.32-.63-.49-.94a27.75 27.75 0 0 0 1.37 48q.23-.88.49-1.76A26.06 26.06 0 0 1 1.85 50.54zm46.34-18.92a12.68 12.68 0 0 1-1 1.63A26 26 0 0 1 41 72.93q.35.83.66 1.67a27.7 27.7 0 0 0 6.5-43zm29.34 12.07v13.4h-3.1v-5.5H69.1v5.49H66V43.69h3.1v5.19h5.34v-5.19zm7.04 13.58a5.79 5.79 0 0 1-2.26-.42 4.91 4.91 0 0 1-1.67-1.12 4.73 4.73 0 0 1-1-1.64 5.64 5.64 0 0 1 0-3.91 4.73 4.73 0 0 1 1-1.64 5 5 0 0 1 1.67-1.13 5.67 5.67 0 0 1 2.26-.41 5.61 5.61 0 0 1 2.25.42 5 5 0 0 1 1.66 1.13 4.86 4.86 0 0 1 1 1.64 5.41 5.41 0 0 1 .36 2 5.53 5.53 0 0 1-.35 2 4.74 4.74 0 0 1-1 1.64 4.91 4.91 0 0 1-1.67 1.12 5.79 5.79 0 0 1-2.25.32zm-2.21-5.13A2.74 2.74 0 0 0 83 54a2 2 0 0 0 1.59.71 2 2 0 0 0 .87-.19 2.08 2.08 0 0 0 .69-.53 2.54 2.54 0 0 0 .46-.82 3.14 3.14 0 0 0 .17-1 2.74 2.74 0 0 0-.62-1.88 2 2 0 0 0-1.57-.71 2 2 0 0 0-1.58.72 2.53 2.53 0 0 0-.46.82 3.12 3.12 0 0 0-.19 1.02zM107 57.08h-3v-5.56a2.27 2.27 0 0 0-.36-1.42 1.13 1.13 0 0 0-.92-.44 1.57 1.57 0 0 0-.61.13 2.08 2.08 0 0 0-.58.37 3.05 3.05 0 0 0-.83 1.26v5.68h-3v-5.58a2.27 2.27 0 0 0-.36-1.42 1.14 1.14 0 0 0-.92-.44 1.83 1.83 0 0 0-1.18.48 2.74 2.74 0 0 0-.84 1.27v5.68h-3v-9.91h2.72v1.66a3.59 3.59 0 0 1 1.48-1.38 4.78 4.78 0 0 1 2.14-.46 3.51 3.51 0 0 1 1.09.15 2.62 2.62 0 0 1 .8.42 2.21 2.21 0 0 1 .55.61 2.66 2.66 0 0 1 .3.75 3.9 3.9 0 0 1 1.52-1.44 4.37 4.37 0 0 1 2.11-.5 2.91 2.91 0 0 1 1.52.35 2.53 2.53 0 0 1 .9.91 3.51 3.51 0 0 1 .42 1.22 8.31 8.31 0 0 1 .1 1.28zm6.75.19a5.86 5.86 0 0 1-2.24-.41 5 5 0 0 1-1.68-1.1 4.72 4.72 0 0 1-1-1.61 5.2 5.2 0 0 1-.36-1.92 5.71 5.71 0 0 1 .36-2 4.92 4.92 0 0 1 1-1.67 4.84 4.84 0 0 1 1.67-1.13 5.79 5.79 0 0 1 2.26-.42 5.72 5.72 0 0 1 2.25.42 4.93 4.93 0 0 1 1.66 1.12 4.76 4.76 0 0 1 1 1.63 5.45 5.45 0 0 1 .33 1.92v.52a3.76 3.76 0 0 1-.06.44h-7.32a2 2 0 0 0 .73 1.52 2.31 2.31 0 0 0 1.48.52 2.72 2.72 0 0 0 1.27-.32 1.64 1.64 0 0 0 .82-.87l2.57.72a4.62 4.62 0 0 1-1.81 1.91 5.62 5.62 0 0 1-2.93.73zm2.09-6.08a2.27 2.27 0 0 0-.68-1.49 2 2 0 0 0-1.45-.55 2 2 0 0 0-1.46.56 2.31 2.31 0 0 0-.67 1.48zm16.78-4.01h2.87l-4.09 9.91h-2.47L127.39 53l-1.53 4.08h-2.47l-4.1-9.91h2.85l2.7 7.11.92-2.7-1.76-4.4h2.42l1 3 .94-3h2.42L129 51.59l.92 2.7zm8.55 10.09a5.79 5.79 0 0 1-2.26-.42 4.91 4.91 0 0 1-1.67-1.12 4.73 4.73 0 0 1-1-1.64 5.64 5.64 0 0 1 0-3.91 4.73 4.73 0 0 1 1-1.64 5 5 0 0 1 1.67-1.13 5.67 5.67 0 0 1 2.26-.42 5.61 5.61 0 0 1 2.25.42 5 5 0 0 1 1.66 1.13 4.86 4.86 0 0 1 1 1.64 5.41 5.41 0 0 1 .36 2 5.53 5.53 0 0 1-.35 2 4.74 4.74 0 0 1-1 1.64 4.91 4.91 0 0 1-1.67 1.12 5.79 5.79 0 0 1-2.25.33zM139 52.14a2.74 2.74 0 0 0 .62 1.88 2 2 0 0 0 1.59.71 2 2 0 0 0 .87-.19 2.08 2.08 0 0 0 .69-.53 2.54 2.54 0 0 0 .46-.82 3.14 3.14 0 0 0 .17-1 2.74 2.74 0 0 0-.62-1.88 2 2 0 0 0-1.57-.71 2 2 0 0 0-1.58.72 2.53 2.53 0 0 0-.46.82 3.12 3.12 0 0 0-.17 1zm15.25-2.38a5.8 5.8 0 0 0-2 .36 2.42 2.42 0 0 0-1.28 1v5.94h-3v-9.88h2.77v2a4.21 4.21 0 0 1 1.26-1.57 3 3 0 0 1 1.71-.58h.49zm7.92 7.32l-2.59-4-1.06 1.09v2.89h-3V43.31h3v8l3.34-4.11h3.21l-3.57 4.27 3.87 5.64zM66 76.69v-13.4h5a7.4 7.4 0 0 1 2.91.53 5.85 5.85 0 0 1 3.35 3.56 7.82 7.82 0 0 1 .42 2.62 7.7 7.7 0 0 1-.47 2.76 5.94 5.94 0 0 1-1.35 2.11 6.05 6.05 0 0 1-2.11 1.36 7.51 7.51 0 0 1-2.75.48zM74.53 70a5.23 5.23 0 0 0-.24-1.61 3.64 3.64 0 0 0-.69-1.25 3 3 0 0 0-1.11-.81A3.76 3.76 0 0 0 71 66h-1.9v8H71a3.59 3.59 0 0 0 1.51-.3 3.05 3.05 0 0 0 1.1-.84 3.83 3.83 0 0 0 .68-1.26 5.16 5.16 0 0 0 .24-1.6zM84 76.88a5.79 5.79 0 0 1-2.26-.42 4.91 4.91 0 0 1-1.67-1.12 4.73 4.73 0 0 1-1-1.64 5.64 5.64 0 0 1 0-3.91 4.73 4.73 0 0 1 1-1.64A5 5 0 0 1 81.73 67a5.67 5.67 0 0 1 2.27-.41 5.61 5.61 0 0 1 2.25.42 5 5 0 0 1 1.66 1.13 4.86 4.86 0 0 1 1 1.64 5.41 5.41 0 0 1 .36 2 5.53 5.53 0 0 1-.35 2 4.74 4.74 0 0 1-1 1.64 4.91 4.91 0 0 1-1.67 1.12 5.79 5.79 0 0 1-2.25.34zm-2.21-5.13a2.74 2.74 0 0 0 .62 1.88 2 2 0 0 0 1.59.71 2 2 0 0 0 .87-.19 2.08 2.08 0 0 0 .69-.53 2.54 2.54 0 0 0 .46-.82 3.14 3.14 0 0 0 .17-1 2.74 2.74 0 0 0-.62-1.88 2 2 0 0 0-1.57-.76 2 2 0 0 0-1.58.72 2.53 2.53 0 0 0-.46.82 3.12 3.12 0 0 0-.18 1.04zm18.54 4.94h-3v-5.57a2.23 2.23 0 0 0-.37-1.42 1.2 1.2 0 0 0-1-.44 1.68 1.68 0 0 0-.64.13 2.66 2.66 0 0 0-.62.37 2.83 2.83 0 0 0-.54.56 2.64 2.64 0 0 0-.37.7v5.68h-3v-9.92h2.71v1.66a3.6 3.6 0 0 1 1.5-1.37 5.25 5.25 0 0 1 2.3-.48 3 3 0 0 1 1.55.35 2.5 2.5 0 0 1 .91.91 3.51 3.51 0 0 1 .42 1.22 8.31 8.31 0 0 1 .1 1.28zm6.74.19a5.86 5.86 0 0 1-2.24-.41 5 5 0 0 1-1.68-1.1 4.72 4.72 0 0 1-1-1.61 5.2 5.2 0 0 1-.36-1.92 5.71 5.71 0 0 1 .36-2 4.92 4.92 0 0 1 1-1.67 4.84 4.84 0 0 1 1.66-1.17 5.79 5.79 0 0 1 2.26-.42 5.72 5.72 0 0 1 2.25.42 4.93 4.93 0 0 1 1.68 1.13 4.76 4.76 0 0 1 1 1.63 5.45 5.45 0 0 1 .35 1.94v.52a3.76 3.76 0 0 1-.06.44H105a2 2 0 0 0 .73 1.52 2.31 2.31 0 0 0 1.48.52 2.72 2.72 0 0 0 1.27-.32 1.64 1.64 0 0 0 .82-.87l2.57.72a4.62 4.62 0 0 1-1.87 1.91 5.62 5.62 0 0 1-2.93.74zm2.09-6.08a2.27 2.27 0 0 0-.68-1.49 2 2 0 0 0-1.45-.55 2 2 0 0 0-1.46.56 2.31 2.31 0 0 0-.67 1.48zM76.57 36.72v-8l-2.91 5.83H72l-2.9-5.85v8H66V23.32h3.36l3.47 7 3.49-7h3.34v13.4zm5.49 1.49a4.47 4.47 0 0 0 .71.19 3.56 3.56 0 0 0 .59.06 1 1 0 0 0 .85-.38 3.77 3.77 0 0 0 .55-1.36L81 26.81h3.1l2.3 7.32 2-7.32h2.83l-3.79 11.51a3.92 3.92 0 0 1-3.83 2.76 4.54 4.54 0 0 1-.76-.07 4.21 4.21 0 0 1-.78-.22zm-44.92-9.53c-2.78 3.12-8.54 1.95-8.69 1.09-.12-.67 3.23-.87 6.14-4a11.66 11.66 0 0 0 1.28-1.64 8.72 8.72 0 1 0 1.31 4.51zm8.95-4.31L30.62 11.56 40.19 0l15.47 12.81zm-14-13l13.86 11.51L54.17 13 40.33 1.49z"/><path class="cls-1" d="M42.92 19.13a35.59 35.59 0 0 1-5.81-9.55l-.52.68c3.84.09 6.84 2.4 9.88 4.48.55.38 1-.5.52-.88-3.07-2.33-6.47-4.39-10.4-4.67a.54.54 0 0 0-.52.68 22.59 22.59 0 0 0 6.55 9.56.22.22 0 0 0 .3-.3z"/><path class="cls-1" d="M40.19 15.17c.53.06.88-.57 1.21-.91a14.46 14.46 0 0 1 1.26-1.12.83.83 0 0 0 .21-.8v-.08a.68.68 0 0 0-.48-.48h-.09a.82.82 0 0 0-.8.21 15.51 15.51 0 0 0-1.36 1.73 1.79 1.79 0 0 0-.44.87.58.58 0 0 0 .51.6zm2.52-8.47c.6.83 1.21 1.66 1.81 2.49.44.61.8 1.52 1.63 1.58a.34.34 0 0 0 .33-.33c.07-.8-.87-1.37-1.38-1.88L43 6.47c-.15-.15-.43.05-.3.23z"/><path class="cls-1" d="M43 10.35a25 25 0 0 1 2.39-1.91c.55-.39 1.41-.79 1.47-1.53a.31.31 0 0 0-.16-.28c-.77-.34-1.61.39-2.21.84a20.94 20.94 0 0 0-2.32 2c-.54.54.28 1.34.83.83zm3.59 12.78a1.59 1.59 0 0 0-3.16.27 13.15 13.15 0 0 1-1.81 8c-3.06 5-8.76 6.33-10.8 6.65l-1.76-.15a14.49 14.49 0 0 0-3.2 0l-3.72.3a1.16 1.16 0 0 0-.48 0c-.15 0-.4.06-.7.13l-.64.05v.11c-2.27.67-6.55 2.7-9 8.79a24.69 24.69 0 0 0-1.65 10.51A1.47 1.47 0 0 0 11 59.27h.09a1.52 1.52 0 0 0 1.27-1.69 21 21 0 0 1 1.37-9 11.58 11.58 0 0 1 7-7l2.06 16-6.93 20.94a1.59 1.59 0 1 0 3 1.16l8.89-20.41h.48l9 20.65a1.59 1.59 0 1 0 3-1.17l-6.94-22.44a.49.49 0 0 0-.18-.2L35.72 40a17 17 0 0 0 8.61-7 16.3 16.3 0 0 0 2.26-9.87z"/></g></g></svg>